<?xml version="1.0" standalone="no"?><!DOCTYPE svg PUBLIC "-//W3C//DTD SVG 1.1//EN" "http://www.w3.org/Graphics/SVG/1.1/DTD/svg11.dtd" ><svg xmlns="http://www.w3.org/2000/svg"><metadata></metadata><defs><font id="Source Han Serif CN SemiBold:Version 1.00" horiz-adv-x="1070"><font-face font-family="Source Han Serif CN SemiBold" font-weight="600" font-stretch="normal" units-per-em="1000" panose-1="2 2 6 0 0 0 0 0 0 0" ascent="1151" descent="-286" x-height="0" bbox="-97 -276 1057 880" underline-thickness="50" underline-position="-125" unicode-range="U+0021-ff1b" /><missing-glyph horiz-adv-x="1000" d="M100 880 l800 0 l0 -1000 l-800 0 l0 1000 ZM818 830 l-636 0 l318 -409 l318 409 ZM850 -29 l0 818 l-318 -409 l318 -409 ZM818 -70 l-318 409 l-318 -409 l636 0 ZM150 -29 l318 409 l-318 409 l0 -818 Z" /><glyph glyph-name="" unicode="!" d="M166 -14 q-31 0 -53 22 q-22 21 -22 51 q0 30 22 53 q22 22 53 22 q30 0 52 -22 q22 -23 22 -53 q0 -30 -22 -51 q-21 -22 -52 -22 ZM166 754 q67 0 67 -73 q0 -54 -34 -287 l-18 -158 l-32 0 l-18 158 q-34 233 -34 287 q0 73 69 73 Z" /><glyph glyph-name="" unicode="&quot;" d="M106 813 q60 0 60 -68 q0 -27 -10 -89 l-4 -25 l-5 -24 q-4 -27 -6 -39 l-18 -97 l-32 0 l-19 97 q-1 6 -3 18 l-2 10 l-2 11 q-4 29 -8 49 q-9 62 -9 89 q0 68 58 68 ZM303 813 q59 0 59 -68 q0 -27 -10 -89 l-4 -25 l-4 -24 q-4 -28 -6 -39 l-19 -97 l-32 0 l-18 97 q-1 7 -3 18 l-2 10 l-2 11 q-5 30 -8 49 q-10 62 -10 89 q0 68 59 68 Z" /><glyph glyph-name="" unicode="$" d="M311 30 q51 9 81 43 q30 34 30 85 q0 49 -25 79 q-25 29 -86 55 l0 -262 ZM272 680 q-50 -8 -78 -40 q-30 -33 -30 -84 q0 -88 108 -132 l0 256 ZM323 406 q108 -40 153 -95 q42 -49 42 -124 q0 -82 -56 -136 q-56 -54 -151 -64 l0 -114 l-41 0 l0 112 q-93 1 -150 43 q-58 43 -64 115 q15 37 52 37 q48 0 61 -65 l15 -76 q42 -12 86 -12 l0 282 l-19 7 q-182 68 -182 212 q0 82 56 136 q56 55 147 61 l0 102 l42 0 l0 -102 q80 -5 131 -47 q52 -42 58 -109 q-12 -39 -49 -39 q-23 0 -39 14 q-19 18 -27 56 l-16 74 q-24 7 -58 9 l0 -274 l9 -3 Z" /><glyph glyph-name="" unicode="%" d="M212 -7 l513 744 l31 -22 l-514 -745 l-30 23 ZM155 497 q0 -196 76 -196 q74 0 74 196 q0 197 -74 197 q-76 0 -76 -197 ZM231 726 q66 0 108 -53 q47 -61 47 -176 q0 -113 -47 -174 q-42 -53 -108 -53 q-67 0 -109 53 q-48 61 -48 174 q0 115 48 176 q42 53 109 53 ZM651 218 q0 -197 76 -197 q74 0 74 197 q0 196 -74 196 q-76 0 -76 -196 ZM727 446 q66 0 108 -53 q47 -61 47 -175 q0 -114 -47 -175 q-42 -53 -108 -53 q-67 0 -109 53 q-48 61 -48 175 q0 114 48 175 q42 53 109 53 Z" /><glyph glyph-name="" unicode="&amp;" d="M303 54 q92 0 156 56 q-14 16 -31 35 l-30 34 q-37 42 -58 65 q-58 71 -116 139 q-90 -61 -90 -163 q0 -70 45 -117 q48 -49 124 -49 ZM305 714 q-42 0 -70 -28 q-28 -29 -28 -73 q0 -62 48 -122 q9 -11 19 -23 l18 -21 q106 81 106 164 q0 48 -26 76 q-25 27 -67 27 ZM668 423 q-35 -147 -116 -261 q66 -70 116 -121 l80 -9 l-2 -34 q-48 -11 -86 -11 q-82 0 -133 48 q-30 32 -45 49 q-85 -99 -219 -99 q-103 0 -168 59 q-62 56 -62 141 q0 139 171 222 l-11 13 q-71 83 -71 171 q0 74 52 119 q51 43 132 43 q81 0 127 -40 q44 -38 44 -102 q0 -105 -164 -188 q14 -16 88 -97 q15 -16 34 -37 l16 -18 l16 -17 q37 -40 62 -67 q62 106 87 237 l-91 12 l0 36 l226 0 l0 -36 l-83 -13 Z" /><glyph glyph-name="" unicode="&#39;" d="M106 813 q60 0 60 -68 q0 -27 -10 -89 l-4 -25 l-5 -24 q-4 -27 -6 -39 l-18 -97 l-32 0 l-19 97 q-1 6 -3 18 l-2 10 l-2 11 q-4 29 -8 49 q-9 62 -9 89 q0 68 58 68 Z" /><glyph glyph-name="" unicode="(" d="M180 307 q0 -140 36 -249 q38 -115 133 -247 l-22 -19 q-239 221 -239 515 q0 296 239 515 l22 -19 q-96 -133 -134 -248 q-35 -107 -35 -248 Z" /><glyph glyph-name="" unicode=")" d="M202 307 q0 140 -36 249 q-38 115 -133 247 l22 19 q239 -221 239 -515 q0 -296 -239 -515 l-22 19 q96 133 134 248 q35 107 35 248 Z" /><glyph glyph-name="" unicode="*" d="M243 824 q39 0 39 -41 q0 -13 -6 -47 l-3 -15 l-3 -17 q-4 -23 -7 -37 l-10 -57 l52 28 q106 55 120 55 q16 0 26 -12 q11 -11 11 -27 q0 -28 -35 -38 q-22 -8 -110 -18 l-57 -7 l42 -42 q8 -8 20 -18 l9 -9 l9 -8 q19 -18 29 -28 q25 -27 25 -46 q0 -16 -11 -26 q-11 -11 -26 -11 q-23 0 -43 31 q-12 18 -45 91 l-26 54 l-25 -54 q-36 -77 -46 -92 q-20 -31 -44 -31 q-36 0 -36 38 q0 20 26 47 q8 9 28 27 l9 8 l9 9 q10 9 19 18 l44 41 l-59 8 q-88 11 -110 18 q-35 11 -35 38 q0 38 39 38 q11 0 119 -54 l51 -28 l-10 57 q-19 97 -19 116 q0 41 40 41 Z" /><glyph glyph-name="" unicode="+" d="M557 337 l-233 0 l0 -250 l-57 0 l0 250 l-233 0 l0 53 l233 0 l0 243 l57 0 l0 -243 l233 0 l0 -53 Z" /><glyph glyph-name="" unicode="," d="M134 -7 q-46 32 -46 77 q0 29 19 49 q20 20 52 20 q37 0 66 -27 q13 -40 13 -78 q0 -92 -63 -169 q-57 -70 -139 -101 l-13 29 q125 68 153 172 l-42 28 Z" /><glyph glyph-name="" unicode="-­&#x2011;" d="M44 311 l264 0 l0 -66 l-264 0 l0 66 Z" /><glyph glyph-name="" unicode="." d="M166 -14 q-32 0 -55 22 q-23 23 -23 54 q0 32 23 55 q23 22 55 22 q32 0 55 -22 q22 -23 22 -55 q0 -32 -22 -54 q-23 -22 -55 -22 Z" /><glyph glyph-name="" unicode="/" d="M304 785 l64 0 l-295 -962 l-65 0 l296 962 Z" /><glyph glyph-name="" unicode="0" d="M155 373 q0 -348 128 -348 q126 0 126 348 q0 339 -126 339 q-128 0 -128 -339 ZM283 751 q100 0 163 -87 q73 -100 73 -291 q0 -197 -73 -299 q-62 -89 -163 -89 q-102 0 -165 89 q-73 102 -73 299 q0 191 73 291 q63 87 165 87 Z" /><glyph glyph-name="" unicode="1" d="M497 32 l0 -32 l-414 0 l0 32 l154 20 q2 120 2 180 l0 433 l-140 -13 l0 38 l236 58 l14 -11 l-3 -159 l0 -346 q0 -58 2 -180 l149 -20 Z" /><glyph glyph-name="" unicode="2" d="M518 94 l0 -94 l-463 0 l0 72 q33 36 88 100 l20 23 l21 24 q22 25 38 43 q84 95 119 157 q38 69 38 136 q0 72 -36 115 q-36 43 -97 43 q-26 0 -53 -7 l-24 -85 q-16 -72 -63 -72 q-36 0 -55 36 q9 80 76 126 q62 42 153 42 q104 0 160 -55 q51 -52 51 -142 q0 -69 -54 -142 q-43 -59 -181 -193 q-17 -15 -56 -55 l-17 -17 l-18 -18 q-20 -21 -37 -37 l390 0 Z" /><glyph glyph-name="" unicode="3" d="M186 633 q-15 -64 -63 -64 q-38 0 -52 35 q11 73 72 113 q56 36 139 36 q100 0 157 -50 q56 -48 56 -130 q0 -138 -161 -183 q183 -33 183 -198 q0 -91 -68 -148 q-70 -59 -183 -59 q-193 0 -217 158 q16 37 54 37 q25 0 39 -17 q13 -16 23 -57 l18 -74 q28 -7 58 -7 q78 0 122 46 q43 45 43 123 q0 81 -42 126 q-44 46 -126 46 l-49 0 l0 44 l41 0 q73 0 115 41 q43 41 43 118 q0 69 -35 107 q-35 37 -98 37 q-23 0 -50 -6 l-19 -74 Z" /><glyph glyph-name="" unicode="4" d="M328 292 l0 351 l-241 -351 l241 0 ZM543 218 l-114 0 l0 -218 l-101 0 l0 218 l-297 0 l0 60 l324 467 l74 0 l0 -453 l114 0 l0 -74 Z" /><glyph glyph-name="" unicode="5" d="M154 437 q54 17 118 17 q114 0 179 -59 q68 -62 68 -171 q0 -109 -73 -174 q-73 -65 -192 -65 q-183 0 -211 158 q13 37 54 37 q46 0 62 -71 l17 -75 q32 -9 66 -9 q78 0 122 51 q43 51 43 141 q0 86 -46 135 q-45 47 -122 47 q-53 0 -106 -17 l-29 11 l23 344 l370 0 l0 -94 l-330 0 l-13 -206 Z" /><glyph glyph-name="" unicode="6" d="M291 25 q55 0 87 46 q34 49 34 142 q0 180 -125 180 q-78 0 -132 -49 q-1 -10 -1 -29 q0 -143 37 -218 q35 -72 100 -72 ZM487 725 q-298 -69 -329 -343 q69 69 164 69 q91 0 145 -60 q55 -61 55 -162 q0 -112 -64 -179 q-63 -65 -168 -65 q-115 0 -181 83 q-66 84 -66 231 q0 177 116 302 q121 129 322 152 l6 -28 Z" /><glyph glyph-name="" unicode="7" d="M509 737 l0 -59 l-260 -678 l-95 0 l-10 10 l304 633 l-393 0 l0 94 l454 0 Z" /><glyph glyph-name="" unicode="8" d="M283 24 q59 0 94 37 q35 36 35 97 q0 55 -36 95 q-39 43 -135 87 q-94 -66 -94 -164 q0 -70 37 -111 q37 -41 99 -41 ZM283 712 q-48 0 -82 -32 q-35 -34 -35 -87 q0 -110 148 -179 q79 68 79 169 q0 56 -28 91 q-31 38 -82 38 ZM345 400 q88 -42 128 -93 q41 -52 41 -124 q0 -89 -65 -143 q-66 -55 -172 -55 q-106 0 -166 48 q-61 47 -61 131 q0 120 161 191 q-140 75 -140 211 q0 84 62 136 q61 51 152 51 q92 0 146 -50 q52 -47 52 -122 q0 -109 -138 -181 Z" /><glyph glyph-name="" unicode="9" d="M290 346 q62 0 109 40 q3 33 3 67 q0 260 -130 260 q-55 0 -89 -46 q-38 -50 -38 -140 q0 -87 41 -135 q39 -46 104 -46 ZM92 12 q261 89 302 332 q-57 -51 -143 -51 q-94 0 -154 59 q-62 61 -62 162 q1 109 69 175 q66 64 170 64 q112 0 176 -81 q64 -80 64 -219 q0 -173 -103 -296 q-109 -131 -312 -177 l-7 32 Z" /><glyph glyph-name="" unicode=":" d="M166 391 q-32 0 -55 22 q-23 23 -23 54 q0 33 23 56 q23 22 55 22 q32 0 55 -22 q22 -23 22 -56 q0 -32 -22 -54 q-23 -22 -55 -22 ZM166 -14 q-32 0 -55 22 q-23 23 -23 54 q0 32 23 55 q23 22 55 22 q32 0 55 -22 q22 -23 22 -55 q0 -32 -22 -54 q-23 -22 -55 -22 Z" /><glyph glyph-name="" unicode=";" d="M166 391 q-32 0 -55 22 q-23 23 -23 54 q0 33 23 56 q23 22 55 22 q32 0 55 -22 q22 -23 22 -56 q0 -32 -22 -54 q-23 -22 -55 -22 ZM134 -7 q-46 32 -46 77 q0 29 19 49 q20 20 52 20 q37 0 66 -27 q13 -40 13 -78 q0 -92 -63 -169 q-57 -70 -139 -101 l-13 29 q125 68 153 172 l-42 28 Z" /><glyph glyph-name="" unicode="&lt;" d="M120 364 l405 -223 l-26 -47 l-440 250 l0 39 l440 250 l26 -47 l-405 -222 Z" /><glyph glyph-name="" unicode="=" d="M34 224 l0 53 l523 0 l0 -53 l-523 0 ZM34 450 l0 53 l523 0 l0 -53 l-523 0 Z" /><glyph glyph-name="" unicode="&gt;" d="M533 383 l0 -39 l-441 -250 l-26 47 l405 223 l-405 222 l26 47 l441 -250 Z" /><glyph glyph-name="" unicode="?" d="M169 134 q31 0 53 -22 q22 -23 22 -53 q0 -30 -22 -51 q-22 -22 -53 -22 q-31 0 -52 22 q-22 21 -22 51 q0 30 22 53 q22 22 52 22 ZM156 633 q-76 13 -76 62 q0 46 56 61 q89 -16 164 -74 q92 -72 92 -167 q0 -105 -106 -147 l-40 -16 q-35 -13 -46 -25 q-10 -11 -11 -36 l-1 -58 l-33 0 l-14 43 q-16 58 -16 75 q0 28 19 47 q19 18 67 36 l59 21 q71 30 71 84 q0 34 -23 68 l-162 26 Z" /><glyph glyph-name="" unicode="@" d="M578 441 q-24 35 -63 35 q-61 0 -107 -66 q-63 -87 -63 -193 q0 -108 76 -108 q46 0 106 56 l51 276 ZM613 188 q-19 -100 56 -100 q67 0 119 70 q60 80 60 211 q0 142 -91 229 q-89 85 -229 85 q-188 0 -314 -135 q-122 -131 -122 -315 q0 -175 107 -276 q100 -93 257 -93 q112 0 196 42 l12 -26 q-96 -51 -223 -51 q-176 0 -284 99 q-117 107 -117 296 q0 209 141 351 q143 144 354 144 q166 0 265 -100 q96 -98 96 -258 q0 -148 -84 -237 q-72 -76 -160 -76 q-103 0 -120 90 q-71 -90 -152 -90 q-53 0 -85 35 q-36 40 -36 113 q0 128 90 236 q76 91 166 91 q46 0 76 -37 l69 37 l16 -14 l-63 -321 Z" /><glyph glyph-name="" unicode="a" d="M443 283 l-113 342 l-109 -342 l222 0 ZM724 36 l0 -36 l-307 0 l0 36 l103 12 l-64 194 l-248 0 l-62 -193 l104 -13 l0 -36 l-240 0 l0 36 l88 13 l230 692 l74 0 l236 -695 l86 -10 Z" /><glyph glyph-name="" unicode="b" d="M335 42 q198 0 198 159 q0 161 -209 161 l-60 0 q0 -219 1 -320 l70 0 ZM265 696 q-1 -96 -1 -293 l54 0 q183 0 183 153 q0 140 -166 140 l-70 0 ZM369 737 q120 0 184 -50 q60 -47 60 -127 q0 -137 -183 -173 q223 -27 223 -185 q0 -85 -67 -138 q-79 -64 -235 -64 l-303 0 l0 36 l99 11 q2 99 2 301 l0 49 q0 196 -2 293 l-99 11 l0 36 l321 0 Z" /><glyph glyph-name="" unicode="c" d="M651 203 l-1 -165 q-99 -56 -221 -56 q-167 0 -271 104 q-107 106 -107 282 q0 174 110 282 q106 105 270 105 q111 0 210 -54 l0 -167 l-58 0 l-34 153 q-48 24 -104 24 q-117 0 -189 -87 q-77 -93 -77 -256 q0 -165 74 -255 q70 -85 190 -85 q64 0 115 24 l34 151 l59 0 Z" /><glyph glyph-name="" unicode="d" d="M343 42 q127 0 195 86 q68 85 68 240 q0 159 -67 244 q-66 84 -188 84 l-85 0 q-1 -99 -1 -304 l0 -35 q0 -215 1 -315 l77 0 ZM368 737 q168 0 265 -96 q99 -98 99 -272 q0 -173 -106 -272 q-104 -97 -278 -97 l-300 0 l0 36 l99 11 q2 97 2 309 l0 36 q0 200 -2 298 l-99 11 l0 36 l320 0 Z" /><glyph glyph-name="" unicode="e" d="M622 198 l-3 -198 l-571 0 l0 36 l99 11 q2 97 2 296 l0 199 q-1 83 -2 148 l-99 11 l0 36 l550 0 l3 -193 l-53 0 l-33 149 l-249 0 q-1 -96 -1 -297 l159 0 l15 108 l46 0 l0 -254 l-46 0 l-14 105 l-160 0 q0 -212 1 -311 l270 0 l33 154 l53 0 Z" /><glyph glyph-name="" unicode="f" d="M266 693 q-1 -96 -1 -297 l165 0 l14 108 l46 0 l0 -263 l-46 0 l-14 114 l-165 0 q0 -209 1 -308 l107 -11 l0 -36 l-325 0 l0 36 l99 11 q2 97 2 296 l0 199 q-1 83 -2 148 l-99 11 l0 36 l552 0 l4 -193 l-54 0 l-32 149 l-252 0 Z" /><glyph glyph-name="" unicode="g" d="M736 317 l-66 -7 q-3 -102 -3 -213 l0 -49 q-121 -66 -239 -66 q-169 0 -273 107 q-104 107 -104 280 q0 171 106 279 q106 107 275 107 q123 0 219 -54 l0 -167 l-59 0 l-33 150 q-50 27 -114 27 q-118 0 -190 -88 q-76 -93 -76 -254 q0 -159 73 -251 q72 -90 193 -90 q56 0 110 18 l0 52 q0 106 -3 209 l-113 10 l0 37 l297 0 l0 -37 Z" /><glyph glyph-name="" unicode="h" d="M718 690 q-2 -97 -2 -296 l0 -199 l2 -148 l100 -11 l0 -36 l-316 0 l0 36 l97 11 q2 95 2 310 l-337 0 q0 -213 2 -310 l98 -11 l0 -36 l-316 0 l0 36 l99 11 q1 97 1 296 l0 199 l-1 148 l-99 11 l0 36 l316 0 l0 -36 l-98 -11 q-2 -95 -2 -292 l337 0 l0 146 q-1 81 -2 146 l-97 11 l0 36 l316 0 l0 -36 l-100 -11 Z" /><glyph glyph-name="" unicode="i" d="M266 690 q-1 -97 -1 -296 l0 -199 l1 -148 l100 -11 l0 -36 l-318 0 l0 36 l99 11 q2 97 2 296 l0 199 q-1 83 -2 148 l-99 11 l0 36 l318 0 l0 -36 l-100 -11 Z" /><glyph glyph-name="" unicode="j" d="M380 701 l-99 -11 q-3 -95 -3 -293 l0 -157 q0 -173 -22 -247 q-19 -81 -80 -128 q-58 -45 -134 -45 q-81 0 -101 53 q7 58 69 58 q39 0 82 -39 l29 -27 q48 46 48 168 q0 25 -3 182 q-1 93 -2 187 q-2 132 -4 288 l-109 11 l0 36 l329 0 l0 -36 Z" /><glyph glyph-name="" unicode="k" d="M747 36 l0 -36 l-292 0 l0 36 l87 10 l-181 336 l-100 -122 l0 -102 q1 -61 2 -111 l97 -11 l0 -36 l-312 0 l0 36 l99 11 q2 97 2 296 l0 199 q-1 83 -2 148 l-99 11 l0 36 l316 0 l0 -36 l-101 -11 q-2 -97 -2 -296 l0 -75 l295 367 l-92 15 l0 36 l253 0 l0 -36 l-104 -15 l-181 -219 l234 -421 l81 -10 Z" /><glyph glyph-name="" unicode="l" d="M604 210 l-5 -210 l-551 0 l1 36 l98 11 q1 65 2 146 l0 201 q0 198 -2 296 l-99 11 l0 36 l321 0 l0 -36 l-103 -11 l-1 -147 l0 -353 q0 -80 1 -146 l243 0 l39 166 l56 0 Z" /><glyph glyph-name="" unicode="m" d="M847 690 q-2 -65 -3 -148 l0 -347 q1 -83 3 -148 l99 -11 l0 -36 l-312 0 l0 36 l94 11 q1 55 1 146 l1 71 l0 70 l2 305 l-246 -639 l-47 0 l-256 638 q1 -33 2 -78 l1 -40 l1 -38 q2 -87 2 -96 l0 -336 l99 -14 l0 -36 l-252 0 l0 36 l103 14 l2 638 l-102 13 l0 36 l218 0 l238 -590 l228 590 l223 0 l0 -36 l-99 -11 Z" /><glyph glyph-name="" unicode="n" d="M769 701 l-92 -14 l-3 -693 l-52 0 l-445 618 l3 -561 l122 -15 l0 -36 l-264 0 l0 36 l92 14 l4 623 l-14 18 l-77 10 l0 36 l187 0 l400 -556 l-2 505 l-123 15 l0 36 l264 0 l0 -36 Z" /><glyph glyph-name="" unicode="o" d="M179 368 q0 -146 51 -238 q57 -103 160 -103 q103 0 160 103 q51 92 51 238 q0 147 -51 240 q-57 103 -160 103 q-103 0 -160 -103 q-51 -93 -51 -240 ZM390 755 q140 0 235 -99 q103 -108 103 -288 q0 -176 -103 -284 q-96 -102 -235 -102 q-141 0 -236 99 q-103 108 -103 287 q0 176 104 285 q96 102 235 102 Z" /><glyph glyph-name="" unicode="p" d="M266 696 q-1 -99 -1 -302 l0 -57 l60 0 q189 0 189 182 q0 177 -184 177 l-64 0 ZM265 295 l0 -122 q0 -69 1 -126 l107 -11 l0 -36 l-325 0 l0 36 l99 11 q2 97 2 296 l0 199 q-1 83 -2 148 l-99 11 l0 36 l295 0 q143 0 216 -59 q70 -56 70 -159 q0 -100 -71 -158 q-81 -66 -240 -66 l-53 0 Z" /><glyph glyph-name="" unicode="q" d="M179 368 q0 -146 51 -238 q57 -103 160 -103 q103 0 160 103 q51 92 51 238 q0 147 -51 240 q-57 103 -160 103 q-103 0 -160 -103 q-51 -93 -51 -240 ZM686 -196 q-55 -36 -137 -36 q-102 0 -162 65 q-56 59 -58 154 q-120 22 -196 118 q-82 104 -82 263 q0 176 104 285 q96 102 235 102 q140 0 235 -99 q103 -108 103 -288 q0 -159 -85 -264 q-79 -99 -202 -118 q-1 -78 40 -123 q41 -45 110 -45 q40 0 84 15 l11 -29 Z" /><glyph glyph-name="" unicode="r" d="M347 385 q83 0 128 46 q42 43 42 115 q0 150 -165 150 l-87 0 q-1 -98 -1 -311 l83 0 ZM715 36 l0 -36 q-37 -12 -91 -12 q-57 0 -84 18 q-28 17 -37 60 l-42 167 q-15 65 -45 88 q-29 24 -96 24 l-56 0 q0 -201 1 -298 l101 -11 l0 -36 l-318 0 l0 36 l99 11 q2 97 2 296 l0 199 q-1 83 -2 148 l-99 11 l0 36 l320 0 q126 0 195 -50 q69 -51 69 -141 q0 -68 -47 -116 q-51 -53 -148 -69 q63 -11 96 -46 q31 -32 48 -100 l47 -171 l87 -8 Z" /><glyph glyph-name="" unicode="s" d="M330 421 q111 -45 157 -97 q46 -51 46 -130 q0 -97 -73 -154 q-72 -58 -194 -58 q-122 0 -217 59 l6 159 l55 0 l34 -146 q49 -25 113 -25 q79 0 125 35 q46 36 46 100 q0 52 -30 84 q-30 31 -102 59 l-43 19 q-95 40 -141 90 q-51 56 -51 135 q0 95 72 151 q68 53 179 53 q103 0 184 -58 l-6 -148 l-56 0 l-34 140 q-35 19 -84 19 q-69 0 -109 -32 q-42 -33 -42 -94 q0 -93 120 -141 l45 -20 Z" /><glyph glyph-name="" unicode="t" d="M398 693 q-2 -98 -2 -299 l0 -199 l2 -148 l110 -11 l0 -36 l-341 0 l0 36 l110 11 q3 97 3 296 l0 200 q-1 83 -3 150 l-164 0 l-37 -156 l-54 0 l8 200 l615 0 l8 -200 l-54 0 l-37 156 l-164 0 Z" /><glyph glyph-name="" unicode="u" d="M771 701 l-99 -14 l-2 -386 q-1 -319 -262 -319 q-273 0 -273 301 l0 261 q-1 82 -3 147 l-90 10 l0 36 l318 0 l0 -36 l-107 -12 q-2 -96 -2 -292 l0 -91 q0 -135 48 -196 q44 -55 135 -55 q97 0 143 61 q48 63 47 204 l-2 366 l-115 15 l0 36 l264 0 l0 -36 Z" /><glyph glyph-name="" unicode="v" d="M727 703 l-91 -14 l-233 -695 l-57 0 l-255 698 l-80 9 l0 36 l312 0 l0 -39 l-107 -10 l190 -552 l175 550 l-104 12 l0 39 l250 0 l0 -34 Z" /><glyph glyph-name="" unicode="w" d="M1057 701 l-93 -13 l-189 -694 l-58 0 l-185 579 l-176 -579 l-57 0 l-201 697 l-85 10 l0 36 l305 0 l0 -36 l-99 -12 l140 -533 l165 532 l-105 13 l0 36 l300 0 l0 -36 l-111 -13 l163 -534 l142 533 l-101 14 l0 36 l245 0 l0 -36 Z" /><glyph glyph-name="" unicode="x" d="M703 36 l0 -36 l-317 0 l0 36 l99 11 l-155 269 l-160 -267 l92 -13 l0 -36 l-244 0 l0 36 l98 14 l194 301 l-195 340 l-93 10 l0 36 l319 0 l0 -36 l-100 -11 l141 -245 l146 242 l-95 14 l0 36 l247 0 l0 -36 l-100 -14 l-178 -277 l209 -364 l92 -10 Z" /><glyph glyph-name="" unicode="y" d="M408 302 q0 -180 2 -255 l110 -11 l0 -36 l-340 0 l0 36 l111 11 q2 71 2 241 l-200 405 l-76 8 l0 36 l313 0 l0 -36 l-105 -12 l161 -345 l160 343 l-102 14 l0 36 l246 0 l0 -36 l-93 -14 l-189 -385 Z" /><glyph glyph-name="" unicode="z" d="M587 204 l-7 -204 l-556 0 l0 40 l417 653 l-307 0 l-39 -156 l-59 0 l10 200 l523 0 l0 -40 l-415 -653 l338 0 l40 160 l55 0 Z" /><glyph glyph-name="" unicode="[" d="M202 739 q-2 -98 -2 -299 l0 -415 q1 -83 2 -150 l124 -12 l0 -39 l-216 0 q4 114 4 351 l0 440 q-1 98 -4 175 l216 0 l0 -39 l-124 -12 Z" /><glyph glyph-name="" unicode="\" d="M303 -177 l-295 962 l64 0 l296 -962 l-65 0 Z" /><glyph glyph-name="" unicode="]" d="M244 88 l1 -88 q0 -99 3 -176 l-216 0 l0 39 l124 12 q2 98 2 300 l0 415 q-1 83 -2 149 l-124 12 l0 39 l216 0 q-4 -114 -4 -350 l0 -352 Z" /><glyph glyph-name="" unicode="^" d="M457 227 l-161 256 l-160 -256 l-41 29 l174 285 l54 0 l175 -285 l-41 -29 Z" /><glyph glyph-name="" unicode="_" d="M44 -8 l485 0 l0 -65 l-485 0 l0 65 Z" /><glyph glyph-name="" unicode="a" d="M356 293 q-55 -15 -91 -29 q-111 -44 -111 -129 q0 -85 85 -85 q44 0 117 59 l0 184 ZM562 48 q-33 -61 -101 -61 q-86 0 -102 87 q-48 -49 -79 -67 q-39 -22 -88 -22 q-63 0 -103 35 q-41 36 -41 99 q0 58 39 96 q43 41 149 77 l13 4 l14 4 l30 9 q35 9 63 16 l0 41 q0 79 -24 108 q-22 28 -80 28 q-30 0 -59 -8 l-17 -74 q-12 -62 -60 -62 q-47 0 -53 44 q13 65 71 102 q58 37 150 37 q92 0 134 -44 q43 -45 43 -147 l0 -246 q0 -66 38 -66 q22 0 46 28 l17 -18 Z" /><glyph glyph-name="" unicode="b" d="M223 97 q56 -53 121 -53 q63 0 101 49 q43 57 43 170 q0 109 -39 167 q-37 54 -101 54 q-64 0 -125 -55 l0 -332 ZM221 462 q73 79 169 79 q93 0 151 -72 q61 -75 61 -202 q0 -124 -62 -203 q-63 -79 -163 -79 q-94 0 -157 76 l-12 -72 l-172 11 l0 32 l79 12 q2 112 2 188 l0 500 l-86 8 l0 31 l179 43 l14 -8 l-3 -157 l0 -187 Z" /><glyph glyph-name="" unicode="c" d="M508 117 q-57 -132 -210 -132 q-113 0 -183 74 q-71 76 -71 203 q0 128 80 206 q76 73 188 73 q75 0 129 -40 q55 -40 66 -103 q-11 -43 -53 -43 q-52 0 -63 62 l-18 77 q-24 8 -53 8 q-74 0 -118 -60 q-46 -62 -46 -169 q0 -105 51 -166 q49 -58 130 -58 q95 0 150 78 l21 -10 Z" /><glyph glyph-name="" unicode="d" d="M424 434 q-57 49 -111 49 q-68 0 -108 -50 q-46 -57 -46 -170 q0 -112 43 -168 q40 -51 109 -51 q61 0 113 53 l0 337 ZM614 32 l0 -32 l-180 -11 l-7 71 q-62 -75 -155 -75 q-100 0 -163 75 q-64 76 -64 199 q0 128 68 206 q66 76 170 76 q86 0 145 -70 l0 261 l-90 8 l0 31 l182 43 l15 -8 l-5 -156 l0 -610 l84 -8 Z" /><glyph glyph-name="" unicode="e" d="M356 306 q57 0 57 65 q0 56 -32 93 q-33 38 -83 38 q-53 0 -90 -47 q-42 -52 -48 -149 l196 0 ZM159 267 q2 -108 53 -165 q47 -53 128 -53 q92 0 153 77 l20 -14 q-64 -127 -210 -127 q-116 0 -186 73 q-72 74 -72 204 q0 125 79 204 q74 75 181 75 q95 0 153 -59 q58 -59 58 -154 q0 -39 -7 -61 l-350 0 Z" /><glyph glyph-name="" unicode="f" d="M124 528 q12 157 82 230 q64 67 159 67 q95 0 110 -61 q-2 -52 -64 -52 q-44 0 -82 46 l-26 26 q-25 -16 -37 -36 q-42 -67 -38 -222 l148 0 l0 -45 l-146 0 l0 -249 q0 -63 2 -187 l98 -13 l0 -32 l-294 0 l0 32 l84 11 q3 95 3 189 l0 249 l-89 0 l0 36 l90 11 Z" /><glyph glyph-name="" unicode="g" d="M264 213 q51 0 80 41 q29 40 29 108 q0 66 -28 105 q-28 39 -78 39 q-49 0 -78 -40 q-29 -40 -29 -107 q0 -67 28 -106 q28 -40 76 -40 ZM233 -20 q-47 0 -73 5 q-40 -44 -40 -94 q0 -109 146 -109 q92 0 144 32 q49 31 49 80 q0 86 -103 86 l-123 0 ZM556 462 l-116 6 q32 -44 32 -108 q0 -83 -56 -133 q-56 -49 -150 -49 q-56 0 -95 16 q-27 -34 -27 -69 q0 -53 73 -53 l147 0 q184 0 184 -142 q0 -80 -71 -133 q-78 -59 -211 -59 q-117 0 -177 39 q-54 36 -54 97 q0 71 105 119 q-71 23 -71 87 q0 56 77 125 q-85 47 -85 155 q0 84 56 133 q55 48 150 48 q93 0 146 -44 l125 44 l18 -11 l0 -68 Z" /><glyph glyph-name="" unicode="h" d="M639 32 l0 -32 l-261 0 l0 32 l77 11 q2 112 2 189 l0 114 q0 69 -22 99 q-20 27 -65 27 q-72 0 -147 -70 l0 -170 q0 -77 2 -189 l71 -11 l0 -32 l-261 0 l0 32 l80 11 q2 114 2 189 l0 500 l-86 8 l0 31 l179 43 l14 -8 l-3 -157 l0 -211 q91 103 197 103 q146 0 146 -197 l0 -112 q0 -77 2 -189 l73 -11 Z" /><glyph glyph-name="" unicode="i" d="M171 662 q-31 0 -52 20 q-22 20 -22 50 q0 30 22 50 q21 19 52 19 q31 0 52 -19 q21 -20 21 -50 q0 -30 -21 -50 q-22 -20 -52 -20 ZM301 32 l0 -32 l-261 0 l0 32 l78 11 q2 114 2 189 l0 64 q0 76 -3 148 l-85 8 l0 31 l183 57 l14 -10 l-2 -149 l0 -149 q0 -77 2 -189 l72 -11 Z" /><glyph glyph-name="" unicode="j" d="M169 662 q-31 0 -52 20 q-21 20 -21 50 q0 30 21 50 q21 19 52 19 q31 0 52 -19 q21 -20 21 -50 q0 -30 -21 -50 q-21 -20 -52 -20 ZM211 540 l14 -10 l-3 -149 l0 -278 q0 -137 -12 -199 q-14 -67 -53 -111 q-62 -66 -145 -66 q-50 0 -80 19 q-25 17 -29 42 q9 52 67 52 q47 0 82 -41 l24 -24 q12 11 20 31 q22 53 22 299 l0 189 q0 81 -3 150 l-84 8 l0 31 l180 57 Z" /><glyph glyph-name="" unicode="k" d="M619 32 l0 -32 l-166 0 l-164 284 l-66 -65 q0 -68 2 -176 l80 -11 l0 -32 l-273 0 l0 32 l83 11 q2 118 2 189 l0 500 l-86 8 l0 31 l181 43 l15 -8 l-4 -157 l0 -379 l204 205 l-91 17 l0 34 l255 0 l0 -34 l-102 -13 l-125 -122 l186 -315 l69 -10 Z" /><glyph glyph-name="" unicode="l" d="M308 32 l0 -32 l-277 0 l0 32 l84 11 q2 124 2 189 l0 500 l-86 8 l0 31 l181 43 l15 -8 l-4 -157 l0 -417 q0 -65 2 -189 l83 -11 Z" /><glyph glyph-name="" unicode="m" d="M965 32 l0 -32 l-259 0 l0 32 l75 11 q2 112 2 189 l0 112 q0 72 -21 101 q-19 27 -65 27 q-66 0 -141 -72 q3 -25 3 -55 l0 -113 q0 -77 2 -189 l72 -11 l0 -32 l-260 0 l0 32 l78 11 q2 112 2 189 l0 111 q0 71 -20 101 q-19 28 -65 28 q-66 0 -140 -73 l0 -167 q0 -77 2 -189 l72 -11 l0 -32 l-261 0 l0 32 l78 11 q3 86 3 189 l0 64 q0 55 -4 147 l-84 8 l0 30 l169 59 l15 -10 l8 -90 q89 101 188 101 q107 0 135 -103 q85 103 195 103 q146 0 146 -192 l0 -117 q0 -77 2 -189 l73 -11 Z" /><glyph glyph-name="" unicode="n" d="M641 32 l0 -32 l-261 0 l0 32 l78 11 q2 112 2 189 l0 114 q0 69 -21 98 q-21 28 -66 28 q-67 0 -145 -71 l0 -169 q0 -77 2 -189 l72 -11 l0 -32 l-261 0 l0 32 l78 11 q3 86 3 189 l0 64 q0 55 -4 147 l-84 8 l0 30 l169 59 l15 -10 l8 -90 q90 101 195 101 q145 0 145 -196 l0 -113 q0 -77 2 -189 l73 -11 Z" /><glyph glyph-name="" unicode="o" d="M305 -15 q-110 0 -182 72 q-78 76 -78 206 q0 129 79 207 q73 71 181 71 q107 0 180 -71 q79 -78 79 -207 q0 -130 -78 -207 q-72 -71 -181 -71 ZM305 25 q68 0 105 60 q38 61 38 177 q0 117 -38 179 q-37 61 -105 61 q-143 0 -143 -240 q0 -237 143 -237 Z" /><glyph glyph-name="" unicode="p" d="M230 91 q53 -47 114 -47 q148 0 148 217 q0 110 -38 168 q-37 55 -102 55 q-60 0 -122 -55 l0 -338 ZM225 461 q73 80 169 80 q92 0 151 -73 q61 -75 61 -202 q0 -127 -66 -205 q-64 -76 -164 -76 q-89 0 -149 72 l0 -80 q0 -60 2 -194 l95 -13 l0 -32 l-285 0 l0 32 l81 12 q3 99 3 194 l0 319 q0 87 -4 148 l-84 8 l0 30 l169 59 l14 -10 l7 -69 Z" /><glyph glyph-name="" unicode="q" d="M427 430 q-58 53 -116 53 q-67 0 -107 -52 q-45 -58 -45 -171 q0 -216 152 -216 q62 0 116 55 l0 331 ZM617 -230 l0 -32 l-283 0 l0 32 l94 13 q2 126 2 188 l0 95 q-65 -81 -161 -81 q-99 0 -161 74 q-63 75 -63 198 q0 127 68 207 q67 77 170 77 q89 0 150 -77 l90 75 l14 -9 l-3 -150 l0 -409 q0 -63 2 -189 l81 -12 Z" /><glyph glyph-name="" unicode="r" d="M228 393 q24 69 69 109 q43 39 91 39 q67 0 84 -50 q-2 -76 -64 -76 q-36 0 -73 39 l-13 13 q-64 -49 -94 -151 l0 -84 q0 -74 2 -186 l93 -14 l0 -32 l-281 0 l0 32 l77 11 q3 86 3 189 l0 64 q0 55 -4 147 l-84 8 l0 30 l169 59 l15 -10 l10 -137 Z" /><glyph glyph-name="" unicode="s" d="M295 308 q149 -50 149 -160 q0 -72 -56 -116 q-59 -47 -163 -47 q-90 0 -173 44 l0 123 l55 0 l25 -108 q42 -17 89 -17 q126 0 126 87 q0 64 -103 98 l-53 18 q-136 49 -136 151 q0 69 52 113 q55 47 148 47 q84 0 159 -45 l-4 -114 l-50 0 l-25 99 q-40 20 -79 20 q-50 0 -78 -22 q-28 -22 -28 -59 q0 -35 23 -56 q22 -21 79 -40 l43 -16 Z" /><glyph glyph-name="" unicode="t" d="M367 48 q-44 -63 -134 -63 q-131 0 -131 135 q0 14 1 44 l0 317 l-91 0 l0 36 l97 11 l34 153 l72 0 l-5 -155 l141 0 l0 -45 l-142 0 l0 -361 q0 -81 65 -81 q32 0 73 31 l20 -22 Z" /><glyph glyph-name="" unicode="u" d="M620 32 l0 -32 l-169 -10 l-8 101 q-85 -106 -192 -106 q-151 0 -148 201 l3 283 l-77 15 l0 31 l175 20 l10 -11 l-4 -157 l0 -181 q0 -127 89 -127 q74 0 142 68 l2 342 l-76 15 l0 30 l173 21 l11 -11 l-3 -157 l0 -326 l72 -9 Z" /><glyph glyph-name="" unicode="v" d="M555 492 l-66 -13 l-183 -485 l-50 0 l-198 489 l-62 9 l0 34 l271 0 l0 -34 l-89 -11 l136 -368 l127 366 l-86 13 l0 34 l200 0 l0 -34 Z" /><glyph glyph-name="" unicode="w" d="M844 492 l-63 -12 l-166 -486 l-45 0 q-109 291 -143 401 l-146 -401 l-46 0 l-178 489 l-60 9 l0 34 l259 0 l0 -34 l-85 -10 l118 -363 l126 362 l-81 11 l0 34 l242 0 l0 -34 l-83 -12 l130 -358 l108 357 l-89 13 l0 34 l202 0 l0 -34 Z" /><glyph glyph-name="" unicode="x" d="M573 32 l0 -32 l-274 0 l0 32 l82 10 l-118 175 l-125 -173 l82 -12 l0 -32 l-211 0 l0 32 l72 11 l160 207 l-157 233 l-66 9 l0 34 l258 0 l0 -34 l-71 -10 l114 -167 l119 165 l-77 12 l0 34 l199 0 l0 -34 l-65 -11 l-155 -198 l165 -242 l68 -9 Z" /><glyph glyph-name="" unicode="y" d="M570 494 l-62 -10 l-194 -512 q-90 -245 -217 -245 q-40 0 -69 20 q-30 20 -31 51 q5 24 27 37 q20 13 46 13 q41 0 82 -46 l11 -11 q62 49 107 165 l2 6 l-212 524 l-61 8 l0 32 l270 0 l0 -33 l-90 -9 l143 -392 l135 391 l-97 11 l0 32 l210 0 l0 -32 Z" /><glyph glyph-name="" unicode="z" d="M480 177 l-10 -177 l-437 0 l0 33 l313 454 l-223 0 l-35 -127 l-49 5 l9 161 l417 0 l0 -33 l-310 -454 l237 0 l39 138 l49 0 Z" /><glyph glyph-name="" unicode="{" d="M314 749 q-57 -6 -81 -27 q-24 -22 -24 -69 q0 -43 15 -115 q15 -71 15 -94 q0 -115 -119 -137 q119 -20 119 -137 q0 -23 -15 -94 q-15 -72 -15 -115 q0 -47 24 -69 q24 -21 81 -27 l31 -3 l0 -38 l-43 0 q-180 0 -180 137 q0 48 26 123 l9 27 q5 15 8 26 q8 28 8 48 q0 87 -129 103 l0 38 q129 16 129 104 q0 27 -25 101 q-26 75 -26 122 q0 137 180 137 l43 0 l0 -37 l-31 -4 Z" /><glyph glyph-name="" unicode="|" d="M109 829 l63 0 l0 -1105 l-63 0 l0 1105 Z" /><glyph glyph-name="" unicode="}" d="M334 288 q-130 -16 -130 -103 q0 -27 26 -101 q26 -75 26 -123 q0 -137 -180 -137 l-43 0 l0 38 l31 3 q57 6 81 27 q24 22 24 69 q0 43 -15 115 q-15 71 -15 94 q0 117 119 137 q-119 22 -119 137 q0 23 15 94 q15 72 15 115 q0 47 -24 69 q-24 21 -81 27 l-31 4 l0 37 l43 0 q180 0 180 -137 q0 -47 -26 -122 q-26 -74 -26 -101 q0 -88 130 -104 l0 -38 Z" /><glyph glyph-name="" unicode="~" d="M314 401 q54 -49 100 -49 q64 0 77 109 l47 -7 q-7 -153 -131 -153 q-58 0 -129 60 q-53 49 -98 49 q-67 0 -78 -108 l-48 6 q7 154 132 154 q59 0 128 -61 Z" /><glyph glyph-name="" unicode="©" d="M527 284 l43 0 l-3 -108 q-59 -32 -133 -32 q-96 0 -157 62 q-62 62 -62 164 q0 102 64 166 q63 63 156 63 q69 0 126 -32 l4 -110 l-42 0 l-20 97 q-26 10 -54 10 q-65 0 -105 -50 q-43 -53 -43 -143 q0 -90 41 -142 q39 -49 106 -49 q30 0 60 10 l19 94 ZM417 21 q143 0 237 95 q97 97 97 254 q0 156 -97 253 q-94 93 -237 93 q-144 0 -238 -92 q-97 -97 -97 -254 q0 -158 97 -255 q94 -94 238 -94 ZM417 755 q162 0 270 -103 q112 -107 112 -282 q0 -175 -112 -284 q-108 -104 -270 -104 q-162 0 -271 104 q-113 109 -113 284 q0 174 113 282 q108 103 271 103 Z" /><glyph glyph-name="" unicode="&#x3001;" d="M45 176 q169 -38 233 -130 q22 -32 22 -67 q0 -58 -55 -58 q-36 0 -57 44 q-29 61 -54 96 q-39 56 -99 101 l10 14 Z" /><glyph glyph-name="" unicode="&#x3002;" d="M183 -83 q-58 0 -100 42 q-42 42 -42 100 q0 58 42 100 q41 41 100 41 q59 0 100 -41 q41 -41 41 -100 q0 -59 -41 -100 q-42 -42 -100 -42 ZM183 164 q-44 0 -75 -31 q-31 -30 -31 -74 q0 -44 31 -75 q31 -31 75 -31 q43 0 74 31 q31 31 31 75 q0 44 -31 74 q-30 31 -74 31 Z" /><glyph glyph-name="" unicode="&#x300c;" d="M652 848 l316 0 l0 -38 l-276 0 l0 -607 l-40 0 l0 645 Z" /><glyph glyph-name="" unicode="&#x300d;" d="M348 -88 l-316 0 l0 38 l276 0 l0 607 l40 0 l0 -645 Z" /><glyph glyph-name="" unicode="&#x2f00;&#x4e00;" d="M757 426 l74 101 q84 -70 135 -118 q-4 -16 -31 -16 l-885 0 l-10 33 l717 0 Z" /><glyph glyph-name="" unicode="&#x4e09;" d="M787 36 l66 83 q74 -56 120 -96 q-4 -16 -28 -16 l-901 0 l-8 29 l751 0 ZM656 397 l63 77 q70 -53 113 -90 q-3 -16 -28 -16 l-636 0 l-8 29 l496 0 ZM740 725 l63 80 q73 -55 117 -93 q-4 -16 -27 -16 l-794 0 l-8 29 l649 0 Z" /><glyph glyph-name="" unicode="&#x4e0a;" d="M849 76 q73 -54 117 -93 q-4 -16 -29 -16 l-894 0 l-8 29 l382 0 l0 836 l139 -15 q-3 -23 -36 -28 l0 -329 l192 0 l64 79 q70 -53 113 -92 q-4 -16 -27 -16 l-342 0 l0 -435 l266 0 l63 80 Z" /><glyph glyph-name="" unicode="&#x4e0b;" d="M852 832 q73 -56 118 -95 q-4 -16 -29 -16 l-413 0 l0 -190 q151 -32 246 -91 q78 -49 105 -105 q23 -49 0 -77 q-23 -28 -70 -8 q-83 130 -281 259 l0 -563 q0 -3 -6 -8 q-6 -5 -17 -10 q-26 -12 -59 -12 l-18 0 l0 805 l-384 0 l-9 29 l751 0 l66 82 Z" /><glyph glyph-name="" unicode="&#x4e0d;" d="M606 722 q-33 -77 -85 -161 l56 -21 q-5 -15 -31 -19 l0 -583 q-1 -5 -26 -14 q-28 -9 -52 -9 l-18 0 l0 543 q-173 -225 -412 -362 l-10 11 q152 119 275 287 q122 167 175 328 l-427 0 l-8 29 l734 0 l65 80 q71 -54 116 -93 q-4 -16 -28 -16 l-324 0 ZM596 471 q151 -42 245 -107 q78 -53 105 -112 q23 -51 1 -79 q-22 -28 -66 -6 q-38 69 -129 157 q-79 76 -166 137 l10 10 Z" /><glyph glyph-name="" unicode="&#x4e0e;" d="M585 323 q68 -52 109 -89 q-4 -16 -28 -16 l-618 0 l-8 29 l487 0 l58 76 ZM829 731 q68 -50 111 -87 q-4 -16 -29 -16 l-587 0 l-7 -46 l-8 -45 q-8 -49 -13 -82 l458 0 l55 54 l95 -82 q-13 -14 -43 -17 q-30 -383 -117 -453 q-52 -43 -142 -43 q0 50 -24 67 q-28 25 -123 41 l1 15 l23 -2 l25 -2 q30 -3 52 -4 q59 -5 77 -5 q27 0 44 13 q58 47 87 389 l-466 0 l-38 -46 l-95 61 q12 11 35 23 q17 79 35 198 q17 120 21 185 l130 -29 q-8 -23 -38 -22 q-7 -51 -20 -139 l440 0 l61 74 Z" /><glyph glyph-name="" unicode="&#x4e14;" d="M336 -10 l327 0 l0 234 l-327 0 l0 -234 ZM336 729 l0 -221 l327 0 l0 221 l-327 0 ZM663 480 l-327 0 l0 -227 l327 0 l0 227 ZM867 73 q68 -57 108 -96 q-4 -16 -28 -16 l-904 0 l-9 29 l206 0 l0 809 l105 -42 l307 0 l46 58 l109 -79 q-9 -14 -44 -20 l0 -726 l43 0 l61 83 Z" /><glyph glyph-name="" unicode="&#x4e24;" d="M549 740 l-148 0 l0 -162 l148 0 l0 162 ZM850 844 q70 -52 112 -88 q-4 -16 -28 -16 l-299 0 l0 -162 l149 0 l46 54 l101 -79 q-12 -16 -41 -20 l0 -503 q0 -56 -24 -80 q-31 -30 -119 -38 q-8 48 -29 64 q-33 25 -105 35 l0 14 q127 -8 156 -8 q25 0 25 23 l0 509 l-159 0 q0 -54 -4 -99 q77 -51 116 -112 q32 -50 32 -96 q0 -41 -24 -56 q-25 -14 -54 13 q-6 91 -75 205 q-28 -200 -172 -308 l-12 10 q66 90 90 219 q17 88 17 224 l-148 0 l-1 -22 l-1 -22 q-1 -26 -3 -46 q66 -43 97 -94 q26 -43 23 -82 q-4 -34 -27 -45 q-24 -12 -49 13 q-1 74 -50 168 q-31 -203 -176 -313 l-12 10 q66 91 93 215 q19 90 21 218 l-120 0 l0 -602 q0 -9 -24 -21 q-26 -12 -55 -12 l-15 0 l0 708 l102 -44 l112 0 l0 162 l-261 0 l-8 29 l741 0 l62 75 Z" /><glyph glyph-name="" unicode="&#x4e2a;" d="M585 542 q-5 -24 -37 -28 l0 -569 q0 -8 -27 -19 q-30 -12 -57 -12 l-19 0 l0 641 l140 -13 ZM513 771 q-67 -123 -189 -238 q-135 -128 -288 -197 l-6 13 q131 91 242 232 q108 137 152 265 l151 -41 q-5 -18 -45 -23 q149 -214 441 -321 l-1 -15 q-57 -17 -76 -90 q-262 144 -381 415 Z" /><glyph glyph-name="" unicode="&#x4e2d;" d="M801 333 l0 266 l-253 0 l0 -266 l253 0 ZM448 333 l0 266 l-253 0 l0 -266 l253 0 ZM943 603 q-14 -16 -42 -21 l0 -336 q-1 -6 -29 -15 q-31 -10 -54 -10 l-17 0 l0 83 l-253 0 l0 -353 q0 -9 -26 -22 q-28 -14 -55 -14 l-19 0 l0 389 l-253 0 l0 -65 q0 -8 -26 -19 q-29 -13 -57 -13 l-15 0 l0 466 l107 -45 l244 0 l0 217 l137 -14 q-5 -24 -37 -29 l0 -174 l243 0 l49 54 l103 -79 Z" /><glyph glyph-name="" unicode="&#x4e3a;" d="M164 808 q94 -26 142 -72 q40 -39 41 -81 q0 -39 -29 -54 q-30 -15 -65 12 q-15 95 -98 188 l9 7 ZM955 535 q-14 -14 -43 -18 q-18 -482 -88 -552 q-45 -45 -145 -45 q0 45 -23 62 q-26 23 -121 40 l1 16 q41 -5 95 -9 q54 -4 73 -4 q26 0 42 13 q51 46 67 495 l-284 0 q-27 -194 -121 -329 q-118 -170 -359 -284 l-11 16 q192 124 287 286 q78 132 102 311 l-353 0 l-9 29 l366 0 q7 62 9 141 l1 70 l0 70 l142 -15 q-5 -23 -36 -28 l-2 -58 l-2 -60 q-3 -67 -10 -120 l270 0 l55 58 l97 -85 ZM535 422 q92 -38 136 -93 q37 -46 34 -92 q-3 -41 -33 -55 q-32 -14 -66 17 q-3 102 -82 217 l11 6 Z" /><glyph glyph-name="" unicode="&#x4e3b;" d="M341 840 q112 -12 178 -54 q55 -34 67 -79 q11 -40 -15 -62 q-26 -22 -66 -2 q-43 101 -172 188 l8 9 ZM850 69 q72 -54 115 -93 q-4 -16 -28 -16 l-893 0 l-8 29 l410 0 l0 299 l-293 0 l-8 29 l301 0 l0 256 l-335 0 l-9 29 l646 0 l61 78 q70 -52 114 -91 q-4 -16 -28 -16 l-346 0 l0 -256 l162 0 l61 75 q67 -51 109 -88 q-3 -16 -28 -16 l-304 0 l0 -299 l238 0 l63 80 Z" /><glyph glyph-name="" unicode="&#x4e48;" d="M543 785 q-10 -20 -43 -16 q-170 -308 -444 -465 l-11 9 q229 216 354 537 l144 -65 ZM644 297 q131 -65 206 -147 q62 -68 75 -134 q11 -58 -18 -83 q-29 -25 -73 8 q-13 55 -52 129 q-222 -44 -572 -97 q-14 -18 -31 -23 l-41 126 q31 7 44 17 q92 74 213 238 q119 163 167 277 l139 -75 q-5 -8 -16 -13 q-12 -5 -28 -2 q-158 -237 -431 -445 q214 5 542 22 q-57 102 -135 195 l11 7 Z" /><glyph glyph-name="" unicode="&#x4e49;" d="M369 834 q100 -41 152 -102 q44 -50 45 -101 q2 -46 -28 -63 q-31 -18 -67 13 q-7 57 -42 130 q-28 59 -70 117 l10 6 ZM865 739 q-6 -21 -43 -21 q-80 -327 -261 -519 q169 -127 409 -193 l-3 -12 q-78 -3 -111 -76 q-216 78 -363 218 q-175 -150 -455 -222 l-8 14 q251 91 413 259 q-188 211 -248 551 l17 10 q67 -300 286 -497 q161 202 221 521 l146 -33 Z" /><glyph glyph-name="" unicode="&#x4e4b;" d="M354 843 q96 -23 147 -70 q43 -39 45 -83 q2 -39 -27 -56 q-29 -18 -65 8 q-16 101 -110 194 l10 7 ZM265 144 q59 -59 152 -81 q83 -19 242 -19 q197 0 307 6 l0 -12 q-63 -13 -73 -93 l-268 0 q-150 0 -231 36 q-79 35 -144 128 q-17 26 -34 0 q-6 -10 -20 -31 l-7 -10 l-6 -10 l-14 -21 q-37 -55 -56 -87 q4 -12 -9 -23 l-77 113 q21 12 57 35 l30 19 l30 20 q69 44 84 44 l5 0 q323 176 486 414 l-626 0 l-9 29 l641 0 l61 56 l95 -88 q-10 -13 -45 -14 q-201 -266 -575 -408 l4 -3 Z" /><glyph glyph-name="" unicode="&#x4e50;" d="M401 269 q-9 -20 -41 -14 q-123 -189 -317 -284 l-11 11 q157 134 246 348 l123 -61 ZM582 396 l0 -363 q0 -57 -23 -81 q-30 -30 -116 -37 q-6 47 -27 65 q-26 23 -97 33 l0 13 q119 -8 143 -8 q24 0 24 20 l0 358 l-236 0 l-35 -40 l-93 57 q15 13 31 21 q18 73 36 179 q19 109 23 167 l119 -29 q277 37 452 91 l91 -96 q-18 -15 -60 4 q-245 -29 -512 -26 q-9 -63 -23 -146 q-17 -91 -30 -153 l237 0 l0 244 l131 -13 q-5 -22 -35 -27 l0 -204 l202 0 l58 73 q67 -50 107 -86 q-4 -16 -27 -16 l-340 0 ZM665 323 q131 -55 208 -128 q63 -60 79 -120 q14 -52 -13 -76 q-27 -24 -69 4 q-25 69 -93 162 q-54 76 -123 150 l11 8 Z" /><glyph glyph-name="" unicode="&#x4e58;" d="M545 355 q58 -107 177 -188 q113 -78 245 -110 l-2 -11 q-58 -11 -75 -82 q-243 101 -346 352 l0 -374 q0 -3 -5 -7 q-6 -5 -16 -10 q-25 -11 -56 -11 l-17 0 l0 300 q-170 -168 -412 -255 l-8 15 q130 65 243 171 q118 111 177 228 l0 218 l-395 0 l-8 29 l403 0 l0 100 q-208 -13 -339 -13 l-3 18 q397 41 654 119 l91 -93 q-20 -14 -61 4 q-97 -14 -248 -27 l0 -108 l245 0 l59 72 q67 -50 107 -85 q-3 -16 -27 -16 l-384 0 l0 -237 l1 1 ZM49 319 q25 4 92 16 l30 5 l32 6 q39 7 66 12 l0 85 l-188 0 l-8 29 l196 0 l0 89 l117 -11 q-3 -18 -28 -23 l0 -263 q0 -7 -25 -18 q-26 -12 -50 -12 l-14 0 l0 96 q-58 -35 -142 -81 q-4 -17 -21 -23 l-57 93 ZM741 550 q-2 -20 -29 -25 l0 -78 q35 20 75 47 q34 23 57 41 l68 -78 q-10 -10 -30 2 q-28 -10 -74 -21 q-50 -12 -96 -20 l0 -81 q0 -15 25 -15 l55 0 q43 0 51 1 q12 0 18 7 q9 12 26 71 l12 0 l3 -72 q28 -11 28 -33 q0 -26 -30 -37 q-33 -13 -116 -13 l-68 0 q-52 0 -68 15 q-14 14 -14 56 l0 244 l107 -11 Z" /><glyph glyph-name="" unicode="&#x4e5f;" d="M912 52 q50 -16 50 -42 q0 -42 -67 -56 q-71 -14 -290 -14 l-203 0 q-112 0 -152 22 q-46 25 -46 100 l0 372 l-161 -55 l-18 25 l179 60 l0 301 l130 -14 q-3 -23 -37 -28 l0 -227 l172 58 l0 287 l132 -13 q-5 -23 -37 -28 l0 -214 l191 64 l3 1 l47 48 l92 -75 q-11 -13 -40 -17 q-5 -189 -19 -276 q-15 -90 -47 -118 q-38 -34 -106 -34 q0 48 -14 63 q-20 21 -70 31 l0 16 q25 -3 52 -5 q31 -2 43 -2 q20 0 30 10 q31 28 40 332 l-202 -69 l0 -377 q0 -8 -25 -19 q-27 -11 -53 -11 l-17 0 l0 375 l-172 -58 l0 -381 q0 -30 21 -41 q21 -11 80 -11 l213 0 q142 0 183 4 q31 4 44 21 q22 33 59 165 l12 0 l3 -170 Z" /><glyph glyph-name="" unicode="&#x4e60;" d="M935 716 q-12 -14 -45 -18 q-20 -640 -98 -726 q-54 -58 -147 -58 q2 52 -21 72 q-26 26 -112 42 l1 16 q51 -5 87 -8 q51 -4 69 -4 q25 0 44 16 q41 39 62 314 q-245 -123 -589 -261 q-8 -21 -25 -27 l-62 119 q180 42 678 197 q9 126 16 325 l-675 0 l-9 28 l673 0 l56 61 l97 -88 ZM188 630 q146 -10 244 -50 q82 -34 117 -82 q30 -42 15 -73 q-15 -31 -60 -23 q-119 124 -324 217 l8 11 Z" /><glyph glyph-name="" unicode="&#x4e66;" d="M683 810 q108 -10 172 -49 q54 -32 67 -75 q12 -39 -12 -61 q-24 -23 -64 -5 q-23 44 -75 98 q-46 48 -96 84 l8 8 ZM499 374 l163 0 l17 224 l-180 0 l0 -224 ZM953 346 q-13 -13 -40 -17 q-11 -267 -67 -312 q-41 -34 -119 -34 q0 51 -19 67 q-26 22 -100 36 l1 14 q34 -3 76 -6 q44 -3 59 -3 q23 0 32 9 q29 25 37 245 l-314 0 l0 -392 q0 -10 -27 -23 q-28 -15 -54 -15 l-20 0 l0 430 l-336 0 l-9 29 l345 0 l0 224 l-263 0 l-9 29 l272 0 l0 218 l133 -13 q-3 -22 -32 -26 l0 -179 l172 0 l42 48 l94 -74 q-9 -10 -34 -14 l-15 -213 l46 0 l53 52 l96 -80 Z" /><glyph glyph-name="" unicode="&#x4e86;&#xf9ba;" d="M921 723 q-10 -9 -45 -12 q-149 -102 -299 -172 l8 -1 q-3 -22 -35 -26 l0 -469 q0 -60 -26 -85 q-33 -33 -128 -41 q-8 50 -33 69 q-32 24 -119 36 l0 15 q152 -10 180 -10 q27 0 27 22 l0 502 l89 -9 q105 79 205 185 l-631 0 l-9 29 l654 0 l61 57 l101 -90 Z" /><glyph glyph-name="" unicode="&#x4e8b;" d="M731 228 l-187 0 l0 -92 l187 0 l0 92 ZM544 257 l187 0 l0 93 l-187 0 l0 -93 ZM448 498 l0 101 l-182 0 l0 -101 l182 0 ZM544 599 l0 -101 l187 0 l0 101 l-187 0 ZM886 326 q57 -48 90 -82 q-3 -16 -27 -16 l-126 0 l0 -151 q-1 -5 -27 -16 q-29 -11 -50 -11 l-15 0 l0 57 l-187 0 l0 -75 q0 -57 -24 -80 q-30 -30 -117 -38 q-7 44 -28 62 q-30 23 -101 32 l0 15 q124 -9 149 -9 q25 0 25 22 l0 71 l-296 0 l-9 29 l305 0 l0 92 l-402 0 l-9 29 l411 0 l0 93 l-289 0 l-9 28 l298 0 l0 92 l-182 0 l0 -28 q0 -7 -27 -17 q-28 -11 -54 -11 l-14 0 l0 254 l102 -40 l175 0 l0 79 l-400 0 l-9 28 l409 0 l0 109 l133 -13 q-3 -24 -37 -28 l0 -68 l244 0 l60 73 q69 -49 110 -85 q-3 -16 -28 -16 l-386 0 l0 -79 l177 0 l47 48 l99 -73 q-13 -13 -40 -19 l0 -122 q-1 -6 -28 -16 q-29 -11 -51 -11 l-17 0 l0 35 l-187 0 l0 -92 l177 0 l46 49 l96 -72 q-12 -14 -40 -20 l0 -78 l13 0 l50 69 Z" /><glyph glyph-name="" unicode="&#x2f06;&#x4e8c;" d="M769 93 l68 90 q77 -61 123 -103 q-4 -15 -28 -15 l-879 0 l-8 28 l724 0 ZM674 654 l66 87 q75 -60 120 -100 q-4 -15 -28 -15 l-684 0 l-8 28 l534 0 Z" /><glyph glyph-name="" unicode="&#x4e8e;" d="M847 530 q73 -53 116 -92 q-3 -16 -28 -16 l-382 0 l0 -375 q0 -60 -26 -88 q-33 -36 -123 -43 q-2 49 -28 71 q-30 26 -109 37 l0 14 q133 -9 161 -9 q25 0 25 22 l0 371 l-408 0 l-8 29 l416 0 l0 269 l-331 0 l-8 29 l604 0 l63 77 q69 -52 113 -90 q-4 -16 -27 -16 l-314 0 l0 -269 l230 0 l64 79 Z" /><glyph glyph-name="" unicode="&#x4e92;" d="M625 243 l32 273 l-283 0 q-20 -128 -49 -273 l300 0 ZM858 76 q71 -54 115 -93 q-4 -16 -28 -16 l-900 0 l-9 29 l559 0 l26 218 l-293 0 l-39 -46 l-98 61 q11 11 37 24 q22 93 46 240 q24 145 32 231 l-230 0 l-9 29 l687 0 l62 78 q71 -53 114 -91 q-4 -16 -27 -16 l-495 0 q-11 -75 -28 -179 l270 0 l47 54 l98 -83 q-11 -11 -39 -15 l-60 -505 l97 0 l65 80 Z" /><glyph glyph-name="" unicode="&#x4e9b;" d="M29 362 q13 1 39 4 l24 3 l26 3 l0 347 l114 -11 q-3 -19 -31 -23 l0 -302 l88 13 l0 446 l125 -12 q-3 -23 -36 -28 l0 -174 l35 0 l47 66 q53 -47 84 -79 q-4 -16 -27 -16 l-139 0 l0 -190 l155 23 l2 -15 q-169 -61 -433 -137 q-7 -18 -25 -23 l-48 105 ZM184 222 l508 0 l56 71 q62 -49 101 -83 q-4 -16 -27 -16 l-630 0 l-8 28 ZM843 52 q66 -51 105 -87 q-4 -16 -26 -16 l-854 0 l-9 29 l725 0 l59 74 ZM927 420 q35 -14 35 -39 q0 -31 -39 -43 q-42 -13 -156 -13 l-101 0 q-67 0 -89 18 q-22 17 -22 68 l0 431 l123 -13 q-2 -21 -32 -25 l0 -191 q120 61 187 126 l101 -75 q-13 -14 -52 -4 q-111 -50 -236 -75 l0 -152 q0 -13 7 -17 q8 -5 33 -5 l88 0 q66 0 78 1 q16 1 24 12 q10 17 37 115 l12 0 l2 -119 Z" /><glyph glyph-name="" unicode="&#x4ea4;" d="M380 847 q91 -12 141 -50 q40 -31 43 -71 q3 -36 -24 -53 q-28 -17 -63 5 q-19 85 -106 162 l9 7 ZM55 632 l-8 28 l749 0 l60 85 q66 -58 106 -97 q-4 -16 -28 -16 l-879 0 ZM606 602 q128 -28 206 -83 q64 -44 82 -97 q16 -46 -8 -71 q-25 -25 -66 -3 q-27 60 -95 132 q-60 65 -128 113 l9 9 ZM75 326 q153 113 226 291 l125 -64 q-8 -16 -37 -12 q-117 -154 -306 -227 l-8 12 ZM763 390 q-9 -16 -41 -12 q-60 -127 -160 -221 q169 -104 414 -146 l-2 -12 q-66 -10 -88 -84 q-233 62 -381 192 q-183 -144 -465 -192 l-6 15 q255 73 417 231 q-97 106 -147 255 l14 10 q58 -130 175 -221 q93 106 143 241 l127 -56 Z" /><glyph glyph-name="" unicode="&#x4eae;" d="M54 723 l447 0 l-5 2 l-6 3 q-18 64 -86 112 l8 7 q123 5 154 -51 q13 -21 5 -43 q-7 -21 -28 -30 l250 0 l58 75 q66 -51 106 -88 q-4 -16 -28 -16 l-867 0 l-8 29 ZM686 484 l0 106 l-356 0 l0 -106 l356 0 ZM686 413 l0 42 l-356 0 l0 -24 q0 -7 -26 -16 q-29 -11 -55 -11 l-13 0 l0 256 l100 -41 l340 0 l46 51 l101 -76 q-11 -15 -41 -21 l0 -137 q-1 -5 -29 -14 q-30 -9 -51 -9 l-16 0 ZM905 42 q31 -13 31 -39 q0 -29 -34 -42 q-38 -13 -131 -13 l-80 0 q-60 0 -78 17 q-17 15 -17 63 l0 195 l-186 0 l0 -15 q0 -38 -10 -71 q-13 -44 -45 -81 q-82 -96 -283 -141 l-5 13 q138 56 197 139 q43 62 43 141 l0 88 l119 -44 l160 0 l48 51 l90 -74 q-11 -12 -34 -15 l0 -166 q0 -15 27 -15 l64 0 q46 0 55 1 q13 1 19 11 q12 21 36 103 l11 0 l3 -106 ZM863 422 l92 -88 q-8 -10 -38 -11 q-55 -62 -119 -110 l-10 7 q8 28 15 58 q8 36 13 63 l-638 0 q9 -95 -51 -132 q-24 -13 -48 -8 q-25 5 -33 28 q-14 44 35 67 q28 16 45 51 q19 38 14 78 l15 1 q12 -28 18 -56 l637 0 l53 52 Z" /><glyph glyph-name="" unicode="&#x2f08;&#x4eba;" d="M549 811 q-3 -23 -36 -28 q18 -304 108 -469 q105 -193 350 -293 l-2 -11 q-76 -14 -95 -91 q-184 99 -271 279 q-75 152 -97 407 q-16 -224 -98 -370 q-109 -195 -360 -319 l-12 15 q252 172 329 427 q30 101 40 232 q3 51 4 118 l1 117 l139 -14 Z" /><glyph glyph-name="" unicode="&#x4ec0;&#xf9fd;" d="M396 798 q-7 -20 -39 -19 q-44 -112 -104 -210 l46 -18 q-6 -13 -31 -19 l0 -587 q-2 -7 -26 -17 q-27 -12 -52 -12 l-18 0 l0 537 q-63 -78 -132 -134 l-13 9 q152 213 227 516 l142 -46 ZM867 570 q65 -54 106 -90 q-4 -16 -28 -16 l-261 0 l0 -505 q0 -10 -26 -22 q-28 -14 -55 -14 l-19 0 l0 541 l-248 0 l-8 29 l256 0 l0 336 l136 -14 q-3 -24 -36 -29 l0 -293 l123 0 l60 77 Z" /><glyph glyph-name="" unicode="&#x4ec5;" d="M309 555 q-5 -15 -31 -19 l0 -590 q-1 -7 -25 -18 q-28 -12 -53 -12 l-18 0 l0 545 q-70 -84 -142 -138 l-13 10 q162 213 240 512 l142 -46 q-9 -22 -40 -19 q-41 -104 -107 -208 l47 -17 ZM483 709 q38 -261 159 -436 q106 185 146 436 l-305 0 ZM930 707 q-9 -14 -41 -18 q-56 -300 -193 -484 q108 -124 275 -198 l-2 -13 q-72 -10 -88 -75 q-144 81 -241 219 q-130 -141 -328 -219 l-10 12 q180 103 298 274 q-109 194 -141 504 l-68 0 l-9 29 l401 0 l55 58 l92 -89 Z" /><glyph glyph-name="" unicode="&#x4eca;" d="M767 363 l95 -89 q-12 -12 -51 -15 q-100 -156 -240 -346 q-54 -4 -99 27 q131 179 235 341 l-539 0 l-9 29 l554 0 l54 53 ZM402 552 q93 -25 143 -70 q41 -38 44 -78 q2 -37 -25 -52 q-28 -16 -62 9 q-22 90 -110 184 l10 7 ZM590 818 q-4 -16 -45 -20 q123 -203 436 -338 l-2 -16 q-62 -12 -80 -79 q-279 168 -372 420 q-73 -129 -213 -257 q-139 -129 -288 -204 l-8 14 q132 90 257 242 q129 156 166 277 l149 -39 Z" /><glyph glyph-name="" unicode="&#x4ecb;" d="M726 479 q-5 -23 -37 -28 l0 -507 q0 -7 -26 -18 q-28 -11 -53 -11 l-18 0 l0 577 l134 -13 ZM431 478 q-4 -23 -33 -27 l0 -102 q-3 -149 -61 -244 q-80 -130 -275 -190 l-9 13 q149 72 208 195 q42 89 42 227 l0 140 l128 -12 ZM532 773 q-68 -128 -203 -242 q-138 -118 -296 -179 l-7 13 q138 79 259 219 q121 141 154 261 l157 -38 q-5 -18 -46 -22 q113 -187 430 -290 l-2 -15 q-67 -18 -82 -90 q-276 137 -364 383 Z" /><glyph glyph-name="" unicode="&#x4ece;" d="M379 804 q-3 -23 -35 -27 l-2 -81 l-2 -82 q-4 -94 -13 -167 q89 -56 134 -124 q37 -58 36 -109 q-1 -47 -30 -63 q-29 -16 -65 16 q-9 94 -83 229 q-55 -308 -275 -479 l-14 14 q146 172 189 430 q16 99 21 229 q1 49 2 114 l0 113 l137 -13 ZM732 806 q-3 -23 -36 -27 q11 -280 68 -446 q66 -196 215 -305 l-2 -12 q-70 -13 -90 -100 q-163 166 -198 608 q-14 -212 -80 -341 q-84 -163 -279 -266 l-12 14 q195 150 248 392 q21 97 26 235 q2 52 2 128 l0 133 l138 -13 Z" /><glyph glyph-name="" unicode="&#x4ed6;" d="M276 554 q-4 -15 -30 -19 l0 -592 q-2 -7 -25 -17 q-26 -11 -50 -11 l-17 0 l0 531 q-54 -72 -112 -126 l-13 9 q134 217 202 514 l138 -42 q-7 -20 -38 -19 q-41 -110 -97 -212 l42 -16 ZM928 56 q45 -15 45 -41 q0 -37 -54 -50 q-59 -14 -228 -14 l-153 0 q-91 0 -123 21 q-36 22 -36 87 l0 384 l-97 -34 l-19 24 l116 41 l0 272 l128 -14 q-2 -23 -34 -28 l0 -197 l117 41 l0 284 l129 -13 q-5 -24 -37 -29 l0 -209 l117 41 l6 2 l-2 0 l50 49 l92 -75 q-11 -13 -39 -17 q-2 -187 -11 -261 q-10 -79 -39 -105 q-37 -34 -100 -34 q0 49 -13 64 q-13 17 -60 29 l0 15 q15 -2 42 -4 q23 -1 37 -1 q19 0 26 8 q22 22 26 304 l-132 -46 l0 -407 q0 -8 -24 -19 q-26 -11 -51 -11 l-17 0 l0 405 l-117 -42 l0 -394 q0 -23 14 -32 q16 -9 58 -9 l152 0 q100 0 134 3 q23 3 35 17 q18 26 48 145 l11 0 l3 -150 Z" /><glyph glyph-name="" unicode="&#x4ee3;" d="M700 808 q84 -8 130 -40 q39 -26 43 -60 q3 -30 -21 -46 q-26 -15 -59 3 q-11 33 -42 73 q-28 36 -60 63 l9 7 ZM393 798 q-7 -20 -39 -19 q-45 -110 -101 -206 l53 -20 q-7 -15 -31 -19 l0 -591 q-1 -6 -25 -17 q-28 -11 -52 -11 l-18 0 l0 552 q-67 -87 -143 -148 l-13 9 q152 213 227 516 l142 -46 ZM938 21 q46 -65 26 -88 q-24 -27 -74 -13 q-41 12 -85 45 q-208 160 -262 520 l-219 -25 l-11 28 l226 25 q-19 136 -19 317 l135 -17 q-4 -24 -35 -29 q-2 -148 13 -260 l161 18 l52 81 q73 -42 118 -73 q-3 -17 -26 -20 l-302 -34 q46 -315 222 -436 q13 -11 20 -10 q7 1 14 14 q25 42 56 120 l11 -2 l-21 -161 Z" /><glyph glyph-name="" unicode="&#x4ee4;" d="M761 411 l99 -99 q-11 -11 -44 -12 q-128 -109 -267 -209 q106 -63 106 -132 q1 -27 -19 -40 q-21 -13 -52 -2 q-43 59 -132 133 q-83 68 -163 114 l8 10 q132 -23 226 -69 q106 130 166 219 l-535 0 l-9 29 l552 0 l64 58 ZM415 580 q85 -21 128 -63 q36 -34 34 -72 q-1 -34 -29 -48 q-29 -13 -61 12 q-6 39 -31 88 q-22 42 -51 76 l10 7 ZM592 813 q-5 -17 -46 -21 q119 -168 434 -279 l-1 -15 q-69 -18 -84 -91 q-274 145 -366 373 q-74 -118 -215 -233 q-140 -115 -290 -179 l-7 13 q131 82 255 221 q126 142 161 250 l159 -39 Z" /><glyph glyph-name="" unicode="&#x4ee5;" d="M363 782 q105 -55 161 -125 q47 -58 51 -113 q4 -50 -25 -69 q-30 -19 -68 13 q-10 64 -51 149 q-33 68 -80 139 l12 6 ZM557 317 q-35 -31 -62 -55 q-41 -35 -80 -68 q-103 -87 -203 -163 q-5 -13 -14 -24 q-9 -10 -18 -15 l-63 117 q29 16 37 25 q8 10 8 28 l0 620 l135 -14 q-5 -23 -38 -28 l0 -572 l15 8 l16 9 l34 18 q41 22 72 40 q87 47 154 86 l7 -12 ZM885 785 q-5 -26 -38 -30 q-7 -199 -22 -294 q-22 -142 -78 -237 q105 -48 163 -114 q48 -56 54 -111 q5 -50 -24 -71 q-29 -21 -68 8 q-23 117 -142 260 q-124 -182 -459 -284 l-9 17 q314 139 410 354 q66 148 71 516 l142 -14 Z" /><glyph glyph-name="" unicode="&#x4eec;" d="M31 329 q129 222 188 516 l141 -40 q-6 -21 -39 -21 q-36 -107 -90 -211 l49 -18 q-5 -15 -31 -19 l0 -590 q-1 -7 -25 -17 q-27 -12 -52 -12 l-18 0 l0 530 q-52 -72 -110 -127 l-13 9 ZM365 681 l131 -14 q-3 -25 -39 -30 l0 -690 q0 -9 -24 -20 q-26 -12 -51 -12 l-17 0 l0 766 ZM422 828 q80 -23 121 -64 q35 -34 36 -71 q1 -33 -23 -47 q-25 -14 -55 7 q-8 39 -35 89 q-24 43 -53 79 l9 7 ZM964 710 q-13 -15 -43 -21 l0 -656 q0 -55 -22 -79 q-29 -31 -111 -39 q-5 49 -26 65 q-26 25 -94 35 l0 14 q115 -8 138 -8 q25 0 25 23 l0 662 l-220 0 l-9 29 l219 0 l44 52 l99 -77 Z" /><glyph glyph-name="" unicode="&#x4ef6;" d="M364 795 q-6 -19 -39 -18 q-40 -109 -93 -204 l53 -20 q-5 -15 -31 -19 l0 -590 q-1 -6 -25 -17 q-27 -11 -52 -11 l-18 0 l0 544 q-57 -76 -120 -131 l-13 9 q139 211 205 505 l133 -48 ZM872 404 q65 -51 104 -88 q-4 -16 -28 -16 l-266 0 l0 -354 q0 -9 -25 -19 q-27 -11 -53 -11 l-20 0 l0 384 l-282 0 l-8 29 l290 0 l0 243 l-142 0 q-57 -118 -138 -197 l-13 8 q86 170 119 407 l132 -41 q-7 -20 -39 -20 q-22 -69 -48 -128 l129 0 l0 231 l135 -14 q-5 -24 -37 -29 l0 -188 l108 0 l57 73 q63 -50 100 -86 q-4 -16 -26 -16 l-239 0 l0 -243 l133 0 l57 75 Z" /><glyph glyph-name="" unicode="&#x4ef7;" d="M284 549 q-5 -15 -31 -19 l0 -586 q-1 -6 -25 -17 q-27 -11 -52 -11 l-18 0 l0 529 q-57 -79 -120 -137 l-13 9 q140 224 210 527 l138 -43 q-6 -19 -38 -19 q-44 -116 -99 -215 l48 -18 ZM442 496 l129 -13 q-3 -22 -34 -26 l0 -141 q-1 -133 -49 -223 q-65 -119 -218 -178 l-9 12 q106 70 149 182 q32 84 32 208 l0 179 ZM699 498 l129 -13 q-3 -22 -35 -26 l0 -513 q0 -7 -25 -17 q-27 -11 -52 -11 l-17 0 l0 580 ZM700 809 q-4 -17 -40 -20 q86 -164 322 -263 l-2 -14 q-62 -17 -74 -84 q-195 127 -262 350 q-50 -109 -156 -212 q-102 -99 -221 -161 l-8 12 q99 75 186 199 q88 126 111 227 l144 -34 Z" /><glyph glyph-name="" unicode="&#x4efb;" d="M374 802 q-8 -20 -39 -20 q-44 -117 -99 -210 l48 -18 q-5 -15 -31 -19 l0 -591 q-1 -7 -25 -17 q-27 -12 -52 -12 l-18 0 l0 539 q-55 -73 -120 -129 l-13 9 q147 220 212 510 l137 -42 ZM659 364 l0 -376 l124 0 l59 79 q66 -54 106 -92 q-4 -16 -27 -16 l-598 0 l-8 29 l246 0 l0 376 l-259 0 l-8 28 l267 0 l0 277 q-125 -18 -232 -25 l-4 15 q280 62 472 164 l110 -98 q-16 -15 -61 0 q-81 -22 -187 -40 l0 -293 l149 0 l59 79 q65 -54 105 -91 q-4 -16 -27 -16 l-286 0 Z" /><glyph glyph-name="" unicode="&#x4efd;" d="M287 554 q-5 -14 -31 -18 l0 -592 q-1 -7 -25 -17 q-26 -12 -51 -12 l-18 0 l0 535 q-60 -78 -121 -130 l-13 9 q144 217 212 516 l139 -44 q-7 -19 -39 -19 q-41 -110 -98 -211 l45 -17 ZM588 768 q-9 -21 -39 -20 q-83 -241 -259 -357 l-12 11 q135 162 180 407 l130 -41 ZM796 485 l90 -75 q-13 -13 -41 -17 q-11 -382 -73 -440 q-41 -38 -112 -38 q0 45 -16 60 q-21 19 -79 31 l1 16 q27 -2 59 -5 q36 -2 49 -2 q23 0 33 10 q40 35 50 382 l-162 0 q-12 -159 -62 -259 q-71 -142 -237 -233 l-13 15 q126 101 176 239 q33 93 38 238 l-122 0 l-9 29 l382 0 l48 49 ZM757 818 q-12 -21 -35 -45 q36 -88 106 -160 q70 -73 155 -111 l-1 -10 q-55 -18 -75 -79 q-179 129 -230 427 l10 5 l70 -27 Z" /><glyph glyph-name="" unicode="&#x4eff;" d="M531 840 q87 -19 132 -60 q37 -34 37 -73 q0 -35 -26 -50 q-29 -15 -61 10 q-5 40 -33 90 q-25 43 -58 77 l9 6 ZM292 552 q-5 -15 -30 -19 l0 -589 q-2 -7 -26 -18 q-27 -12 -52 -12 l-17 0 l0 536 q-64 -80 -125 -129 l-13 9 q150 217 222 514 l141 -44 q-8 -20 -40 -20 q-47 -120 -104 -213 l44 -15 ZM869 703 q63 -52 100 -89 q-4 -16 -27 -16 l-346 0 q-1 -76 -8 -160 l180 0 l52 52 l93 -78 q-11 -13 -40 -17 q-7 -208 -22 -304 q-16 -103 -50 -134 q-42 -39 -115 -39 q2 48 -16 66 q-19 20 -82 34 l0 15 q26 -3 62 -5 q35 -3 49 -3 q22 0 33 11 q35 33 46 373 l-193 0 q-20 -172 -79 -282 q-70 -130 -211 -213 l-9 11 q128 123 174 302 q35 136 32 371 l-175 0 l-8 29 l504 0 l56 76 Z" /><glyph glyph-name="" unicode="&#x4f18;" d="M673 809 q84 -19 128 -57 q35 -32 35 -68 q0 -32 -26 -45 q-27 -13 -57 9 q-8 37 -35 83 q-24 39 -54 71 l9 7 ZM308 558 q-6 -15 -32 -19 l0 -594 q-1 -6 -24 -17 q-26 -11 -50 -11 l-17 0 l0 555 q-70 -87 -146 -146 l-13 9 q163 208 240 510 l133 -45 q-9 -22 -39 -19 q-48 -117 -103 -204 l51 -19 ZM944 43 q32 -12 32 -40 q0 -29 -34 -41 q-38 -13 -136 -13 l-81 0 q-60 0 -80 18 q-19 17 -19 66 l0 503 l-29 0 q-9 -230 -62 -359 q-67 -165 -236 -266 l-13 16 q120 108 169 267 q40 129 45 342 l-163 0 l-8 29 l172 0 q1 52 0 135 l0 145 l136 -13 q-5 -24 -36 -28 l-1 -62 l0 -61 q-1 -71 -2 -116 l204 0 l57 73 q65 -50 105 -86 q-4 -16 -28 -16 l-220 0 l0 -478 q0 -23 33 -23 l64 0 q49 0 59 1 q14 1 20 14 q6 12 17 57 q4 17 10 43 l10 48 l12 0 l3 -155 Z" /><glyph glyph-name="" unicode="&#x4f1a;" d="M814 396 q69 -50 110 -87 q-4 -16 -27 -16 l-458 0 l114 -66 q-10 -18 -39 -12 q-112 -101 -280 -181 q172 1 493 13 q-58 78 -129 147 l11 8 q122 -41 193 -102 q60 -50 74 -103 q13 -46 -12 -68 q-26 -22 -66 2 q-23 50 -54 93 q-222 -40 -534 -81 q-13 -16 -25 -20 l-44 115 q23 4 34 9 q61 32 141 112 q72 73 111 134 l-339 0 l-9 29 l676 0 l59 74 ZM647 562 q63 -46 101 -81 q-3 -16 -27 -16 l-466 0 l-8 29 l346 0 l54 68 ZM589 814 q-4 -17 -44 -20 q123 -162 428 -264 l-2 -15 q-59 -13 -75 -80 q-272 136 -369 346 q-72 -108 -209 -215 q-138 -107 -281 -167 l-7 13 q129 75 251 203 q126 132 162 234 l146 -35 Z" /><glyph glyph-name="" unicode="&#x4f20;" d="M277 551 q-6 -13 -31 -19 l0 -587 q-2 -7 -26 -17 q-27 -12 -52 -12 l-18 0 l0 526 q-61 -77 -114 -123 l-13 9 q140 224 202 516 l144 -43 q-9 -21 -40 -20 q-41 -114 -98 -214 l46 -16 ZM873 548 q64 -52 102 -88 q-3 -16 -27 -16 l-382 0 l-11 -38 l-11 -37 q-12 -41 -20 -66 l228 0 l59 56 l99 -94 q-10 -10 -41 -13 q-70 -80 -177 -165 q109 -55 120 -122 q4 -26 -13 -40 q-17 -14 -47 -6 q-48 61 -154 129 q-97 62 -192 99 l8 13 q148 -15 249 -60 q54 91 89 174 l-228 0 l-41 -45 l-94 65 q19 13 40 23 q19 51 40 127 l-191 0 l-8 29 l208 0 q27 92 46 169 l-190 0 l-8 29 l205 0 q31 129 39 177 l129 -33 q-7 -22 -40 -21 q-5 -21 -14 -57 l-8 -32 l-9 -34 l143 0 l54 70 q61 -48 97 -83 q-3 -16 -27 -16 l-275 0 q-24 -93 -45 -169 l242 0 l56 75 Z" /><glyph glyph-name="" unicode="&#x4f2f;" d="M25 317 q140 224 210 527 l138 -43 q-6 -19 -38 -19 q-40 -105 -90 -198 l39 -14 q-4 -15 -31 -19 l0 -607 q-1 -7 -25 -17 q-27 -12 -52 -12 l-18 0 l0 530 q-57 -79 -120 -137 l-13 9 ZM807 24 l0 298 l-324 0 l0 -298 l324 0 ZM483 624 l0 -273 l324 0 l0 273 l-324 0 ZM944 629 q-10 -15 -41 -21 l0 -645 q-1 -7 -28 -18 q-30 -13 -53 -13 l-15 0 l0 63 l-324 0 l0 -38 q0 -10 -23 -21 q-26 -13 -56 -13 l-16 0 l0 773 l101 -44 l79 0 l2 10 l2 11 l4 23 q6 27 10 50 q11 60 16 97 l148 -39 q-7 -22 -41 -22 l-11 -14 l-12 -16 q-17 -21 -26 -34 q-33 -42 -53 -66 l190 0 l49 55 l98 -78 Z" /><glyph glyph-name="" unicode="&#x4f30;" d="M376 802 q-7 -20 -38 -20 q-45 -119 -100 -211 l50 -19 q-5 -15 -30 -19 l0 -590 q-2 -7 -26 -17 q-27 -11 -52 -11 l-17 0 l0 542 q-56 -74 -122 -132 l-14 9 q145 214 213 510 l136 -42 ZM479 311 l0 -291 l306 0 l0 291 l-306 0 ZM866 678 q66 -53 107 -90 q-3 -16 -28 -16 l-269 0 l0 -232 l106 0 l46 54 l94 -71 q-11 -14 -39 -19 l0 -358 q0 -2 -6 -6 q-6 -4 -16 -7 q-27 -10 -59 -10 l-17 0 l0 68 l-306 0 l0 -50 q0 -7 -21 -15 q-24 -9 -57 -9 l-17 0 l0 464 l106 -41 l90 0 l0 232 l-252 0 l-8 29 l260 0 l0 235 l133 -12 q-5 -23 -37 -29 l0 -194 l130 0 l60 77 Z" /><glyph glyph-name="" unicode="&#x4f3c;" d="M510 801 q93 -57 140 -128 q39 -60 38 -115 q0 -50 -30 -67 q-30 -18 -66 15 q-5 66 -34 150 q-25 69 -61 139 l13 6 ZM362 803 q-7 -21 -39 -20 q-35 -106 -87 -204 l39 -14 q-5 -15 -31 -19 l0 -601 q-1 -2 -7 -7 q-8 -5 -18 -9 q-26 -12 -49 -12 l-17 0 l0 529 q-60 -80 -116 -128 l-13 9 q140 216 204 518 l134 -42 ZM685 303 q-52 -47 -110 -96 q-80 -69 -160 -130 q-11 -28 -35 -39 l-55 119 q36 20 36 46 l0 522 l131 -13 q-5 -24 -38 -29 l0 -479 q125 60 224 111 l7 -12 ZM927 790 q-5 -23 -35 -28 l-1 -42 l-1 -41 q-1 -48 -2 -80 q-3 -88 -10 -150 q-20 -157 -83 -260 q85 -48 130 -105 q38 -49 40 -92 q3 -40 -22 -54 q-26 -15 -60 9 q-23 75 -111 209 q-112 -154 -380 -246 l-10 16 q289 136 366 367 q42 127 43 510 l136 -13 Z" /><glyph glyph-name="" unicode="&#x4f46;" d="M490 719 l0 -244 l282 0 l0 244 l-282 0 ZM772 204 l0 242 l-282 0 l0 -242 l282 0 ZM490 125 q0 -9 -24 -21 q-26 -13 -55 -13 l-15 0 l0 699 l99 -42 l267 0 l47 52 l99 -77 q-10 -13 -41 -21 l0 -558 q-2 -6 -29 -17 q-29 -12 -52 -12 l-14 0 l0 60 l-282 0 l0 -50 ZM369 802 q-7 -20 -39 -20 q-43 -117 -96 -214 l50 -19 q-5 -15 -31 -19 l0 -586 q-1 -6 -25 -17 q-27 -11 -52 -11 l-18 0 l0 530 q-57 -79 -118 -138 l-14 9 q135 221 204 527 l139 -42 ZM871 80 q68 -54 108 -92 q-3 -16 -27 -16 l-640 0 l-8 29 l507 0 l60 79 Z" /><glyph glyph-name="" unicode="&#x4f4d;" d="M309 608 l476 0 l59 75 q66 -51 105 -88 q-4 -16 -27 -16 l-606 0 l-7 29 ZM394 518 q96 -102 139 -206 q35 -87 29 -159 q-6 -62 -36 -83 q-31 -21 -57 20 q-2 47 -6 92 q-5 58 -14 110 q-24 133 -69 219 l14 7 ZM515 842 q89 -28 134 -75 q38 -40 36 -82 q-1 -39 -30 -53 q-30 -15 -64 13 q-9 94 -86 191 l10 6 ZM285 554 q-4 -13 -30 -19 l0 -589 q-2 -7 -26 -18 q-27 -12 -52 -12 l-17 0 l0 538 q-65 -81 -129 -134 l-13 9 q150 217 221 515 l141 -43 q-8 -21 -40 -21 q-43 -114 -100 -209 l45 -17 ZM863 84 q68 -53 109 -91 q-4 -16 -27 -16 l-655 0 l-8 29 l354 0 q70 259 105 528 l143 -33 q-5 -24 -38 -25 q-32 -108 -80 -227 q-54 -138 -110 -243 l147 0 l60 78 Z" /><glyph glyph-name="" unicode="&#x4f4e;" d="M370 802 q-9 -21 -40 -20 q-41 -116 -98 -210 l47 -18 q-7 -15 -31 -18 l0 -592 q-1 -7 -24 -17 q-26 -12 -50 -12 l-17 0 l0 543 q-60 -79 -121 -130 l-14 8 q146 218 211 508 l137 -42 ZM585 102 q78 -18 118 -55 q33 -30 33 -66 q0 -32 -25 -45 q-25 -14 -55 8 q-11 79 -81 151 l10 7 ZM644 455 q-10 92 -14 245 q-93 -12 -164 -16 l0 -229 l178 0 ZM947 21 q36 -69 11 -90 q-26 -23 -69 -6 q-38 14 -69 49 q-135 145 -172 452 l-182 0 l0 -326 l21 10 l21 11 q24 12 44 22 q51 26 93 48 l6 -12 q-8 -7 -19 -18 l-11 -10 l-12 -11 q-32 -29 -54 -50 q-73 -66 -137 -119 q-11 -28 -32 -39 l-59 109 q29 16 38 26 q8 9 8 26 l0 658 l118 -38 q200 56 329 122 l102 -94 q-17 -16 -60 1 q-38 -9 -64 -14 q-39 -8 -74 -13 q-5 -140 9 -260 l71 0 l56 74 q64 -51 102 -87 q-4 -16 -27 -16 l-198 0 q36 -257 143 -360 q18 -18 29 4 q22 41 43 107 l12 -3 l-17 -153 Z" /><glyph glyph-name="" unicode="&#x4f53;" d="M275 558 q-5 -13 -31 -19 l0 -595 q-1 -7 -25 -17 q-27 -12 -51 -12 l-18 0 l0 529 q-55 -73 -108 -123 l-13 8 q132 221 190 516 l140 -42 q-7 -21 -39 -21 q-40 -113 -90 -208 l45 -16 ZM678 600 q46 -133 129 -244 q81 -110 175 -168 l-4 -10 q-58 -10 -83 -79 q-166 157 -236 501 l-3 0 l0 -451 l43 0 l47 68 q55 -47 86 -81 q-3 -16 -26 -16 l-150 0 l0 -174 q0 -8 -25 -20 q-27 -13 -51 -13 l-18 0 l0 207 l-152 0 l-8 29 l160 0 l0 308 q-101 -222 -290 -367 l-13 12 q178 192 252 498 l-212 0 l-8 29 l271 0 l0 214 l131 -14 q-5 -23 -37 -28 l0 -172 l140 0 l56 75 q61 -51 99 -88 q-4 -16 -27 -16 l-246 0 Z" /><glyph glyph-name="" unicode="&#x4f55;" d="M371 802 q-9 -21 -39 -20 q-46 -119 -103 -216 l50 -19 q-4 -15 -30 -19 l0 -584 q-2 -7 -25 -17 q-27 -12 -53 -12 l-17 0 l0 540 q-59 -76 -123 -130 l-13 9 q147 216 216 510 l137 -42 ZM577 257 l0 258 l-132 0 l0 -258 l132 0 ZM665 181 q-2 -5 -26 -13 q-28 -10 -48 -10 l-14 0 l0 70 l-132 0 l0 -60 q0 -8 -23 -18 q-25 -11 -51 -11 l-14 0 l0 444 l92 -39 l117 0 l46 51 l98 -76 q-13 -15 -45 -21 l0 -317 ZM868 802 q68 -54 109 -93 q-4 -16 -28 -16 l-76 0 l0 -652 q0 -58 -25 -85 q-32 -35 -119 -41 q-3 47 -27 68 q-30 24 -104 34 l0 14 q126 -8 152 -8 q26 0 26 22 l0 648 l-439 0 l-8 29 l479 0 l60 80 Z" /><glyph glyph-name="" unicode="&#x4f59;" d="M379 187 q-9 -15 -37 -10 q-118 -142 -298 -216 l-9 12 q146 111 227 277 l117 -63 ZM640 228 q122 -28 193 -81 q60 -44 74 -96 q12 -45 -14 -68 q-27 -24 -68 0 q-21 59 -81 129 q-52 61 -114 108 l10 8 ZM820 401 q67 -49 107 -86 q-3 -16 -27 -16 l-351 0 l0 -259 q0 -58 -25 -85 q-31 -33 -116 -40 q-5 52 -24 68 q-27 25 -93 34 l0 13 q110 -7 133 -7 q23 0 23 20 l0 256 l-358 0 l-9 29 l367 0 l0 140 l-194 0 l-8 29 l352 0 l55 69 q63 -48 102 -82 q-4 -16 -28 -16 l-177 0 l0 -140 l214 0 l57 73 ZM594 809 q-4 -17 -46 -21 q117 -146 429 -242 l-1 -16 q-31 -7 -54 -34 q-21 -24 -27 -55 q-270 130 -364 336 q-73 -106 -213 -211 q-139 -104 -283 -162 l-7 13 q129 75 251 202 q125 129 160 229 l155 -39 Z" /><glyph glyph-name="" unicode="&#x4f5c;" d="M400 798 q-8 -19 -41 -18 q-50 -121 -113 -223 l50 -19 q-5 -15 -30 -19 l0 -576 q-2 -7 -26 -17 q-27 -11 -52 -11 l-17 0 l0 538 q-66 -82 -133 -136 l-13 9 q160 219 239 518 l136 -46 ZM665 607 l0 -183 l112 0 l54 71 q63 -49 100 -84 q-4 -16 -27 -16 l-239 0 l0 -186 l120 0 l59 74 q66 -51 106 -87 q-4 -16 -27 -16 l-258 0 l0 -238 q0 -2 -5 -7 q-6 -4 -16 -8 q-25 -11 -59 -11 l-17 0 l0 691 l-48 0 q-95 -147 -207 -234 l-12 9 q140 192 214 461 l135 -48 q-8 -19 -39 -18 q-30 -68 -73 -141 l269 0 l60 74 q65 -51 106 -87 q-4 -16 -28 -16 l-280 0 Z" /><glyph glyph-name="" unicode="&#x4f7f;" d="M278 554 q-6 -15 -31 -19 l0 -592 q-1 -7 -24 -17 q-26 -11 -51 -11 l-17 0 l0 537 q-59 -76 -118 -127 l-14 9 q143 214 211 510 l137 -42 q-8 -20 -39 -20 q-42 -114 -98 -211 l44 -17 ZM580 347 l0 185 l-143 0 l0 -185 l143 0 ZM673 532 l0 -185 l140 0 l0 185 l-140 0 ZM671 318 q-9 -132 -70 -215 q146 -73 377 -81 l0 -12 q-66 -19 -77 -93 q-226 32 -349 132 q-98 -89 -289 -134 l-7 15 q174 64 249 165 q-59 65 -95 156 l14 8 q37 -66 110 -118 q39 75 45 177 l-142 0 l0 -31 q0 -7 -25 -17 q-28 -12 -54 -12 l-12 0 l0 343 l96 -40 l138 0 l0 106 l-253 0 l-8 29 l261 0 l0 146 l129 -13 q-3 -23 -36 -28 l0 -105 l127 0 l60 77 q66 -52 107 -90 q-4 -16 -27 -16 l-267 0 l0 -106 l130 0 l47 51 l98 -75 q-13 -15 -41 -22 l0 -222 q-1 -6 -28 -16 q-28 -11 -50 -11 l-16 0 l0 52 l-142 0 Z" /><glyph glyph-name="" unicode="&#x4f8b;&#xf9b5;" d="M241 551 q-5 -15 -30 -19 l0 -591 q-1 -6 -24 -16 q-25 -10 -48 -10 l-16 0 l0 531 q-40 -66 -87 -117 l-14 8 q107 214 156 507 l129 -40 q-7 -21 -39 -21 q-34 -115 -78 -213 l51 -19 ZM421 540 q-22 -61 -55 -121 q102 -30 122 -84 q21 88 33 205 l-100 0 ZM562 620 l88 -78 q-10 -12 -38 -15 q-27 -208 -94 -339 q-87 -172 -258 -266 l-10 11 q153 119 221 342 q-29 -20 -64 7 q-9 49 -56 110 q-49 -79 -112 -144 l-13 12 q111 168 148 466 l-89 0 l-8 29 l245 0 l55 69 q62 -47 99 -82 q-4 -16 -27 -16 l-181 0 q-14 -85 -37 -157 l83 0 l48 51 ZM743 160 q0 -7 -22 -17 q-24 -10 -47 -10 l-16 0 l0 582 l117 -12 q-3 -20 -32 -24 l0 -519 ZM956 818 q-3 -23 -36 -27 l0 -760 q0 -56 -21 -79 q-28 -30 -108 -38 q-5 47 -23 64 q-26 23 -92 32 l0 16 q109 -8 132 -8 q24 0 24 21 l0 793 l124 -14 Z" /><glyph glyph-name="" unicode="&#x4f9d;" d="M506 852 q87 -21 131 -62 q37 -35 36 -74 q-1 -36 -28 -50 q-30 -14 -62 11 q-9 87 -87 169 l10 6 ZM282 559 q-6 -14 -31 -18 l0 -597 q-1 -6 -25 -17 q-27 -12 -51 -12 l-17 0 l0 540 q-58 -78 -125 -134 l-13 9 q145 213 213 515 l137 -44 q-7 -21 -38 -20 q-41 -110 -95 -205 l45 -17 ZM970 457 q-8 -12 -36 -4 q-34 -27 -96 -68 q-54 -36 -112 -71 q84 -184 257 -290 l-2 -11 q-72 -12 -88 -89 q-126 105 -193 300 q-50 147 -67 354 q-48 -81 -120 -156 l0 -365 l19 8 l20 8 q23 9 42 17 q49 19 87 36 l5 -13 q-13 -10 -41 -32 l-13 -10 l-13 -10 q-16 -13 -28 -22 q-74 -59 -133 -101 q-9 -17 -20 -23 l-64 88 q30 18 39 29 q8 9 8 24 l0 282 q-73 -61 -148 -101 l-10 11 q193 165 273 377 l-237 0 l-8 29 l512 0 l59 76 q67 -52 109 -89 q-4 -16 -28 -16 l-284 0 l-10 -19 q16 -149 67 -270 q34 42 81 107 q35 48 70 98 l103 -84 Z" /><glyph glyph-name="" unicode="&#x4fbf;&#xf965;" d="M283 554 q-5 -15 -31 -19 l0 -591 q-1 -7 -25 -17 q-27 -12 -52 -12 l-18 0 l0 541 q-61 -78 -122 -131 l-13 9 q145 216 212 510 l137 -42 q-8 -20 -39 -20 q-42 -111 -98 -209 l49 -19 ZM577 321 q1 13 1 40 l0 80 l-139 0 l0 -120 l138 0 ZM439 588 l0 -118 l139 0 l0 118 l-139 0 ZM673 588 l0 -118 l144 0 l0 118 l-144 0 ZM817 321 l0 120 l-144 0 l0 -78 q0 -28 -1 -42 l145 0 ZM671 292 q-10 -129 -66 -203 q152 -61 376 -63 l0 -12 q-67 -18 -78 -95 q-223 26 -350 115 q-94 -78 -289 -120 l-8 13 q174 62 246 150 q-61 60 -100 146 l13 8 q40 -62 118 -108 q35 66 43 169 l-137 0 l0 -32 q0 -8 -25 -19 q-27 -11 -54 -11 l-13 0 l0 427 l98 -40 l133 0 l0 111 l-236 0 l-8 29 l472 0 l59 75 q65 -51 106 -88 q-3 -16 -27 -16 l-271 0 l0 -111 l134 0 l47 51 l100 -75 q-14 -16 -41 -21 l0 -310 q-1 -6 -29 -16 q-29 -10 -51 -10 l-16 0 l0 56 l-146 0 Z" /><glyph glyph-name="" unicode="&#x4fdd;" d="M276 561 q-6 -15 -31 -19 l0 -597 q-1 -7 -25 -17 q-27 -12 -51 -12 l-17 0 l0 536 q-60 -76 -119 -127 l-13 9 q142 213 207 511 l137 -43 q-6 -21 -39 -21 q-39 -111 -93 -204 l44 -16 ZM477 521 l299 0 l0 228 l-299 0 l0 -228 ZM683 323 q98 -168 295 -247 l-2 -11 q-57 -11 -77 -82 q-150 108 -227 315 l0 -355 q0 -3 -6 -7 q-6 -6 -15 -10 q-26 -12 -57 -12 l-16 0 l0 294 q-105 -142 -295 -236 l-10 13 q171 128 256 338 l-240 0 l-8 29 l297 0 l0 140 l-101 0 l0 -35 q0 -8 -26 -18 q-28 -12 -55 -12 l-13 0 l0 392 l99 -41 l284 0 l47 52 l102 -77 q-13 -16 -44 -22 l0 -259 q-1 -6 -28 -15 q-29 -10 -51 -10 l-16 0 l0 45 l-104 0 l0 -140 l130 0 l56 74 q66 -50 105 -87 q-4 -16 -27 -16 l-253 0 Z" /><glyph glyph-name="" unicode="&#x4fe1;" d="M541 854 q86 -16 131 -55 q37 -33 37 -72 q0 -35 -28 -50 q-28 -15 -61 9 q-6 40 -33 87 q-24 42 -55 74 l9 7 ZM373 805 q-7 -21 -40 -21 q-39 -112 -94 -210 l45 -17 q-5 -15 -31 -19 l0 -593 q-1 -7 -25 -17 q-27 -12 -51 -12 l-18 0 l0 529 q-57 -77 -120 -134 l-13 9 q140 219 207 527 l140 -42 ZM820 448 q58 -46 93 -80 q-4 -16 -27 -16 l-496 0 l-8 29 l386 0 l52 67 ZM385 493 l-8 29 l392 0 l52 67 q57 -47 92 -80 q-3 -16 -27 -16 l-501 0 ZM785 26 l0 195 l-298 0 l0 -195 l298 0 ZM822 301 l98 -76 q-5 -6 -15 -11 q-12 -6 -25 -9 l0 -249 q-1 -7 -28 -16 q-29 -11 -52 -11 l-15 0 l0 69 l-298 0 l0 -53 q0 -7 -25 -17 q-28 -12 -55 -12 l-13 0 l0 375 l99 -41 l282 0 l47 51 ZM876 734 q63 -50 100 -86 q-4 -16 -26 -16 l-628 0 l-8 29 l507 0 l55 73 Z" /><glyph glyph-name="" unicode="&#x5012;" d="M241 578 q-6 -15 -31 -19 l0 -617 q-1 -6 -23 -16 q-25 -11 -48 -11 l-16 0 l0 532 q-37 -60 -87 -117 l-15 8 q111 219 158 507 l129 -39 q-7 -21 -38 -21 q-30 -102 -71 -192 l42 -15 ZM480 94 q84 14 171 29 l2 -14 q-127 -56 -338 -134 q-6 -20 -23 -23 l-54 107 q33 4 157 22 l0 172 l-133 0 l-8 29 l141 0 l0 158 l118 -12 q-3 -20 -33 -24 l0 -122 l31 0 l47 66 q52 -46 83 -79 q-4 -16 -26 -16 l-135 0 l0 -159 ZM564 817 q60 -48 98 -83 q-4 -16 -27 -16 l-200 0 l80 -25 q-8 -19 -35 -19 q-62 -83 -154 -160 q89 5 214 14 q-21 55 -47 95 l11 6 q72 -35 106 -80 q29 -39 26 -75 q-2 -32 -26 -43 q-24 -11 -50 13 q-1 25 -13 62 q-52 -18 -100 -33 q-65 -22 -124 -40 q-11 -20 -23 -26 l-48 106 q20 4 27 8 q29 27 64 90 q32 57 49 107 l-114 0 l-8 29 l240 0 l54 70 ZM752 172 q0 -7 -22 -17 q-23 -10 -44 -10 l-16 0 l0 567 l114 -12 q-3 -20 -32 -24 l0 -504 ZM959 816 q-5 -23 -37 -27 l0 -756 q0 -55 -21 -78 q-27 -29 -104 -37 q-7 47 -25 62 q-25 21 -89 32 l0 15 q107 -8 129 -8 q24 0 24 21 l0 789 l123 -13 Z" /><glyph glyph-name="" unicode="&#x5019;" d="M450 752 l-9 29 l279 0 l39 42 l85 -68 q-9 -10 -33 -13 l-17 -149 l38 0 l49 72 q55 -51 87 -85 q-3 -16 -26 -16 l-537 0 l-8 29 l309 0 l19 159 l-275 0 ZM325 805 q-7 -22 -39 -21 q-34 -112 -83 -214 l50 -18 q-7 -15 -31 -19 l0 -591 q-1 -6 -24 -16 q-25 -11 -48 -11 l-16 0 l0 528 q-45 -70 -95 -125 l-14 8 q119 223 170 518 l130 -39 ZM373 97 q0 -7 -23 -17 q-24 -10 -46 -10 l-16 0 l0 607 l118 -11 q-5 -21 -33 -26 l0 -543 ZM711 217 q60 -138 261 -206 l-2 -12 q-67 -13 -73 -83 q-88 48 -144 141 q-42 70 -63 160 l-3 0 q-25 -103 -97 -171 q-83 -77 -248 -130 l-10 16 q126 56 191 130 q56 64 75 155 l-197 0 l-8 29 l211 0 q8 58 10 155 l-85 0 q-52 -76 -116 -122 l-14 9 q67 108 99 271 l124 -37 q-7 -21 -38 -20 q-7 -16 -18 -37 l-18 -35 l228 0 l54 68 q62 -47 99 -81 q-3 -16 -26 -16 l-194 0 q-6 -105 -15 -155 l118 0 l56 71 q62 -48 102 -84 q-4 -16 -28 -16 l-231 0 Z" /><glyph glyph-name="" unicode="&#x503c;" d="M276 555 q-5 -15 -31 -19 l0 -590 q-1 -7 -25 -17 q-27 -12 -52 -12 l-18 0 l0 525 q-53 -72 -112 -123 l-13 8 q138 222 201 518 l142 -42 q-9 -21 -40 -21 q-38 -110 -95 -211 l43 -16 ZM476 -17 l281 0 l0 132 l-281 0 l0 -132 ZM476 540 l0 -113 l281 0 l0 113 l-281 0 ZM476 144 l281 0 l0 113 l-281 0 l0 -113 ZM757 398 l-281 0 l0 -112 l281 0 l0 112 ZM899 47 q51 -45 82 -77 q-4 -16 -26 -16 l-673 0 l-8 29 l112 0 l0 627 l101 -41 l65 0 l1 24 l1 25 q1 34 2 56 l-228 0 l-8 29 l237 0 l1 36 l1 37 q1 43 1 69 l134 -12 q-5 -25 -36 -29 l-2 -23 l-3 -25 q-3 -32 -5 -53 l139 0 l57 73 q66 -50 105 -86 q-4 -16 -28 -16 l-277 0 l-11 -105 l113 0 l44 56 l106 -77 q-10 -14 -46 -20 l0 -545 l3 0 l46 64 Z" /><glyph glyph-name="" unicode="&#x5047;" d="M664 752 l-9 29 l160 0 l46 48 l95 -73 q-8 -11 -36 -18 l0 -244 q-1 -5 -29 -15 q-30 -10 -51 -10 l-16 0 l0 47 l-163 0 l-9 29 l172 0 l0 207 l-160 0 ZM395 754 l0 -205 l129 0 l0 205 l-129 0 ZM395 141 l0 -187 q0 -10 -21 -22 q-24 -13 -52 -13 l-16 0 l0 879 q-10 -15 -36 -14 q-32 -109 -79 -214 l50 -19 q-5 -15 -30 -19 l0 -591 q-1 -6 -24 -16 q-25 -10 -48 -10 l-16 0 l0 530 q-41 -65 -83 -111 l-14 9 q104 212 152 501 l128 -38 l0 16 l93 -41 l115 0 l45 47 l94 -72 q-11 -12 -37 -18 l0 -244 q-1 -6 -28 -15 q-28 -10 -49 -10 l-15 0 l0 51 l-129 0 l0 -160 l83 0 l45 63 q54 -44 85 -75 q-4 -16 -27 -16 l-186 0 l0 -162 l85 0 l48 67 q57 -46 90 -80 q-4 -16 -27 -16 l-196 0 ZM673 370 q28 -113 89 -197 q48 87 71 197 l-160 0 ZM964 372 q-7 -11 -39 -15 q-39 -144 -115 -241 q67 -70 168 -118 l-2 -10 q-56 -7 -82 -73 q-83 61 -136 144 q-95 -90 -246 -141 l-7 13 q137 67 221 184 q-50 104 -74 255 l-39 0 l-9 29 l224 0 l50 49 l86 -76 Z" /><glyph glyph-name="" unicode="&#x504f;" d="M559 856 q77 -14 114 -47 q31 -28 27 -61 q-4 -30 -30 -41 q-29 -11 -58 12 q-8 69 -63 130 l10 7 ZM258 560 q-6 -14 -31 -18 l0 -597 q-1 -7 -25 -17 q-26 -12 -50 -12 l-17 0 l0 524 q-45 -66 -97 -118 l-13 8 q122 223 176 515 l137 -39 q-7 -22 -39 -21 q-34 -109 -85 -208 l44 -17 ZM433 672 l0 -142 l389 0 l0 142 l-389 0 ZM433 501 l0 -45 q0 -78 -4 -134 q-6 -78 -22 -143 q-40 -165 -150 -263 l-13 10 q63 105 85 258 q16 104 16 272 l0 285 l103 -40 l365 0 l42 44 l87 -66 q-9 -13 -33 -16 l0 -173 q-1 -6 -26 -15 q-27 -9 -47 -9 l-14 0 l0 35 l-389 0 ZM845 226 l0 143 l-66 0 l0 -143 l66 0 ZM713 226 l0 143 l-62 0 l0 -143 l62 0 ZM585 226 l0 143 l-67 0 l0 -143 l67 0 ZM962 376 q-10 -14 -35 -18 l0 -349 q0 -43 -18 -61 q-22 -21 -86 -25 q-2 30 -14 42 q-18 15 -60 21 l0 15 q62 -5 79 -5 q17 0 17 18 l0 183 l-66 0 l0 -154 q0 -2 -4 -5 q-4 -3 -11 -6 q-18 -8 -40 -8 l-11 0 l0 173 l-62 0 l0 -191 q0 -2 -4 -5 q-4 -3 -11 -6 q-19 -9 -41 -9 l-10 0 l0 211 l-67 0 l0 -246 q0 -2 -4 -6 q-5 -5 -13 -9 q-21 -10 -46 -10 l-13 0 l0 507 l88 -35 l306 0 l38 44 l88 -66 Z" /><glyph glyph-name="" unicode="&#x505a;" d="M307 804 q-7 -21 -39 -21 q-34 -115 -78 -213 l51 -19 q-5 -15 -30 -19 l0 -591 q-1 -6 -24 -16 q-25 -10 -48 -10 l-16 0 l0 531 q-40 -66 -87 -117 l-14 8 q107 214 156 507 l129 -40 ZM717 600 q-15 -39 -35 -77 q24 -146 70 -251 q45 134 55 328 l-90 0 ZM500 345 l-130 0 l0 -250 l130 0 l0 250 ZM905 600 q-23 -262 -106 -415 q68 -111 180 -177 l-3 -10 q-69 -15 -88 -81 q-84 74 -136 194 q-88 -120 -233 -195 l-9 11 q140 109 212 266 q-37 118 -56 301 q-33 -58 -75 -105 l-14 8 q33 72 61 183 l-157 0 l0 -207 l27 0 l39 43 l75 -69 q-12 -14 -37 -17 l0 -299 q0 -2 -6 -6 q-6 -4 -15 -8 q-24 -11 -48 -11 l-16 0 l0 61 l-130 0 l0 -70 q0 -7 -21 -17 q-24 -11 -48 -11 l-14 0 l0 441 l88 -37 l15 0 l0 207 l-141 0 l-8 29 l149 0 l0 228 l123 -11 q-3 -22 -32 -26 l0 -191 l43 0 l48 66 q42 -35 73 -66 q26 113 35 234 l133 -29 q-7 -22 -37 -23 q-19 -81 -47 -162 l106 0 l52 73 q58 -52 92 -86 q-4 -16 -27 -16 l-47 0 Z" /><glyph glyph-name="" unicode="&#x5076;" d="M368 801 q-7 -20 -38 -19 q-41 -112 -98 -214 l44 -17 q-7 -15 -31 -19 l0 -590 q-2 -7 -25 -16 q-26 -11 -50 -11 l-17 0 l0 530 q-54 -72 -111 -125 l-14 9 q135 216 202 514 l138 -42 ZM580 473 l0 125 l-117 0 l0 -125 l117 0 ZM463 748 l0 -121 l117 0 l0 121 l-117 0 ZM667 748 l0 -121 l128 0 l0 121 l-128 0 ZM795 473 l0 125 l-128 0 l0 -125 l128 0 ZM973 315 q-11 -14 -40 -20 l0 -266 q0 -54 -20 -75 q-26 -28 -104 -35 q-5 45 -21 61 q-20 22 -78 31 l0 15 q90 -7 111 -7 q20 0 20 19 l0 274 l-174 0 l0 -134 l79 5 q-13 43 -35 86 l12 5 q64 -39 93 -86 q24 -39 20 -74 q-3 -31 -26 -41 q-22 -10 -45 13 q0 30 -12 75 q-101 -38 -247 -85 q-7 -18 -26 -21 l-43 113 q41 0 143 5 l0 139 l-166 0 l0 -361 q0 -8 -24 -18 q-27 -12 -53 -12 l-14 0 l0 460 l98 -40 l159 0 l0 103 l-117 0 l0 -32 q0 -7 -20 -15 q-23 -9 -54 -9 l-16 0 l0 428 l102 -39 l316 0 l45 51 l90 -69 q-8 -14 -37 -18 l0 -318 q0 -2 -6 -6 q-6 -4 -15 -7 q-26 -10 -57 -10 l-16 0 l0 44 l-128 0 l0 -103 l165 0 l42 47 l99 -73 Z" /><glyph glyph-name="" unicode="&#x50cf;" d="M352 805 q-7 -21 -39 -20 q-37 -105 -87 -202 l40 -14 q-5 -14 -31 -18 l0 -607 q-1 -7 -24 -17 q-26 -12 -50 -12 l-17 0 l0 531 q-48 -70 -105 -127 l-13 9 q128 223 190 517 l136 -40 ZM610 435 l-16 -17 l-16 -17 q71 -58 106 -137 q40 29 87 70 q42 36 71 66 l-25 0 l0 35 l-207 0 ZM540 464 q38 57 61 131 l-155 0 l0 -131 l94 0 ZM510 720 q-32 -39 -80 -85 l29 -11 l169 0 q25 39 49 96 l-167 0 ZM701 595 q-30 -80 -68 -131 l184 0 l0 131 l-116 0 ZM941 334 q-10 -10 -34 -3 q-60 -32 -146 -64 q55 -136 215 -199 l-1 -10 q-51 -11 -70 -77 q-128 96 -164 278 l-48 -15 q34 -84 32 -168 q-3 -80 -34 -120 q-27 -38 -124 -38 q-1 38 -21 55 q-18 16 -76 28 l-1 14 l15 -1 l17 -1 q22 -1 36 -2 q43 -2 56 -2 q21 0 25 9 q25 36 20 133 q-173 -130 -361 -164 l-5 15 q211 73 353 241 q-2 10 -8 30 q-138 -98 -317 -146 l-6 15 q185 77 290 210 q-7 14 -21 35 q-96 -86 -260 -137 l-7 16 q142 63 224 169 l-74 0 l0 -16 q0 -2 -5 -7 q-5 -5 -14 -9 q-23 -11 -53 -11 l-15 0 l0 183 q-47 -33 -81 -52 l-10 10 q135 124 203 313 l132 -38 q-7 -14 -38 -12 q-10 -15 -32 -47 l145 0 l49 52 l91 -81 q-9 -9 -39 -11 q-49 -43 -116 -85 l145 0 l43 45 l90 -69 q-9 -11 -35 -17 l0 -159 q-1 -4 -17 -11 q-17 -7 -35 -11 l87 -68 Z" /><glyph glyph-name="" unicode="&#x5143;" d="M153 722 l-8 29 l555 0 l60 75 q68 -51 109 -88 q-4 -16 -27 -16 l-689 0 ZM941 45 q35 -13 35 -42 q0 -32 -39 -45 q-45 -15 -160 -15 l-100 0 q-69 0 -92 19 q-22 18 -22 73 l0 439 l-145 0 q-12 -225 -87 -346 q-88 -144 -298 -215 l-6 13 q161 91 225 231 q53 115 58 317 l-261 0 l-8 28 l746 0 l63 79 q70 -54 112 -91 q-4 -16 -28 -16 l-275 0 l0 -415 q0 -14 7 -18 q8 -5 33 -5 l85 0 q64 0 78 1 q16 1 22 16 q12 22 42 157 l12 0 l3 -165 Z" /><glyph glyph-name="" unicode="&#x5145;" d="M406 851 q86 -9 133 -43 q39 -28 42 -65 q2 -33 -24 -49 q-27 -16 -61 4 q-21 74 -99 146 l9 7 ZM935 36 q35 -12 35 -40 q0 -30 -38 -42 q-43 -13 -158 -13 l-99 0 q-66 0 -88 18 q-22 17 -22 67 l0 358 l-34 -5 l-36 -4 q-43 -6 -74 -10 l0 -62 q-2 -126 -67 -212 q-92 -120 -316 -179 l-6 13 q164 70 236 181 q54 85 55 197 l0 51 q-84 -10 -129 -15 q-7 -11 -18 -16 l-53 111 q22 4 33 9 q65 27 149 96 q75 63 115 115 l-369 0 l-9 29 l750 0 l61 76 q68 -51 111 -89 q-4 -16 -28 -16 l-505 0 l115 -57 q-4 -8 -14 -11 q-11 -5 -27 -3 q-115 -86 -296 -158 q199 0 561 13 q-66 82 -137 139 l10 9 q116 -34 184 -88 q57 -44 72 -92 q13 -43 -10 -64 q-23 -21 -60 0 q-14 34 -43 74 l-29 -5 l-32 -5 q-38 -6 -68 -10 l0 -348 q0 -22 38 -22 l87 0 q52 0 78 2 q15 1 22 12 q7 11 39 119 l11 0 l3 -123 Z" /><glyph glyph-name="" unicode="&#x5148;" d="M934 42 q35 -13 35 -42 q0 -33 -39 -46 q-44 -15 -159 -15 l-101 0 q-69 0 -91 19 q-22 18 -22 71 l0 359 l-130 0 q-16 -193 -97 -299 q-91 -120 -293 -177 l-5 13 q154 75 220 193 q56 100 65 270 l-270 0 l-9 29 l411 0 l0 200 l-185 0 q-67 -111 -153 -173 l-13 10 q103 152 138 364 l133 -36 q-7 -22 -37 -21 q-24 -66 -52 -116 l169 0 l0 195 l135 -12 q-3 -23 -37 -29 l0 -154 l170 0 l58 72 q65 -48 107 -84 q-3 -16 -27 -16 l-308 0 l0 -200 l242 0 l61 78 q69 -54 110 -91 q-4 -16 -28 -16 l-279 0 l0 -335 q0 -13 6 -16 q7 -5 31 -5 l89 0 q64 0 77 1 q15 1 23 16 q9 17 41 151 l12 0 l2 -158 Z" /><glyph glyph-name="" unicode="&#x5149;" d="M904 727 q-9 -19 -41 -15 q-110 -135 -219 -214 l-11 10 q71 119 137 280 l134 -61 ZM136 782 q101 -44 154 -106 q43 -51 45 -102 q2 -46 -28 -63 q-30 -18 -67 13 q-14 121 -115 251 l11 7 ZM937 44 q34 -13 34 -42 q0 -32 -39 -45 q-45 -15 -163 -15 l-104 0 q-69 0 -92 19 q-23 18 -23 72 l0 391 l-119 0 q-16 -205 -97 -318 q-92 -129 -300 -191 l-5 13 q160 80 228 206 q58 108 65 290 l-279 0 l-9 29 l414 0 l0 391 l135 -13 q-3 -23 -37 -28 l0 -350 l249 0 l61 75 q68 -51 109 -88 q-4 -16 -28 -16 l-290 0 l0 -367 q0 -14 7 -18 q7 -5 32 -5 l91 0 q66 0 80 2 q15 1 23 15 q10 20 42 159 l11 0 l4 -166 Z" /><glyph glyph-name="" unicode="&#x514d;" d="M560 538 q-8 -116 -29 -206 l211 0 l0 206 l-182 0 ZM430 332 q20 85 25 206 l-186 0 l0 -206 l161 0 ZM358 709 q-50 -65 -115 -127 l39 -15 l224 0 q46 57 92 142 l-240 0 ZM934 32 q34 -12 34 -40 q0 -31 -39 -43 q-45 -14 -165 -14 l-106 0 q-69 0 -91 18 q-22 17 -22 68 l0 282 l-21 0 q-44 -151 -151 -242 q-116 -99 -329 -149 l-6 14 q167 64 261 159 q88 88 124 218 l-154 0 l0 -33 q0 -3 -5 -9 q-6 -6 -16 -11 q-25 -15 -56 -15 l-17 0 l0 287 q-74 -59 -141 -92 l-9 9 q199 158 302 411 l126 -54 q-7 -15 -40 -7 q-6 -11 -15 -25 l-9 -13 l-9 -13 l221 0 l54 52 l92 -82 q-11 -10 -41 -11 q-39 -36 -79 -66 q-50 -39 -92 -64 l197 0 l47 52 l100 -76 q-14 -16 -42 -21 l0 -237 q-1 -7 -28 -17 q-29 -12 -51 -12 l-16 0 l0 47 l-104 0 l0 -261 q0 -12 7 -16 q7 -4 32 -4 l95 0 q70 0 84 2 q16 1 23 13 q11 20 40 130 l12 0 l3 -135 Z" /><glyph glyph-name="" unicode="&#x2f0a;&#x5165;" d="M476 687 q-4 19 -65 40 q-24 8 -58 17 q-22 6 -59 15 q9 18 25 46 q18 31 27 43 q70 -38 112 -72 q54 -43 64 -80 q45 -231 158 -402 q121 -183 303 -268 l-4 -14 q-93 -9 -119 -97 q-228 157 -335 540 q-62 -162 -185 -302 q-128 -146 -299 -238 l-13 13 q164 122 283 320 q120 201 165 437 l0 2 Z" /><glyph glyph-name="" unicode="&#x5168;" d="M843 56 q68 -52 109 -89 q-4 -16 -27 -16 l-851 0 l-9 29 l382 0 l0 216 l-254 0 l-8 28 l262 0 l0 190 l-231 0 l-7 29 l442 0 l54 65 q62 -45 98 -78 q-3 -16 -26 -16 l-230 0 l0 -190 l146 0 l57 70 q64 -48 104 -82 q-4 -16 -27 -16 l-280 0 l0 -216 l236 0 l60 76 ZM597 807 q-4 -17 -46 -21 q114 -162 430 -277 l-1 -14 q-31 -8 -54 -35 q-22 -25 -28 -55 q-271 147 -365 370 q-72 -115 -213 -230 q-138 -113 -285 -179 l-7 13 q129 82 251 220 q126 141 161 249 l157 -41 Z" /><glyph glyph-name="" unicode="&#x516c;" d="M462 761 q-9 -21 -41 -15 q-148 -286 -383 -439 l-12 11 q194 203 305 502 l131 -59 ZM609 282 q122 -62 192 -140 q58 -65 69 -128 q10 -55 -18 -78 q-28 -23 -69 8 q-9 49 -44 117 q-205 -54 -515 -108 q-12 -18 -27 -24 l-56 118 q53 8 64 20 q57 63 133 207 q74 141 105 241 l137 -72 q-9 -19 -41 -16 q-112 -203 -300 -377 q186 6 488 34 q-54 99 -130 192 l12 6 ZM677 802 q-14 -25 -37 -49 q98 -220 342 -322 l-3 -11 q-67 -12 -94 -78 q-224 143 -292 481 l10 6 l74 -27 Z" /><glyph glyph-name="" unicode="&#x5171;" d="M47 -74 q186 117 288 292 l119 -69 q-9 -15 -38 -10 q-142 -151 -360 -225 l-9 12 ZM592 196 q138 -31 223 -89 q70 -47 91 -101 q19 -48 -6 -74 q-24 -26 -68 -4 q-32 62 -108 138 q-68 68 -141 120 l9 10 ZM381 287 l228 0 l0 277 l-228 0 l0 -277 ZM857 364 q68 -52 110 -90 q-4 -16 -29 -16 l-893 0 l-8 29 l249 0 l0 277 l-208 0 l-8 29 l216 0 l0 241 l131 -12 q-3 -24 -36 -29 l0 -200 l228 0 l0 241 l133 -12 q-3 -24 -37 -29 l0 -200 l75 0 l55 73 q63 -49 100 -86 q-4 -16 -26 -16 l-204 0 l0 -277 l92 0 l60 77 Z" /><glyph glyph-name="" unicode="&#x5173;" d="M235 839 q97 -24 149 -71 q43 -38 46 -81 q2 -38 -25 -55 q-29 -16 -64 9 q-21 96 -116 191 l10 7 ZM546 326 q56 -118 169 -198 q109 -77 254 -105 l-1 -11 q-66 -17 -83 -93 q-140 50 -226 148 q-86 96 -131 252 q-25 -134 -123 -226 q-123 -115 -370 -176 l-6 14 q197 79 295 186 q82 89 103 209 l-375 0 l-9 29 l388 0 q4 33 4 75 l0 148 l-320 0 l-9 28 l452 0 q53 102 94 238 l140 -41 q-7 -20 -38 -19 q-62 -86 -169 -178 l144 0 l59 74 q69 -50 109 -86 q-3 -16 -27 -16 l-332 0 l0 -146 q0 -42 -4 -77 l249 0 l62 78 q69 -54 113 -91 q-4 -16 -28 -16 l-384 0 Z" /><glyph glyph-name="" unicode="&#x5176;" d="M43 -73 q193 89 300 225 l124 -66 q-10 -16 -53 -12 q-144 -109 -365 -160 l-6 13 ZM591 130 q169 -25 259 -72 q73 -39 82 -83 q8 -38 -28 -54 q-36 -16 -68 15 q-84 109 -250 179 l5 15 ZM361 201 l283 0 l0 136 l-283 0 l0 -136 ZM361 656 l0 -129 l283 0 l0 129 l-283 0 ZM361 365 l283 0 l0 133 l-283 0 l0 -133 ZM858 277 q68 -53 110 -89 q-4 -16 -28 -16 l-894 0 l-9 29 l229 0 l0 455 l-198 0 l-8 29 l206 0 l0 156 l131 -13 q-3 -22 -36 -29 l0 -114 l283 0 l0 156 l133 -13 q-3 -24 -36 -29 l0 -114 l46 0 l57 70 q65 -48 103 -83 q-4 -16 -27 -16 l-179 0 l0 -455 l57 0 l60 76 Z" /><glyph glyph-name="" unicode="&#x5177;" d="M41 -70 q183 86 285 219 l124 -61 q-11 -18 -52 -12 q-137 -106 -351 -159 l-6 13 ZM576 125 q171 -24 264 -70 q74 -38 84 -82 q10 -37 -25 -53 q-36 -15 -68 15 q-89 106 -261 176 l6 14 ZM333 190 l355 0 l0 123 l-355 0 l0 -123 ZM333 748 l0 -118 l355 0 l0 118 l-355 0 ZM333 458 l0 -116 l355 0 l0 116 l-355 0 ZM688 601 l-355 0 l0 -114 l355 0 l0 114 ZM867 274 q68 -58 107 -97 q-4 -16 -28 -16 l-903 0 l-8 29 l203 0 l0 630 l108 -43 l332 0 l51 54 l97 -79 q-14 -16 -42 -21 l0 -541 l24 0 l59 84 Z" /><glyph glyph-name="" unicode="&#x5178;" d="M41 -70 q194 85 296 220 l122 -64 q-11 -17 -53 -11 q-141 -110 -359 -158 l-6 13 ZM593 131 q170 -25 261 -73 q72 -39 83 -83 q8 -39 -27 -54 q-36 -16 -68 14 q-82 110 -255 182 l6 14 ZM245 199 l107 0 l0 216 l-107 0 l0 -216 ZM245 646 l0 -202 l107 0 l0 202 l-107 0 ZM440 646 l0 -202 l107 0 l0 202 l-107 0 ZM636 646 l0 -202 l114 0 l0 202 l-114 0 ZM547 415 l-107 0 l0 -216 l107 0 l0 216 ZM636 199 l114 0 l0 216 l-114 0 l0 -216 ZM892 270 q56 -50 89 -84 q-4 -16 -27 -16 l-916 0 l-8 29 l123 0 l0 517 l102 -41 l97 0 l0 158 l116 -12 q-2 -19 -28 -24 l0 -122 l107 0 l0 158 l117 -12 q-3 -19 -28 -24 l0 -122 l103 0 l44 57 l107 -77 q-9 -15 -45 -19 l0 -433 l47 67 Z" /><glyph glyph-name="" unicode="&#x5185;" d="M946 632 q-5 -6 -15 -11 q-12 -6 -26 -9 l0 -572 q0 -59 -24 -84 q-31 -32 -120 -40 q-9 51 -30 69 q-32 26 -107 37 l0 14 q130 -9 159 -9 q25 0 25 23 l0 579 l-270 0 q-8 -80 -24 -135 q109 -45 171 -108 q52 -52 62 -104 q9 -47 -16 -68 q-25 -21 -62 5 q-29 110 -163 250 q-61 -183 -275 -283 l-11 16 q112 81 165 191 q45 94 57 236 l-243 0 l0 -677 q0 -10 -24 -22 q-27 -13 -56 -13 l-16 0 l0 784 l105 -44 l236 0 q4 59 6 186 l134 -11 q-5 -25 -36 -28 q-4 -99 -8 -147 l258 0 l47 54 l101 -79 Z" /><glyph glyph-name="" unicode="&#x518d;" d="M734 228 l0 158 l-194 0 l0 -158 l194 0 ZM260 228 l184 0 l0 158 l-184 0 l0 -158 ZM260 567 l0 -152 l184 0 l0 152 l-184 0 ZM540 567 l0 -152 l194 0 l0 152 l-194 0 ZM888 296 q56 -47 88 -81 q-3 -15 -26 -15 l-120 0 l0 -161 q0 -58 -23 -82 q-30 -32 -117 -40 q-7 51 -26 70 q-30 25 -98 35 l0 15 q119 -9 143 -9 q25 0 25 23 l0 149 l-474 0 l0 -255 q0 -3 -6 -8 q-6 -5 -15 -10 q-26 -12 -58 -12 l-16 0 l0 285 l-127 0 l-9 28 l136 0 l0 411 l108 -43 l171 0 l0 130 l-374 0 l-9 29 l713 0 l58 74 q69 -50 111 -87 q-4 -16 -27 -16 l-376 0 l0 -130 l183 0 l48 56 l109 -82 q-14 -17 -50 -25 l0 -317 l9 0 l49 68 Z" /><glyph glyph-name="" unicode="&#x5199;" d="M563 280 q62 -50 101 -87 q-4 -16 -27 -16 l-582 0 l-8 29 l459 0 l57 74 ZM756 429 l91 -78 q-12 -13 -41 -16 q-27 -324 -104 -384 q-47 -38 -128 -37 q0 46 -22 63 q-26 21 -108 36 l1 16 q42 -4 87 -8 q51 -4 68 -4 q24 0 40 12 q49 40 74 320 l-389 0 l-42 -49 l-93 64 q13 10 40 23 q16 64 33 163 q17 94 22 150 l127 -32 q-7 -22 -39 -21 q-2 -18 -8 -48 l-5 -28 l-5 -29 l319 0 l55 71 q62 -49 100 -84 q-4 -16 -27 -16 l-452 0 q-6 -31 -14 -71 l-7 -33 l-3 -16 l-3 -15 l382 0 l51 51 ZM964 721 q-8 -9 -38 -12 q-28 -32 -62 -64 q-39 -38 -69 -59 l-10 6 q20 73 33 138 l-626 0 q7 -54 -9 -96 q-14 -38 -42 -55 q-24 -16 -51 -11 q-28 5 -38 29 q-17 47 36 74 q30 18 49 56 q22 42 16 88 l15 1 q10 -26 19 -57 l624 0 l56 55 l97 -93 Z" /><glyph glyph-name="" unicode="&#x51ac;" d="M232 114 q201 -1 332 -36 q106 -29 152 -74 q37 -38 21 -68 q-16 -29 -59 -17 q-63 45 -178 93 q-131 55 -271 88 l3 14 ZM371 294 q120 1 194 -27 q61 -22 81 -58 q17 -31 -2 -54 q-19 -22 -53 -10 q-31 30 -87 65 q-66 42 -137 70 l4 14 ZM389 682 l-16 -18 l-16 -18 q56 -86 154 -151 q98 90 152 187 l-274 0 ZM828 675 q-11 -13 -46 -14 q-78 -121 -193 -211 q165 -83 397 -112 l-2 -12 q-65 -13 -84 -89 q-233 56 -376 166 q-200 -133 -487 -185 l-7 14 q256 80 434 223 q-78 78 -123 174 q-123 -127 -264 -193 l-8 10 q93 67 178 181 q82 112 124 224 l140 -37 q-5 -16 -38 -14 q-30 -50 -61 -89 l253 0 l66 58 l97 -94 Z" /><glyph glyph-name="" unicode="&#x51b3;" d="M74 799 q93 -19 142 -60 q40 -35 42 -75 q1 -37 -26 -52 q-29 -16 -63 9 q-17 90 -104 171 l9 7 ZM350 692 q-22 -57 -40 -101 q-24 -65 -44 -114 q-51 -134 -60 -165 q-18 -56 -18 -89 q1 -15 6 -34 l6 -18 l6 -18 q17 -49 15 -95 q-3 -76 -73 -76 q-38 0 -45 50 q12 75 8 130 q-4 55 -21 66 q-19 12 -50 15 l0 20 l46 0 q17 0 29 20 q23 36 218 414 l17 -5 ZM766 363 l0 258 l-154 0 l0 -138 q0 -58 -8 -120 l162 0 ZM902 429 q51 -47 81 -78 q-4 -16 -26 -16 l-332 0 q57 -221 347 -320 l-1 -12 q-73 -14 -83 -89 q-131 65 -203 190 q-55 95 -78 231 l-7 0 q-27 -151 -118 -250 q-104 -113 -304 -170 l-7 15 q159 68 241 174 q72 94 94 231 l-223 0 l-8 28 l235 0 q6 59 6 121 l0 137 l-161 0 l-9 28 l170 0 l0 188 l131 -13 q-5 -23 -35 -28 l0 -147 l143 0 l49 52 l99 -75 q-12 -15 -44 -21 l0 -236 l43 60 Z" /><glyph glyph-name="" unicode="&#x51b5;" d="M72 800 q93 -18 142 -59 q41 -34 43 -75 q2 -36 -25 -52 q-29 -17 -63 8 q-17 90 -106 171 l9 7 ZM350 681 q-12 -31 -40 -99 l-23 -56 l-22 -56 q-54 -133 -62 -162 q-18 -55 -17 -87 q0 -15 6 -34 l5 -17 l6 -19 q16 -50 14 -96 q-2 -75 -71 -75 q-35 0 -43 50 q26 173 -13 196 q-19 12 -50 15 l0 20 l46 0 q17 0 29 20 q23 35 218 405 l17 -5 ZM464 455 l335 0 l0 276 l-335 0 l0 -276 ZM942 39 q30 -13 30 -40 q0 -29 -32 -42 q-35 -15 -123 -15 l-70 0 q-56 0 -75 18 q-17 16 -17 65 l0 401 l-65 0 q-14 -206 -86 -317 q-83 -128 -278 -194 l-7 13 q154 83 216 208 q54 106 60 290 l-31 0 l0 -45 q0 -7 -20 -15 q-24 -9 -56 -9 l-16 0 l0 443 l103 -40 l320 0 l46 52 l91 -69 q-11 -14 -37 -18 l0 -334 q0 -2 -6 -5 q-7 -4 -16 -8 q-27 -10 -58 -10 l-16 0 l0 58 l-54 0 l0 -376 q0 -19 27 -19 l52 0 q40 0 49 1 q12 1 18 14 q5 12 16 58 q4 17 10 44 l10 49 l12 0 l3 -158 Z" /><glyph glyph-name="" unicode="&#x51c6;" d="M603 852 q81 -26 118 -70 q31 -37 24 -74 q-6 -35 -35 -45 q-31 -11 -61 18 q3 83 -56 165 l10 6 ZM69 802 q91 -21 139 -64 q40 -35 42 -76 q1 -36 -26 -52 q-29 -16 -63 9 q-15 89 -102 176 l10 7 ZM342 727 q-6 -19 -17 -57 l-10 -31 l-10 -33 q-24 -82 -40 -136 q-48 -158 -57 -194 q-16 -65 -15 -98 q0 -15 6 -35 l6 -17 l7 -19 q17 -50 15 -97 q-3 -75 -72 -75 q-37 0 -46 48 q12 74 9 130 q-4 56 -21 67 q-15 12 -50 15 l0 21 l45 0 q17 0 27 21 q20 40 206 494 l17 -4 ZM474 23 l152 0 l0 184 l-152 0 l0 -184 ZM474 615 l0 -175 l152 0 l0 175 l-152 0 ZM626 411 l-152 0 l0 -175 l152 0 l0 175 ZM875 97 q63 -51 101 -87 q-4 -16 -27 -16 l-475 0 l0 -51 q0 -3 -5 -7 q-6 -5 -15 -10 q-23 -11 -53 -11 l-16 0 l0 553 q-59 -85 -122 -144 l-12 9 q68 102 122 256 q46 131 68 255 l138 -39 q-7 -19 -37 -20 q-23 -67 -57 -140 l2 -1 l318 0 l55 72 q63 -49 99 -85 q-4 -16 -27 -16 l-215 0 l0 -175 l71 0 l52 71 q60 -49 95 -84 q-4 -16 -26 -16 l-192 0 l0 -175 l71 0 l52 72 q60 -50 95 -85 q-4 -16 -26 -16 l-192 0 l0 -184 l101 0 l57 74 Z" /><glyph glyph-name="" unicode="&#x51cf;" d="M74 799 q83 -23 126 -65 q35 -35 35 -73 q-1 -34 -27 -48 q-27 -14 -57 11 q-10 87 -87 169 l10 6 ZM275 621 q-9 -30 -26 -91 l-14 -51 l-15 -51 q-34 -121 -41 -148 q-6 -26 -8 -43 q-4 -24 -3 -40 q0 -15 6 -35 l5 -18 l6 -20 q15 -52 12 -98 q-3 -73 -65 -73 q-34 0 -41 50 q11 75 9 131 q-3 56 -19 66 q-16 11 -49 14 l0 21 l44 0 q16 0 26 20 q17 34 156 369 l17 -3 ZM575 571 q53 -46 82 -78 q-3 -16 -26 -16 l-224 0 l-8 29 l131 0 l45 65 ZM479 350 l0 -164 l84 0 l0 164 l-84 0 ZM479 87 q0 -5 -18 -13 q-20 -9 -39 -9 l-10 0 l0 345 l71 -32 l72 0 l34 37 l75 -57 q-4 -5 -13 -10 q-10 -5 -21 -7 l0 -212 q-1 -5 -20 -13 q-21 -9 -36 -9 l-11 0 l0 50 l-84 0 l0 -70 ZM940 16 q37 -78 15 -94 q-28 -20 -73 4 q-40 22 -66 61 q-36 55 -66 124 q-102 -124 -277 -195 l-10 13 q160 91 258 255 q-56 176 -71 444 l-272 0 l0 -237 q0 -156 -26 -250 q-39 -141 -148 -229 l-12 10 q101 147 101 468 l0 318 l100 -51 l256 0 q-4 81 -4 187 l123 -13 q-2 -24 -36 -29 q-1 -72 0 -145 l86 0 l27 34 q-15 2 -28 12 q-5 59 -53 105 l10 6 q78 -10 108 -45 q24 -30 6 -58 q19 -15 38 -31 q24 -21 40 -36 q-4 -16 -26 -16 l-207 0 q7 -196 43 -336 q46 119 66 247 l117 -48 q-10 -21 -41 -17 q-38 -164 -109 -282 q28 -70 67 -123 q9 -14 14 -14 q5 1 13 16 q10 21 22 51 q14 33 24 62 l13 -2 l-22 -166 Z" /><glyph glyph-name="" unicode="&#x2f0f;&#x51e0;" d="M936 58 q36 -15 36 -43 q0 -32 -37 -46 q-41 -15 -138 -15 l-78 0 q-63 0 -85 21 q-21 19 -21 74 l0 690 l-268 0 l0 -277 q0 -188 -48 -300 q-69 -160 -255 -249 l-10 11 q126 101 175 246 q38 113 38 291 l0 351 l117 -44 l239 0 l52 61 l102 -86 q-13 -13 -43 -18 l0 -647 q0 -27 33 -27 l60 0 q45 0 56 1 q14 2 21 13 q7 11 18 55 q5 17 10 42 l11 46 l11 0 l4 -150 Z" /><glyph glyph-name="" unicode="&#x51f8;" d="M813 35 l0 378 l-122 0 l-29 -36 l-99 48 q13 15 29 25 l0 292 l-181 0 l0 -375 q0 -8 -25 -19 q-27 -11 -54 -11 l-14 0 l0 72 l-130 0 l0 -374 l625 0 ZM949 418 q-11 -15 -41 -21 l0 -438 q-2 -6 -29 -16 q-29 -11 -51 -11 l-15 0 l0 74 l-625 0 l0 -54 q0 -9 -24 -19 q-27 -12 -55 -12 l-14 0 l0 559 l98 -42 l125 0 l0 374 l97 -41 l202 0 l35 44 l69 -77 q-13 -11 -35 -15 l0 -281 l117 0 l47 52 l99 -76 Z" /><glyph glyph-name="" unicode="&#x51fa;" d="M925 327 q-2 -21 -34 -26 l0 -351 q0 -6 -25 -15 q-26 -9 -51 -9 l-17 0 l0 81 l-590 0 l-31 -51 l-99 63 l7 6 l7 7 q9 8 17 13 l0 299 l131 -13 q-3 -19 -39 -24 l0 -271 l247 0 l0 393 l-192 0 l-31 -50 l-97 61 q13 14 30 26 l0 283 l130 -13 q-3 -19 -39 -24 l0 -254 l199 0 l0 381 l132 -14 q-5 -23 -36 -28 l0 -339 l205 0 l0 290 l127 -13 q-3 -21 -35 -26 l0 -311 q0 -7 -25 -15 q-26 -10 -50 -10 l-17 0 l0 56 l-205 0 l0 -393 l254 0 l0 304 l127 -13 Z" /><glyph glyph-name="" unicode="&#x51fb;" d="M859 505 q71 -54 114 -91 q-4 -16 -28 -16 l-391 0 l0 -384 l218 0 l0 312 l132 -13 q-3 -22 -36 -27 l0 -344 q0 -7 -26 -15 q-27 -10 -53 -10 l-17 0 l0 68 l-525 0 l-34 -46 l-104 58 q17 17 37 27 l0 304 l131 -14 q-3 -23 -37 -28 l0 -272 l218 0 l0 384 l-412 0 l-9 29 l421 0 l0 209 l-331 0 l-8 29 l339 0 l0 177 l133 -13 q-5 -24 -37 -29 l0 -135 l172 0 l63 78 q70 -53 113 -91 q-3 -16 -27 -16 l-321 0 l0 -209 l244 0 l61 78 Z" /><glyph glyph-name="" unicode="&#x51fd;" d="M120 763 l-9 29 l639 0 l61 56 l98 -88 q-10 -9 -45 -12 q-125 -65 -276 -119 q-3 -21 -35 -27 l0 -162 q29 34 68 83 q29 35 59 74 l105 -70 q-9 -14 -37 -6 q-76 -50 -195 -110 l0 -20 q93 -26 147 -70 q45 -36 54 -75 q8 -35 -13 -51 q-22 -17 -55 1 q-28 66 -133 163 l0 -185 q0 -52 -20 -73 q-26 -27 -100 -34 q-5 42 -21 57 q-24 20 -81 28 l0 14 q96 -7 115 -7 q22 0 22 19 l0 196 l-17 -16 l-18 -16 q-24 -23 -41 -37 q-51 -47 -97 -85 q-2 -21 -17 -29 l-72 91 q76 29 262 123 l0 236 l74 -7 q100 57 186 129 l-608 0 ZM252 583 q85 -12 134 -46 q39 -28 45 -63 q5 -32 -17 -48 q-23 -16 -54 2 q-13 35 -50 80 q-31 37 -67 67 l9 8 ZM941 629 q-3 -23 -37 -28 l0 -653 q0 -8 -25 -19 q-28 -12 -53 -12 l-18 0 l0 84 l-607 0 l-35 -47 l-107 58 q14 15 38 29 l0 599 l133 -11 q-3 -23 -37 -28 l0 -571 l615 0 l0 612 l133 -13 Z" /><glyph glyph-name="" unicode="&#x5206;" d="M470 790 q-7 -16 -38 -15 q-139 -284 -395 -410 l-9 11 q109 85 195 220 q77 121 114 245 l133 -51 ZM724 487 l93 -80 q-11 -13 -41 -17 q-17 -374 -85 -435 q-46 -40 -129 -40 q2 49 -21 66 q-26 22 -108 37 l0 15 q47 -4 86 -6 q51 -4 67 -4 q24 0 36 11 q42 35 60 371 l-203 0 q-18 -157 -85 -258 q-95 -142 -313 -234 l-11 15 q175 103 247 242 q48 94 57 235 l-192 0 l-9 29 l499 0 l52 53 ZM676 827 q-9 -17 -35 -49 q46 -104 136 -188 q91 -85 204 -128 l-3 -11 q-55 -17 -80 -82 q-235 143 -306 477 l10 6 l74 -25 Z" /><glyph glyph-name="" unicode="&#x5217;&#xf99c;" d="M493 829 q66 -52 105 -90 q-4 -16 -27 -16 l-224 0 q-23 -84 -62 -165 l158 0 l54 55 l92 -84 q-11 -13 -42 -16 q-55 -212 -159 -351 q-124 -166 -331 -248 l-9 13 q309 177 401 602 l-179 0 q-27 -51 -65 -105 q76 -19 113 -57 q32 -31 30 -65 q-2 -31 -27 -43 q-27 -13 -57 10 q-12 68 -74 133 q-72 -94 -154 -158 l-10 11 q164 203 206 468 l-180 0 l-8 29 l391 0 l58 77 ZM711 165 q0 -8 -23 -18 q-24 -10 -47 -10 l-15 0 l0 623 l117 -12 q-3 -20 -32 -25 l0 -558 ZM950 810 q-3 -24 -35 -28 l0 -746 q0 -58 -22 -83 q-29 -30 -112 -38 q-7 49 -26 67 q-25 23 -94 34 l0 15 q114 -8 136 -8 q24 0 24 21 l0 779 l129 -13 Z" /><glyph glyph-name="" unicode="&#x5219;" d="M333 215 q103 -37 160 -93 q47 -46 54 -95 q5 -43 -21 -62 q-27 -19 -63 7 q-12 55 -55 124 q-36 58 -84 111 q-26 -101 -88 -167 q-68 -72 -193 -119 l-11 17 q166 94 211 264 q28 109 29 448 l122 -28 q-7 -23 -38 -23 q-8 -300 -31 -390 l8 6 ZM479 807 l89 -71 q-12 -14 -41 -19 l0 -480 q0 -2 -6 -6 q-6 -4 -15 -7 q-25 -10 -53 -10 l-15 0 l0 511 l-248 0 l0 -505 q0 -7 -19 -15 q-23 -10 -53 -10 l-15 0 l0 598 l98 -39 l233 0 l45 53 ZM717 177 q0 -7 -22 -17 q-24 -10 -45 -10 l-17 0 l0 578 l117 -12 q-3 -20 -33 -24 l0 -515 ZM947 823 q-5 -23 -37 -27 l0 -759 q0 -57 -21 -82 q-28 -31 -107 -39 q-5 51 -24 69 q-26 24 -87 33 l0 16 q104 -8 126 -8 q23 0 23 20 l0 790 l127 -13 Z" /><glyph glyph-name="" unicode="&#x521a;" d="M474 664 q-6 -20 -39 -21 q-24 -123 -62 -235 q74 -131 68 -221 q-2 -36 -18 -47 q-16 -11 -38 10 l-5 18 l-5 18 q-7 22 -12 41 q-14 47 -28 88 q-59 -129 -142 -215 l-12 9 q74 114 122 294 q-59 147 -127 231 l13 8 q75 -73 133 -155 q22 106 30 203 l122 -26 ZM515 825 l96 -75 q-13 -15 -43 -21 l0 -700 q0 -54 -20 -77 q-26 -29 -100 -36 q-5 46 -22 63 q-25 23 -83 31 l0 15 q97 -8 117 -8 q23 0 23 22 l0 706 l-319 0 l0 -794 q0 -10 -21 -21 q-23 -13 -50 -13 l-15 0 l0 898 l92 -41 l303 0 l42 51 ZM735 162 q0 -7 -23 -16 q-24 -10 -47 -10 l-16 0 l0 573 l123 -12 q-5 -23 -37 -28 l0 -507 ZM957 831 q-3 -23 -37 -28 l0 -773 q0 -57 -21 -81 q-28 -31 -109 -39 q-5 49 -24 67 q-25 25 -87 34 l0 14 q104 -7 126 -7 q23 0 23 20 l0 806 l129 -13 Z" /><glyph glyph-name="" unicode="&#x521b;" d="M550 54 q36 -14 36 -39 q0 -30 -43 -42 q-47 -13 -173 -13 l-114 0 q-70 0 -94 19 q-24 18 -24 69 l0 446 q-56 -52 -110 -85 l-11 10 q82 82 154 210 q63 111 98 219 l125 -55 q-8 -18 -39 -13 l0 -1 q105 -36 165 -90 q50 -46 59 -93 q8 -42 -17 -62 q-26 -19 -63 4 q-35 102 -157 218 q-69 -124 -162 -221 l60 -25 l162 0 l47 46 l88 -71 q-10 -12 -38 -16 q0 -139 -7 -191 q-7 -60 -31 -79 q-31 -27 -95 -27 q0 41 -14 55 q-18 16 -65 26 l1 15 q24 -2 47 -3 q28 -2 39 -2 q18 0 25 8 q13 13 13 210 l-185 0 l0 -413 q0 -15 9 -20 q9 -5 38 -5 l102 0 q79 0 93 2 q19 1 25 14 q15 29 41 144 l12 0 l3 -149 ZM714 177 q0 -7 -23 -17 q-24 -11 -47 -11 l-16 0 l0 574 l121 -13 q-3 -21 -35 -26 l0 -507 ZM949 831 q-3 -23 -37 -28 l0 -771 q0 -56 -21 -80 q-27 -30 -106 -38 q-5 50 -24 65 q-22 23 -87 34 l0 15 q104 -8 126 -8 q22 0 22 20 l0 804 l127 -13 Z" /><glyph glyph-name="" unicode="&#x521d;" d="M138 845 q87 -13 133 -50 q38 -30 39 -67 q1 -34 -26 -49 q-28 -16 -62 6 q-18 80 -93 153 l9 7 ZM494 429 q-13 -17 -41 -6 q-48 -41 -97 -65 q58 -25 85 -60 q24 -31 20 -59 q-3 -27 -25 -36 q-24 -10 -51 9 q-23 67 -106 148 l0 -414 q0 -3 -6 -8 q-6 -5 -15 -10 q-26 -13 -56 -13 l-17 0 l0 396 q-77 -68 -156 -113 l-11 11 q205 172 298 408 l-275 0 l-9 29 l282 0 l56 53 l91 -89 q-10 -10 -44 -13 q-48 -92 -138 -193 l0 -21 q10 -2 24 -6 l22 -7 q44 50 83 128 l86 -69 ZM976 699 q-10 -13 -44 -19 q-7 -342 -24 -495 q-18 -166 -57 -211 q-47 -54 -129 -54 q0 52 -16 69 q-21 21 -89 37 l1 16 q32 -3 66 -6 q39 -3 54 -3 q24 0 38 14 q52 50 64 649 l-153 0 q-19 -343 -76 -492 q-76 -197 -278 -289 l-12 14 q151 96 209 300 q43 150 54 467 l-160 0 l-9 28 l414 0 l54 58 l93 -83 Z" /><glyph glyph-name="" unicode="&#x5220;" d="M530 456 l0 293 l-75 0 l0 -293 l75 0 ZM252 456 l0 293 l-75 0 l0 -293 l75 0 ZM635 513 q40 -41 62 -69 q-3 -16 -24 -16 l-72 0 l0 -402 q0 -47 -15 -65 q-20 -24 -77 -29 q-4 36 -14 49 q-18 18 -58 23 l0 16 q60 -5 75 -5 q18 0 18 18 l0 395 l-75 0 l0 -39 q0 -168 -19 -255 q-29 -139 -118 -222 l-15 9 q80 130 80 467 l0 40 l-58 0 l0 -387 q0 -47 -16 -67 q-21 -24 -81 -29 q-3 35 -16 50 q-17 17 -62 24 l0 16 q68 -6 84 -6 q18 0 18 19 l0 380 l-75 0 q-1 -166 -22 -266 q-31 -152 -115 -248 l-16 9 q77 155 79 505 l-61 0 l-7 28 l68 0 l0 358 l87 -36 l52 0 l38 46 l88 -70 q-6 -6 -16 -11 q-12 -6 -27 -9 l0 -278 l58 0 l0 358 l86 -36 l51 0 l37 45 l87 -68 q-11 -15 -43 -21 l0 -276 l34 55 ZM775 166 q0 -7 -20 -16 q-22 -10 -42 -10 l-14 0 l0 585 l112 -12 q-3 -23 -36 -28 l0 -519 ZM963 832 q-3 -24 -37 -28 l0 -778 q0 -53 -19 -75 q-24 -28 -95 -35 q-3 44 -21 60 q-21 21 -77 30 l0 15 q91 -7 110 -7 q22 0 22 19 l0 811 l117 -12 Z" /><glyph glyph-name="" unicode="&#x5224;" d="M395 528 q33 91 76 244 l120 -46 q-9 -21 -40 -18 q-72 -113 -142 -189 l-14 9 ZM82 770 q80 -44 118 -100 q31 -46 28 -89 q-3 -38 -30 -51 q-28 -12 -57 16 q-1 49 -24 113 q-18 52 -46 105 l11 6 ZM520 364 q60 -48 96 -82 q-4 -16 -27 -16 l-236 0 q-21 -124 -90 -207 q-75 -90 -216 -144 l-9 13 q193 116 224 338 l-217 0 l-8 29 l228 0 q4 37 4 87 l0 80 l-193 0 l-8 29 l201 0 l0 351 l128 -13 q-3 -23 -35 -28 l0 -310 l79 0 l51 70 q58 -49 92 -83 q-3 -16 -26 -16 l-196 0 l0 -80 q0 -40 -5 -87 l112 0 l51 69 ZM712 161 q0 -7 -24 -17 q-25 -11 -49 -11 l-17 0 l0 612 l127 -12 q-5 -24 -37 -28 l0 -544 ZM955 828 q-3 -24 -36 -28 l0 -766 q0 -59 -22 -83 q-29 -32 -112 -40 q-5 51 -24 69 q-26 25 -91 35 l0 15 q109 -8 131 -8 q23 0 23 20 l0 799 l131 -13 Z" /><glyph glyph-name="" unicode="&#x5229;&#xf9dd;" d="M496 601 q61 -52 97 -88 q-4 -15 -27 -15 l-196 0 l0 -72 q91 -33 139 -82 q39 -40 42 -82 q3 -37 -23 -51 q-25 -15 -56 10 q-17 83 -102 184 l0 -462 q0 -7 -21 -16 q-25 -11 -55 -11 l-16 0 l0 419 q-93 -150 -244 -257 l-12 12 q152 157 230 408 l-194 0 l-8 28 l228 0 l0 171 q-120 -18 -227 -25 l-3 15 q245 59 412 157 l109 -99 q-18 -15 -62 0 q-60 -17 -137 -32 l0 -187 l72 0 l54 75 ZM699 156 q0 -7 -24 -17 q-25 -11 -48 -11 l-16 0 l0 633 l125 -13 q-5 -23 -37 -28 l0 -564 ZM954 814 q-3 -22 -35 -28 l0 -746 q0 -58 -22 -82 q-29 -30 -111 -38 q-5 47 -24 67 q-27 24 -92 34 l0 14 q111 -8 132 -8 q24 0 24 21 l0 779 l128 -13 Z" /><glyph glyph-name="" unicode="&#x522b;" d="M188 742 l0 -212 l232 0 l0 212 l-232 0 ZM188 474 q0 -3 -5 -8 q-6 -5 -14 -10 q-24 -12 -53 -12 l-15 0 l0 367 l100 -40 l210 0 l44 48 l95 -73 q-5 -6 -15 -11 q-11 -6 -25 -8 l0 -249 q-1 -5 -27 -14 q-28 -10 -48 -10 l-15 0 l0 48 l-232 0 l0 -28 ZM470 403 l89 -74 q-11 -14 -40 -18 q-13 -308 -74 -361 q-42 -33 -110 -33 q0 46 -16 61 q-16 18 -74 31 l1 15 q24 -2 56 -5 q34 -2 47 -2 q22 0 32 10 q35 30 49 298 l-132 0 q-19 -140 -69 -232 q-64 -117 -188 -182 l-10 14 q153 120 180 400 l-156 0 l-9 29 l168 0 q4 45 6 133 l124 -12 q-4 -23 -34 -26 l-4 -47 l-4 -48 l119 0 l49 49 ZM710 159 q0 -7 -24 -17 q-25 -11 -48 -11 l-17 0 l0 627 l126 -13 q-5 -23 -37 -28 l0 -558 ZM953 815 q-5 -23 -37 -28 l0 -747 q0 -58 -23 -83 q-29 -32 -112 -40 q-7 52 -25 69 q-22 22 -91 35 l0 14 q110 -8 132 -8 q24 0 24 21 l0 780 l132 -13 Z" /><glyph glyph-name="" unicode="&#x5230;" d="M355 100 q46 8 119 20 l62 11 l62 10 l3 -15 q-168 -67 -485 -167 q-9 -19 -27 -24 l-50 119 q51 4 223 31 l0 182 l-193 0 l-8 29 l201 0 l0 145 l128 -11 q-3 -22 -35 -27 l0 -107 l72 0 l54 72 q60 -50 95 -85 q-3 -16 -27 -16 l-194 0 l0 -167 ZM503 824 q62 -49 99 -84 q-4 -16 -28 -16 l-314 0 l117 -37 q-7 -18 -36 -17 q-76 -87 -197 -166 q70 4 141 8 q94 6 180 13 q-33 67 -84 118 l10 7 q92 -31 140 -82 q41 -42 43 -86 q3 -40 -23 -56 q-26 -17 -58 9 q-2 27 -18 67 q-82 -22 -149 -38 q-97 -25 -186 -45 q-10 -18 -24 -24 l-50 114 q21 3 29 8 q39 27 88 96 q42 60 66 111 l-195 0 l-7 29 l402 0 l54 71 ZM725 160 q0 -7 -23 -16 q-25 -10 -48 -10 l-16 0 l0 621 l124 -13 q-5 -23 -37 -27 l0 -555 ZM957 817 q-3 -23 -36 -28 l0 -757 q0 -56 -22 -80 q-27 -31 -107 -39 q-7 50 -24 66 q-25 23 -87 34 l0 14 q104 -7 126 -7 q23 0 23 20 l0 790 l127 -13 Z" /><glyph glyph-name="" unicode="&#x5236;" d="M528 577 q60 -47 97 -80 q-4 -16 -27 -16 l-236 0 l0 -119 l100 0 l41 49 l99 -72 q-11 -15 -42 -21 l0 -218 q0 -52 -17 -73 q-21 -28 -85 -34 q-2 46 -12 62 q-11 19 -47 26 l0 15 q45 -3 58 -3 q15 0 15 16 l0 225 l-110 0 l0 -385 q0 -10 -23 -21 q-24 -12 -48 -12 l-17 0 l0 418 l-108 0 l0 -318 q0 -7 -23 -17 q-25 -11 -50 -11 l-14 0 l0 413 l93 -39 l102 0 l0 119 l-238 0 l-8 28 l246 0 l0 132 l-120 0 q-44 -67 -93 -112 l-15 9 q54 113 83 274 l124 -35 q-7 -21 -37 -21 q-19 -44 -44 -86 l102 0 l0 168 l125 -13 q-5 -23 -37 -28 l0 -127 l89 0 l51 68 q59 -47 95 -81 q-3 -16 -27 -16 l-208 0 l0 -132 l114 0 l52 68 ZM736 156 q0 -8 -22 -17 q-23 -10 -46 -10 l-16 0 l0 635 l119 -12 q-3 -22 -35 -27 l0 -569 ZM957 813 q-5 -23 -36 -27 l0 -754 q0 -57 -21 -80 q-26 -29 -103 -37 q-3 46 -21 65 q-23 23 -82 31 l0 15 q96 -7 117 -7 q21 0 21 20 l0 787 l125 -13 Z" /><glyph glyph-name="" unicode="&#x524d;" d="M367 209 l0 131 l-159 0 l0 -131 l159 0 ZM208 490 l0 -122 l159 0 l0 122 l-159 0 ZM400 569 l99 -76 q-10 -14 -41 -20 l0 -449 q0 -53 -19 -75 q-24 -28 -94 -35 q-3 44 -16 62 q-17 23 -62 29 l0 15 q65 -5 83 -5 q17 0 17 18 l0 147 l-159 0 l0 -233 q0 -9 -23 -19 q-25 -12 -53 -12 l-14 0 l0 643 l95 -42 l144 0 l43 52 ZM661 108 q0 -7 -23 -16 q-24 -9 -48 -9 l-16 0 l0 454 l124 -13 q-4 -24 -37 -26 l0 -390 ZM784 564 l128 -12 q-5 -23 -36 -27 l0 -494 q0 -56 -22 -79 q-27 -29 -107 -36 q-5 43 -24 62 q-25 22 -88 31 l0 15 q106 -7 128 -7 q21 0 21 19 l0 528 ZM857 727 q68 -52 110 -88 q-4 -16 -28 -16 l-896 0 l-9 27 l321 0 q-13 1 -31 13 q-14 86 -99 169 l10 7 q146 -27 175 -106 q11 -30 -2 -55 q-12 -24 -37 -28 l192 0 q49 89 84 194 l139 -37 q-5 -20 -38 -20 q-61 -68 -155 -137 l204 0 l60 77 Z" /><glyph glyph-name="" unicode="&#x5267;" d="M281 221 l0 -200 l205 0 l0 200 l-205 0 ZM187 755 l0 -146 l311 0 l0 146 l-311 0 ZM538 486 q58 -47 93 -80 q-4 -16 -27 -16 l-180 0 l0 -140 l59 0 l42 48 l86 -65 q-13 -14 -38 -18 l0 -266 q0 -5 -20 -12 q-24 -8 -52 -8 l-15 0 l0 63 l-205 0 l0 -53 q0 -6 -19 -13 q-22 -9 -51 -9 l-14 0 l0 371 l95 -38 l49 0 l0 140 l-155 0 q-4 -146 -30 -247 q-35 -137 -116 -227 l-13 9 q49 109 64 272 q7 64 9 146 q1 51 1 144 l0 337 l101 -40 l286 0 l43 45 l90 -68 q-11 -13 -38 -19 l0 -191 q-1 -5 -25 -13 q-26 -9 -46 -9 l-14 0 l0 51 l-311 0 l0 -161 l154 0 l0 142 l114 -11 q-3 -20 -31 -24 l0 -107 l63 0 l51 67 ZM739 164 q0 -7 -22 -16 q-23 -10 -44 -10 l-15 0 l0 582 l117 -12 q-3 -23 -36 -28 l0 -516 ZM954 827 q-5 -23 -37 -27 l0 -770 q0 -55 -20 -78 q-26 -30 -102 -37 q-5 47 -22 64 q-24 23 -82 32 l0 15 q96 -8 117 -8 q22 0 22 20 l0 802 l124 -13 Z" /><glyph glyph-name="" unicode="&#x5269;" d="M33 353 q32 5 129 31 l0 79 l-107 0 l-9 29 l116 0 l0 80 l97 -10 q-3 -17 -27 -22 l0 -254 q0 -6 -19 -14 q-19 -8 -38 -8 l-13 0 l0 91 q-23 -19 -73 -59 q-5 -20 -20 -23 l-36 80 ZM639 469 q-10 -10 -31 1 q-16 -6 -48 -14 l-28 -8 l-13 -3 l-13 -3 l0 -80 q0 -12 13 -12 l45 0 q8 0 12 5 q9 9 22 53 l11 0 l3 -53 q25 -11 25 -29 q0 -44 -101 -44 l-37 0 q-38 0 -51 15 q-10 12 -10 47 l0 226 l96 -11 q-2 -19 -28 -24 l0 -70 q42 37 75 70 l58 -66 ZM545 694 q59 -46 96 -78 q-4 -16 -27 -16 l-236 0 l0 -346 q101 -22 159 -66 q48 -37 57 -79 q8 -37 -15 -55 q-24 -19 -59 3 q-31 89 -142 179 l0 -295 q0 -2 -5 -6 q-6 -5 -15 -9 q-22 -10 -50 -10 l-15 0 l0 252 q-116 -123 -261 -190 l-9 14 q181 125 270 358 l0 250 l-247 0 l-8 29 l255 0 l0 88 q-123 -14 -239 -17 l-3 16 q270 46 455 129 l97 -92 q-16 -15 -59 2 q-58 -12 -166 -28 l0 -98 l115 0 l52 65 ZM755 161 q0 -8 -21 -17 q-21 -9 -42 -9 l-16 0 l0 625 l113 -12 q-3 -21 -34 -26 l0 -561 ZM958 812 q-3 -23 -36 -27 l0 -754 q0 -56 -20 -79 q-26 -30 -103 -37 q-3 45 -21 64 q-23 23 -82 31 l0 15 q96 -7 117 -7 q21 0 21 20 l0 787 l124 -13 Z" /><glyph glyph-name="" unicode="&#x2f12;&#x529b;&#xf98a;" d="M912 559 q-12 -14 -44 -18 q-16 -496 -87 -570 q-48 -48 -143 -48 q0 50 -25 71 q-31 25 -123 41 l1 15 q52 -5 98 -8 q57 -4 75 -4 q27 0 41 13 q49 42 66 506 l-268 0 q-17 -224 -100 -360 q-106 -173 -351 -282 l-11 16 q194 119 279 286 q67 133 81 340 l-306 0 l-9 29 l317 0 q3 53 3 125 l0 131 l141 -14 q-3 -24 -36 -28 q-2 -145 -6 -214 l255 0 l55 57 l97 -84 Z" /><glyph glyph-name="" unicode="&#x52a0;" d="M443 679 l93 -80 q-12 -13 -42 -19 q-6 -292 -21 -420 q-17 -140 -54 -180 q-46 -49 -123 -49 q0 51 -17 69 q-20 21 -86 35 l1 16 q30 -3 63 -6 q37 -3 52 -3 q23 0 37 13 q44 43 55 541 l-116 0 q-9 -216 -54 -360 q-59 -192 -196 -320 l-15 14 q161 232 172 666 l-138 0 l-9 29 l147 0 q1 45 1 107 l0 106 l133 -13 q-5 -23 -36 -28 l-1 -42 l0 -43 l-2 -87 l103 0 l53 54 ZM819 75 l0 569 l-149 0 l0 -569 l149 0 ZM959 648 q-11 -13 -43 -21 l0 -640 q-2 -8 -29 -21 q-29 -14 -53 -14 l-15 0 l0 95 l-149 0 l0 -76 q0 -10 -23 -22 q-25 -13 -53 -13 l-16 0 l0 781 l96 -44 l134 0 l50 56 l101 -81 Z" /><glyph glyph-name="" unicode="&#x52a8;" d="M83 695 l-8 29 l241 0 l54 69 q61 -48 99 -82 q-4 -16 -27 -16 l-359 0 ZM330 350 q78 -55 114 -120 q30 -55 25 -104 q-4 -44 -32 -58 q-28 -14 -58 18 q1 30 -3 61 q-127 -52 -261 -97 q-10 -17 -25 -24 l-53 127 q25 5 32 12 q36 43 78 144 q39 94 55 165 l-164 0 l-8 29 l340 0 l53 71 q62 -49 99 -84 q-4 -16 -27 -16 l-287 0 l128 -42 q-8 -19 -34 -19 q-85 -151 -197 -265 q89 7 266 31 q-15 81 -54 166 l13 5 ZM971 578 q-13 -13 -43 -18 q-5 -289 -21 -418 q-16 -136 -52 -175 q-44 -47 -120 -47 q0 49 -16 65 q-21 22 -80 34 l1 16 q68 -8 109 -8 q22 0 35 13 q45 42 55 535 l-145 0 q-8 -247 -66 -382 q-76 -176 -272 -282 l-12 15 q148 114 206 284 q46 134 51 365 l-142 0 l-9 29 l152 0 q1 45 0 117 l0 124 l132 -13 q-5 -24 -37 -29 l-1 -51 l0 -51 q0 -65 -1 -97 l133 0 l52 53 l91 -79 Z" /><glyph glyph-name="" unicode="&#x52a9;" d="M193 132 l35 7 l38 7 q42 8 78 15 l0 162 l-151 0 l0 -191 ZM193 729 l0 -173 l151 0 l0 173 l-151 0 ZM344 527 l-151 0 l0 -175 l151 0 l0 175 ZM516 181 q-182 -83 -424 -171 q-7 -19 -26 -25 l-46 118 q21 3 87 14 l0 684 l99 -43 l128 0 l46 49 l93 -73 q-11 -15 -42 -21 l0 -535 l82 17 l3 -14 ZM966 556 q-11 -14 -41 -18 q-13 -500 -81 -572 q-45 -46 -125 -46 q0 48 -18 65 q-23 22 -94 36 l1 16 q40 -4 72 -6 q42 -4 57 -4 q24 0 38 13 q46 44 59 513 l-146 0 q-10 -234 -75 -366 q-83 -170 -291 -272 l-12 16 q160 111 225 274 q52 130 60 348 l-134 0 l-9 29 l144 0 q1 49 1 122 l0 128 l132 -13 q-3 -22 -36 -28 l-1 -54 l0 -53 q-1 -61 -3 -102 l135 0 l51 53 l91 -79 Z" /><glyph glyph-name="" unicode="&#x52aa;" d="M272 674 q-34 -82 -62 -139 q64 -9 123 -25 q46 71 70 164 l-131 0 ZM46 319 q152 45 244 139 q-82 44 -178 71 l1 1 q27 50 64 144 l-122 0 l-8 29 l141 0 q35 97 49 148 l126 -32 q-6 -21 -40 -21 q-6 -16 -17 -44 l-11 -25 l-10 -26 l113 0 l52 50 l90 -78 q-9 -11 -39 -14 q-35 -106 -93 -177 q54 -24 73 -51 q16 -24 4 -43 q-11 -19 -37 -23 q-27 -4 -52 12 q-23 23 -51 44 q-105 -85 -294 -120 l-5 16 ZM793 307 l92 -77 q-12 -13 -39 -16 q-22 -222 -88 -268 q-43 -30 -119 -30 q0 47 -20 63 q-26 23 -99 35 l0 15 q34 -3 79 -6 q47 -3 63 -3 q22 0 34 8 q35 27 53 201 l-249 0 q-27 -123 -118 -196 q-108 -85 -327 -124 l-5 13 q169 48 254 130 q73 71 92 177 l-268 0 l-9 29 l281 0 q4 33 4 77 l143 -15 q-3 -23 -37 -26 q-1 -12 -5 -36 l236 0 l52 49 ZM588 720 q35 -114 121 -188 q64 81 93 188 l-214 0 ZM944 721 q-9 -11 -38 -14 q-47 -131 -139 -217 q78 -49 210 -79 l-2 -11 q-58 -12 -78 -81 q-120 47 -194 119 q-97 -66 -237 -101 l-7 14 q122 49 207 132 q-67 91 -98 237 l-60 0 l-9 29 l300 0 l54 52 l91 -80 Z" /><glyph glyph-name="" unicode="&#x52b1;" d="M969 568 q-12 -14 -42 -18 q-5 -291 -21 -419 q-16 -129 -52 -169 q-43 -44 -114 -44 q0 46 -14 63 q-18 20 -71 32 l0 16 q28 -3 53 -5 q31 -2 44 -2 q22 0 34 13 q44 43 54 529 l-99 0 q-7 -233 -53 -366 q-60 -174 -210 -282 l-13 15 q108 114 151 282 q34 131 38 351 l-76 0 l-8 25 q-6 -9 -24 -9 l-190 0 q-2 -92 -5 -137 l82 0 l46 47 l86 -72 q-12 -12 -41 -16 q-11 -369 -74 -428 q-41 -38 -102 -38 q0 49 -13 63 q-16 19 -62 29 l0 16 q19 -2 47 -4 q27 -2 39 -2 q21 0 32 10 q40 35 51 366 l-93 0 q-13 -160 -56 -269 q-54 -135 -167 -228 l-15 14 q101 125 134 308 q13 74 18 169 q2 38 3 86 l1 86 l-85 0 l0 -67 q0 -83 -3 -138 q-4 -83 -17 -150 q-32 -176 -124 -286 l-14 8 q47 113 62 277 q6 65 9 146 q1 53 1 142 l0 287 l101 -39 l241 0 l56 70 q62 -48 101 -82 q-4 -16 -27 -16 l-386 0 l0 -123 l247 0 l51 63 q57 -43 93 -76 l-1 -3 l82 0 q1 45 0 117 l0 123 l127 -13 q-5 -23 -37 -28 l-1 -51 l0 -50 q0 -65 -1 -98 l87 0 l50 52 l90 -77 Z" /><glyph glyph-name="" unicode="&#x533a;" d="M856 79 q68 -54 108 -91 q-4 -16 -27 -16 l-735 0 l-31 -51 l-101 62 q12 14 29 26 l0 794 l108 -43 l570 0 l53 70 q59 -48 95 -83 q-4 -16 -27 -16 l-704 0 l0 -730 l604 0 l58 78 ZM810 617 q-9 -21 -43 -15 q-59 -116 -127 -203 q144 -125 150 -218 q3 -37 -20 -49 q-24 -12 -59 9 q-43 78 -136 182 q-130 -141 -307 -229 l-10 12 q141 105 263 277 q-117 123 -225 214 l13 10 q157 -76 259 -152 q68 108 112 223 l130 -61 Z" /><glyph glyph-name="" unicode="&#x2f17;&#x5341;" d="M847 558 q74 -60 117 -100 q-4 -16 -28 -16 l-388 0 l0 -486 q0 -10 -27 -23 q-28 -14 -57 -14 l-19 0 l0 523 l-399 0 l-9 29 l408 0 l0 368 l144 -14 q-3 -27 -41 -33 l0 -321 l234 0 l65 87 Z" /><glyph glyph-name="" unicode="&#x5347;" d="M862 498 q65 -52 106 -90 q-4 -16 -28 -16 l-215 0 l0 -442 q0 -10 -25 -22 q-27 -13 -53 -13 l-18 0 l0 477 l-242 0 q-8 -158 -64 -261 q-75 -138 -246 -216 l-8 11 q121 92 174 218 q43 102 49 248 l-249 0 l-8 29 l258 0 l0 266 q-114 -24 -219 -34 l-4 15 q252 67 414 167 l101 -84 q-15 -15 -57 -1 q-59 -21 -140 -41 l0 -288 l241 0 l0 414 l132 -14 q-3 -23 -36 -28 l0 -372 l77 0 l60 77 Z" /><glyph glyph-name="" unicode="&#x534a;" d="M876 756 q-9 -20 -41 -17 q-87 -124 -198 -207 l-13 10 q66 112 119 269 l133 -55 ZM156 799 q96 -39 146 -97 q41 -48 42 -96 q1 -43 -27 -60 q-30 -17 -65 12 q-13 113 -107 235 l11 6 ZM851 349 q72 -53 115 -92 q-3 -16 -27 -16 l-392 0 l0 -291 q0 -10 -26 -22 q-28 -14 -54 -14 l-20 0 l0 327 l-403 0 l-8 29 l411 0 l0 200 l-340 0 l-8 28 l348 0 l0 345 l136 -14 q-3 -23 -36 -28 l0 -303 l197 0 l60 75 q69 -51 111 -87 q-4 -16 -28 -16 l-340 0 l0 -200 l240 0 l64 79 Z" /><glyph glyph-name="" unicode="&#x5355;" d="M246 832 q90 -22 139 -66 q40 -36 44 -76 q2 -37 -23 -53 q-27 -17 -61 6 q-10 43 -43 97 q-29 47 -66 86 l10 6 ZM450 297 l0 135 l-191 0 l0 -135 l191 0 ZM259 590 l0 -129 l191 0 l0 129 l-191 0 ZM548 590 l0 -129 l188 0 l0 129 l-188 0 ZM736 297 l0 135 l-188 0 l0 -135 l188 0 ZM853 225 q70 -52 115 -90 q-4 -16 -29 -16 l-391 0 l0 -177 q0 -2 -6 -7 q-6 -5 -16 -9 q-26 -11 -58 -11 l-18 0 l0 204 l-410 0 l-9 29 l419 0 l0 120 l-191 0 l0 -22 q0 -8 -25 -20 q-28 -12 -55 -12 l-14 0 l0 448 l102 -43 l279 0 q56 82 119 225 l125 -58 q-10 -19 -40 -15 q-89 -96 -175 -152 l151 0 l47 51 l98 -75 q-10 -14 -39 -20 l0 -318 q-1 -7 -28 -18 q-30 -12 -52 -12 l-16 0 l0 41 l-188 0 l0 -120 l243 0 l62 77 Z" /><glyph glyph-name="" unicode="&#x535a;" d="M721 834 q65 -1 99 -22 q28 -18 28 -43 q0 -24 -21 -35 q-23 -11 -49 5 q-13 50 -65 87 l8 8 ZM422 164 q81 -12 123 -46 q35 -27 36 -61 q0 -31 -24 -44 q-26 -14 -57 7 q-7 34 -34 75 q-23 34 -52 62 l8 7 ZM296 622 q50 -46 79 -78 q-3 -16 -26 -16 l-115 0 l0 -577 q0 -10 -25 -22 q-26 -13 -50 -13 l-18 0 l0 612 l-104 0 l-8 29 l112 0 l0 288 l129 -14 q-3 -23 -36 -28 l0 -246 l18 0 l44 65 ZM804 396 l0 78 l-126 0 l0 -78 l126 0 ZM587 396 l0 78 l-124 0 l0 -78 l124 0 ZM463 585 l0 -82 l124 0 l0 82 l-124 0 ZM678 585 l0 -82 l126 0 l0 82 l-126 0 ZM880 276 q55 -42 88 -73 q-4 -16 -27 -16 l-157 0 l0 -165 q0 -52 -20 -73 q-26 -27 -100 -33 q-3 41 -20 56 q-25 20 -79 27 l0 15 q94 -7 112 -7 q20 0 20 18 l0 162 l-396 0 l-8 29 l404 0 l0 85 l107 -11 l0 77 l-126 0 l0 -68 q0 -7 -24 -17 q-26 -10 -49 -10 l-18 0 l0 95 l-124 0 l0 -88 q0 -7 -24 -17 q-25 -11 -50 -11 l-14 0 l0 401 l94 -38 l118 0 l0 73 l-262 0 l-8 29 l270 0 l0 128 l121 -12 q-3 -19 -30 -24 l0 -92 l168 0 l43 58 q49 -41 78 -71 q-4 -16 -25 -16 l-264 0 l0 -73 l117 0 l43 44 l89 -67 q-4 -5 -12 -10 q-10 -5 -22 -7 l0 -262 q-1 -6 -26 -15 q-28 -10 -48 -10 l-1 0 q-6 -19 -34 -23 l0 -48 l49 0 l47 60 Z" /><glyph glyph-name="" unicode="&#x5373;" d="M398 407 l0 153 l-200 0 l0 -153 l200 0 ZM398 589 l0 149 l-200 0 l0 -149 l200 0 ZM434 817 l96 -75 q-12 -14 -42 -20 l0 -379 q-1 -5 -27 -15 q-28 -10 -49 -10 l-14 0 l0 61 l-200 0 l0 -280 q32 12 88 36 l24 10 l24 10 l50 21 q-31 69 -73 129 l12 5 q96 -56 146 -127 q42 -59 44 -114 q1 -50 -26 -68 q-28 -19 -61 13 q-1 61 -31 137 l-11 -8 l-11 -9 q-16 -11 -25 -18 q-30 -23 -54 -41 q-68 -49 -127 -88 q-12 -24 -28 -32 l-59 108 q19 12 24 21 q5 8 5 26 l0 699 l102 -42 l177 0 l46 50 ZM959 741 q-13 -14 -41 -20 l0 -513 q0 -56 -20 -80 q-26 -30 -101 -38 q-3 51 -19 68 q-19 23 -75 34 l0 14 q85 -6 104 -6 q21 0 21 20 l0 516 l-167 0 l0 -788 q0 -10 -22 -22 q-24 -14 -52 -14 l-16 0 l0 896 l94 -43 l153 0 l43 51 l98 -75 Z" /><glyph glyph-name="" unicode="&#x5377;" d="M197 796 q81 -17 122 -53 q34 -30 32 -64 q-1 -32 -28 -43 q-27 -13 -58 10 q-6 33 -31 76 q-20 36 -46 68 l9 6 ZM683 436 q75 -93 296 -141 l-2 -11 q-34 -8 -50 -23 q-17 -17 -21 -51 q-102 35 -169 104 q-51 54 -78 122 l-277 0 q-29 -40 -71 -82 l72 -29 l227 0 l44 43 l85 -68 q-11 -12 -36 -15 q-4 -150 -44 -177 q-35 -23 -98 -23 q2 39 -17 55 q-25 18 -86 27 l0 16 q17 -1 32 -3 q19 -1 35 -2 q40 -3 52 -3 q19 0 26 6 q13 13 16 115 l-249 0 l0 -250 q0 -15 10 -19 q10 -5 48 -5 l157 0 q104 0 135 3 q21 1 32 15 q11 18 44 124 l11 0 l4 -128 q42 -13 42 -40 q0 -34 -52 -46 q-56 -13 -224 -13 l-158 0 q-87 0 -115 17 q-29 17 -29 72 l0 295 q-97 -83 -233 -133 l-9 11 q160 86 260 237 l-233 0 l-8 29 l260 0 q39 69 61 128 l-258 0 l-8 28 l276 0 q37 104 53 227 l140 -31 q-5 -20 -39 -21 q-24 -100 -54 -175 l114 0 q49 92 84 189 l113 -59 q-11 -18 -40 -14 q-30 -32 -58 -58 q-35 -34 -65 -58 l132 0 l50 69 q57 -48 90 -81 q-4 -16 -26 -16 l-406 0 q-29 -69 -68 -128 l409 0 l55 74 q61 -51 99 -87 q-4 -16 -27 -16 l-256 0 Z" /><glyph glyph-name="" unicode="&#x5389;" d="M843 692 q67 -51 107 -87 q-4 -16 -27 -16 l-358 0 q-13 -121 -25 -183 l217 0 l50 52 l93 -78 q-11 -13 -43 -17 q-24 -336 -100 -399 q-46 -38 -129 -38 q0 45 -22 64 q-27 22 -112 37 l1 15 l20 -2 l23 -1 q27 -3 46 -4 q54 -4 69 -4 q28 0 41 11 q49 40 72 335 l-231 0 q-36 -173 -110 -277 q-84 -117 -239 -183 l-11 14 q148 89 215 265 q51 138 70 393 l-208 0 l-8 29 l540 0 l59 74 ZM859 841 q66 -51 107 -87 q-3 -16 -28 -16 l-722 0 l0 -243 q0 -86 -4 -143 q-5 -84 -21 -153 q-38 -174 -148 -282 l-14 9 q59 112 80 275 q14 109 14 293 l0 320 l108 -47 l568 0 l60 74 Z" /><glyph glyph-name="" unicode="&#x539f;" d="M493 167 q-10 -17 -38 -12 q-106 -136 -276 -202 l-8 12 q138 102 204 260 l118 -58 ZM753 311 l0 119 l-343 0 l0 -119 l343 0 ZM410 571 l0 -112 l343 0 l0 112 l-343 0 ZM630 282 l0 -249 q0 -56 -23 -81 q-29 -32 -109 -38 q-3 46 -21 65 q-24 23 -90 32 l0 13 q104 -7 127 -7 q22 0 22 18 l0 247 l-126 0 l0 -25 q0 -8 -25 -18 q-27 -12 -53 -12 l-15 0 l0 414 l98 -41 l81 0 q13 58 21 139 l127 -31 q-7 -22 -37 -23 q-44 -55 -79 -85 l215 0 l47 51 l98 -76 q-10 -13 -42 -21 l0 -282 q-1 -6 -28 -16 q-28 -11 -50 -11 l-15 0 l0 37 l-123 0 ZM690 203 q111 -28 175 -78 q53 -42 64 -89 q9 -41 -16 -61 q-26 -21 -64 2 q-18 52 -71 116 q-44 54 -98 101 l10 9 ZM863 841 q62 -48 101 -83 q-4 -16 -28 -16 l-713 0 l0 -224 q0 -87 -4 -148 q-6 -87 -22 -159 q-40 -184 -153 -297 l-13 9 q63 118 86 289 q15 115 15 305 l0 301 l107 -47 l570 0 l54 70 Z" /><glyph glyph-name="" unicode="&#x53bb;" d="M849 488 q72 -55 117 -94 q-4 -16 -28 -16 l-489 0 l113 -49 q-9 -17 -39 -16 q-112 -133 -307 -257 q188 8 534 32 q-55 82 -137 162 l9 8 q135 -51 213 -124 q64 -60 78 -123 q13 -55 -16 -80 q-30 -25 -73 6 q-14 52 -59 126 q-222 -53 -566 -111 q-11 -16 -23 -21 l-56 125 q26 5 37 11 q65 42 150 143 q79 93 119 168 l-374 0 l-9 29 l403 0 l0 207 l-322 0 l-9 29 l331 0 l0 203 l139 -13 q-5 -23 -37 -28 l0 -162 l175 0 l62 80 q72 -55 115 -93 q-4 -16 -28 -16 l-324 0 l0 -207 l237 0 l64 81 Z" /><glyph glyph-name="" unicode="&#x53c2;" d="M121 -69 q184 29 365 102 q186 74 284 162 l92 -83 q-12 -12 -38 -1 q-114 -80 -308 -135 q-198 -56 -391 -61 l-4 16 ZM138 168 q253 104 382 265 l97 -64 q-9 -13 -36 -4 q-161 -145 -436 -211 l-7 14 ZM151 54 q321 96 490 260 l92 -72 q-10 -13 -36 -3 q-206 -148 -540 -201 l-6 16 ZM645 467 q118 -106 328 -148 l-1 -11 q-55 -9 -71 -81 q-191 79 -283 240 l-180 0 q-159 -179 -401 -252 l-8 13 q169 87 293 239 l-270 0 l-9 29 l301 0 q33 46 54 86 l-44 -6 l-46 -6 q-62 -8 -96 -13 q-10 -15 -20 -19 l-51 105 q21 3 31 7 q61 24 141 90 q70 57 109 105 l118 -53 q-8 -20 -39 -14 q-92 -69 -250 -134 q181 2 460 11 q-52 55 -108 94 l9 8 q101 -16 162 -55 q50 -32 63 -72 q12 -35 -8 -55 q-21 -20 -56 -4 q-12 27 -42 62 l-27 -5 l-29 -5 q-33 -5 -62 -10 q-74 -12 -142 -22 l68 -32 q-9 -17 -39 -12 l-18 -25 l-19 -26 l336 0 l58 72 q63 -49 103 -85 q-4 -16 -27 -16 l-288 0 Z" /><glyph glyph-name="" unicode="&#x2f1c;&#x53c8;" d="M270 699 q68 -243 238 -417 q141 181 206 417 l-444 0 ZM871 692 q-9 -13 -46 -17 q-85 -275 -252 -455 q169 -145 396 -220 l-4 -12 q-75 -2 -108 -73 q-207 92 -346 244 q-184 -166 -467 -246 l-9 14 q252 106 423 295 q-151 195 -208 477 l-152 0 l-9 28 l620 0 l61 61 l101 -96 Z" /><glyph glyph-name="" unicode="&#x53ca;" d="M372 748 q-1 -24 -2 -53 l-3 -52 q55 -291 235 -453 q107 121 158 294 l-112 0 l-33 -33 l-86 57 q13 12 35 20 q50 113 88 220 l-280 0 ZM908 481 q-8 -13 -42 -16 q-71 -197 -202 -324 q128 -89 318 -139 l-3 -11 q-74 -5 -104 -77 q-175 63 -284 167 q-159 -117 -408 -167 l-7 15 q225 70 368 201 q-134 155 -184 424 q-21 -216 -85 -358 q-78 -170 -236 -280 l-11 10 q143 152 199 375 q45 175 45 447 l-192 0 l-9 29 l578 0 l45 46 l90 -82 q-10 -12 -41 -15 q-15 -39 -42 -104 q-24 -57 -47 -109 l102 0 l59 56 l93 -88 Z" /><glyph glyph-name="" unicode="&#x53cd;" d="M374 486 q51 -173 179 -287 q107 123 161 287 l-340 0 ZM872 482 q-10 -13 -44 -16 q-76 -192 -208 -318 q137 -91 358 -135 l-1 -12 q-72 -11 -95 -86 q-211 63 -328 178 q-157 -122 -401 -179 l-8 14 q215 79 359 218 q-106 132 -150 340 l-79 0 q-1 -176 -38 -293 q-54 -174 -194 -278 l-12 9 q148 193 148 571 l0 253 l87 -33 q279 45 556 128 l82 -103 q-17 -12 -41 2 q-289 -53 -588 -51 l0 -176 l435 0 l61 60 l101 -93 Z" /><glyph glyph-name="" unicode="&#x53d1;" d="M619 815 q91 -22 139 -65 q40 -35 41 -75 q2 -35 -25 -50 q-29 -15 -62 10 q-10 41 -42 92 q-26 43 -60 81 l9 7 ZM403 395 l-6 -15 l-7 -15 q46 -113 172 -196 q89 93 139 226 l-298 0 ZM851 391 q-10 -12 -44 -15 q-64 -147 -174 -248 q137 -71 336 -113 l-2 -12 q-82 -13 -93 -84 q-192 61 -310 153 q-166 -115 -419 -158 l-7 15 q228 64 372 190 q-91 90 -133 219 q-119 -245 -337 -369 l-12 8 q233 192 326 565 l-138 0 l-40 -44 l-97 67 q20 14 40 22 q48 121 69 211 l131 -39 q-11 -23 -42 -18 q-9 -29 -27 -83 l-8 -22 l-8 -23 q-10 -29 -15 -42 l142 0 q30 132 43 278 l142 -24 q-6 -25 -39 -26 q-16 -120 -45 -228 l334 0 l59 74 q66 -50 106 -87 q-4 -16 -27 -16 l-480 0 q-16 -58 -39 -118 l284 0 l59 55 l93 -88 Z" /><glyph glyph-name="" unicode="&#x53d6;" d="M223 175 l37 8 l38 7 q48 10 80 17 l0 137 l-155 0 l0 -169 ZM223 726 l0 -160 l155 0 l0 160 l-155 0 ZM223 373 l155 0 l0 164 l-155 0 l0 -164 ZM469 -53 q0 -3 -5 -8 q-6 -6 -15 -11 q-24 -13 -55 -13 l-16 0 l0 235 l-29 -11 l-31 -11 q-39 -14 -64 -23 q-79 -29 -145 -51 q-8 -20 -25 -25 l-54 111 q36 6 103 18 l0 568 l-87 0 l-8 29 l414 0 l56 71 q62 -49 100 -84 q-4 -16 -27 -16 l-112 0 l0 -500 l122 27 l3 -15 q-69 -30 -125 -52 l0 -239 ZM582 622 q35 -205 130 -361 q73 160 104 361 l-234 0 ZM957 622 q-11 -13 -41 -17 q-47 -248 -152 -417 q91 -114 216 -183 l-3 -12 q-66 -11 -80 -72 q-107 79 -182 200 q-94 -120 -235 -201 l-12 11 q122 98 210 258 q-89 179 -119 433 l-62 0 l-9 29 l321 0 l53 56 l95 -85 Z" /><glyph glyph-name="" unicode="&#x53d8;" d="M59 705 l446 0 q-10 4 -15 7 q-10 32 -37 72 q-25 35 -53 62 l9 6 q129 -9 161 -70 q13 -24 5 -47 q-8 -21 -29 -30 l231 0 l58 73 q66 -50 105 -86 q-3 -16 -27 -16 l-261 0 l0 -298 q0 -2 -5 -5 q-6 -4 -15 -7 q-25 -10 -55 -10 l-16 0 l0 320 l-122 0 l0 -300 q0 -2 -6 -6 q-6 -3 -15 -7 q-25 -9 -55 -9 l-16 0 l0 322 l-280 0 l-8 29 ZM689 607 q109 -20 173 -66 q52 -38 63 -84 q10 -40 -15 -61 q-26 -21 -64 1 q-38 107 -166 202 l9 8 ZM335 566 q-10 -19 -41 -12 q-95 -127 -244 -194 l-12 12 q111 91 185 254 l112 -60 ZM310 297 q66 -94 185 -156 q100 72 159 156 l-344 0 ZM817 292 q-10 -12 -45 -15 q-78 -97 -195 -174 q164 -66 393 -87 l-1 -12 q-63 -15 -80 -87 q-235 41 -389 141 q-198 -106 -464 -144 l-6 15 q232 60 409 173 q-99 85 -153 195 l-116 0 l-9 29 l499 0 l65 55 l92 -89 Z" /><glyph glyph-name="" unicode="&#x53e0;" d="M48 390 q119 33 210 88 q-69 26 -142 40 l2 16 q113 1 195 -17 q29 24 51 48 l-257 0 l-9 28 l276 0 l43 38 q-118 -19 -248 -22 l-6 16 q166 21 295 63 q-107 21 -195 29 l2 17 q165 7 290 -10 q52 24 88 48 l-421 0 l-9 28 l453 0 l58 49 l85 -78 q-11 -12 -46 -12 q-50 -35 -100 -58 q100 -30 114 -73 q6 -17 -6 -27 q-12 -10 -33 -7 q-65 37 -178 69 q-61 -18 -129 -30 l76 -66 q-8 -11 -42 -12 q-36 -38 -73 -63 q68 -30 70 -69 q0 -15 -11 -23 q-13 -8 -31 -4 q-36 28 -98 56 q-66 -33 -141 -52 q4 -18 5 -26 l643 0 l19 19 q-10 -2 -20 1 q-28 27 -81 53 q-100 -45 -244 -66 l-7 16 q104 27 192 78 q-67 28 -138 42 l3 16 q116 3 194 -17 q33 27 53 49 l-268 0 l-9 28 l288 0 l51 46 l84 -71 q-11 -12 -42 -12 q-34 -38 -83 -69 q56 -34 50 -71 l9 9 l90 -86 q-8 -10 -38 -11 q-48 -52 -111 -92 l-10 7 q5 18 12 49 l6 27 l6 26 l-647 0 q1 -85 -58 -115 q-23 -12 -46 -6 q-25 6 -32 28 q-11 39 36 61 q58 21 71 81 q-54 -13 -104 -20 l-7 16 ZM340 -18 l318 0 l0 77 l-318 0 l0 -77 ZM340 258 l0 -75 l318 0 l0 75 l-318 0 ZM658 155 l-318 0 l0 -68 l318 0 l0 68 ZM861 50 q60 -47 97 -81 q-4 -16 -27 -16 l-872 0 l-9 29 l202 0 l0 343 l99 -39 l296 0 l44 54 l104 -73 q-10 -14 -45 -20 l0 -265 l59 0 l52 68 Z" /><glyph glyph-name="" unicode="&#x53e5;&#xf906;" d="M307 467 l0 -228 l201 0 l0 228 l-201 0 ZM953 647 q-13 -13 -44 -17 q-16 -580 -92 -662 q-51 -55 -148 -54 q0 51 -25 69 q-31 25 -130 43 l1 15 l24 -2 l26 -2 q32 -3 53 -4 q60 -5 79 -5 q28 0 44 15 q55 49 73 602 l-505 0 q-38 -59 -85 -113 l88 -36 l187 0 l45 50 l99 -74 q-11 -15 -41 -21 l0 -294 q-1 -6 -28 -15 q-29 -10 -50 -10 l-16 0 l0 79 l-201 0 l0 -93 q0 -8 -24 -18 q-27 -12 -54 -12 l-13 0 l0 435 q-78 -86 -170 -143 l-12 9 q169 184 249 462 l141 -54 q-9 -19 -41 -16 q-22 -49 -56 -107 l476 0 l55 57 l95 -84 Z" /><glyph glyph-name="" unicode="&#x53e6;" d="M287 755 l0 -239 l425 0 l0 239 l-425 0 ZM287 438 q0 -7 -21 -15 q-25 -10 -58 -10 l-17 0 l0 413 l107 -43 l410 0 l48 55 l94 -71 q-11 -14 -38 -18 l0 -295 q0 -2 -6 -6 q-6 -4 -16 -8 q-27 -10 -61 -10 l-17 0 l0 58 l-425 0 l0 -50 ZM905 301 q-10 -13 -41 -17 q-27 -277 -104 -336 q-48 -35 -128 -35 q0 48 -21 64 q-26 23 -106 37 l0 15 l19 -2 l22 -1 q26 -3 44 -4 q52 -4 67 -4 q24 0 40 11 q46 34 71 270 l-259 0 q-39 -142 -137 -231 q-113 -103 -321 -154 l-8 12 q301 113 365 373 l-337 0 l-9 29 l352 0 q13 65 15 151 l141 -18 q-4 -24 -37 -27 q-7 -64 -17 -106 l244 0 l51 50 l94 -77 Z" /><glyph glyph-name="" unicode="&#x53ea;" d="M273 721 l0 -365 l460 0 l0 365 l-460 0 ZM273 282 q0 -9 -26 -20 q-29 -13 -57 -13 l-16 0 l0 545 l106 -44 l443 0 l49 54 l102 -79 q-12 -14 -42 -21 l0 -413 q-1 -6 -29 -17 q-31 -11 -54 -11 l-16 0 l0 65 l-460 0 l0 -46 ZM25 -74 q203 133 315 327 l124 -65 q-11 -16 -39 -11 q-152 -174 -391 -263 l-9 12 ZM598 237 q143 -42 231 -107 q73 -54 95 -113 q20 -51 -4 -79 q-24 -27 -68 -4 q-32 71 -112 158 q-72 77 -152 136 l10 9 Z" /><glyph glyph-name="" unicode="&#x53eb;" d="M305 241 l0 460 l-137 0 l0 -460 l137 0 ZM342 781 l97 -76 q-10 -14 -42 -20 l0 -532 q-1 -7 -27 -18 q-28 -12 -51 -12 l-14 0 l0 89 l-137 0 l0 -116 q0 -9 -23 -20 q-25 -12 -52 -12 l-14 0 l0 706 l93 -40 l123 0 l47 51 ZM913 826 q-3 -24 -36 -29 l0 -850 q0 -8 -25 -19 q-26 -12 -51 -12 l-19 0 l0 374 l-22 -15 l-23 -15 q-30 -20 -52 -34 q-65 -42 -121 -75 q-9 -18 -22 -26 l-67 100 q30 21 30 47 l0 490 l125 -14 q-3 -19 -30 -24 l0 -464 q31 10 86 29 l47 16 l49 16 l0 518 l131 -13 Z" /><glyph glyph-name="" unicode="&#x53ef;" d="M445 266 l0 267 l-204 0 l0 -267 l204 0 ZM537 183 q-1 -6 -27 -16 q-28 -10 -50 -10 l-15 0 l0 80 l-204 0 l0 -90 q0 -8 -23 -18 q-26 -12 -53 -12 l-14 0 l0 486 l95 -41 l189 0 l46 51 l98 -75 q-14 -16 -42 -21 l0 -334 ZM853 839 q71 -53 114 -90 q-4 -16 -28 -16 l-127 0 l0 -689 q0 -59 -26 -87 q-34 -35 -127 -42 q-3 48 -32 70 q-34 23 -122 36 l0 14 q153 -10 183 -10 q28 0 28 24 l0 684 l-673 0 l-9 29 l756 0 l63 77 Z" /><glyph glyph-name="" unicode="&#x53f0;" d="M711 35 l0 263 l-417 0 l0 -263 l417 0 ZM750 383 l105 -82 q-12 -16 -45 -23 l0 -327 q-1 -5 -29 -14 q-31 -10 -54 -10 l-16 0 l0 79 l-417 0 l0 -55 q0 -8 -27 -20 q-29 -12 -57 -12 l-15 0 l0 452 l105 -44 l400 0 l50 56 ZM630 696 q129 -42 207 -107 q63 -53 81 -111 q15 -50 -10 -75 q-25 -26 -65 -1 q-14 44 -55 105 q-272 -48 -633 -91 q-12 -15 -25 -19 l-38 112 q24 5 34 11 q78 45 178 151 q93 99 135 175 l135 -58 q-4 -9 -14 -13 q-11 -5 -27 -2 q-127 -138 -347 -265 q182 3 585 22 q-61 83 -151 157 l10 9 Z" /><glyph glyph-name="" unicode="&#x53f3;" d="M365 327 l0 -293 l382 0 l0 293 l-382 0 ZM852 693 q72 -53 114 -91 q-4 -16 -28 -16 l-515 0 q-49 -114 -114 -204 l68 -26 l366 0 l48 55 l95 -72 q-11 -14 -39 -19 l0 -373 q0 -6 -23 -14 q-27 -10 -60 -10 l-17 0 l0 82 l-382 0 l0 -65 q0 -7 -21 -15 q-25 -9 -58 -9 l-17 0 l0 415 q-98 -117 -227 -190 l-11 11 q191 153 291 434 l-279 0 l-8 29 l297 0 q38 115 57 230 l143 -35 q-6 -20 -40 -21 q-24 -89 -57 -174 l355 0 l62 78 Z" /><glyph glyph-name="" unicode="&#x53f6;" d="M289 264 l0 407 l-125 0 l0 -407 l125 0 ZM880 556 q64 -53 103 -90 q-4 -16 -28 -16 l-253 0 l0 -498 q0 -10 -26 -22 q-27 -13 -53 -13 l-19 0 l0 533 l-219 0 l0 -288 q-2 -6 -29 -17 q-29 -11 -52 -11 l-15 0 l0 101 l-125 0 l0 -112 q0 -9 -24 -21 q-27 -13 -56 -13 l-14 0 l0 654 l99 -43 l110 0 l48 53 l99 -78 q-11 -15 -41 -21 l0 -175 l219 0 l0 349 l134 -14 q-3 -24 -36 -29 l0 -306 l121 0 l57 77 Z" /><glyph glyph-name="" unicode="&#x53f7;" d="M306 758 l0 -196 l393 0 l0 196 l-393 0 ZM306 492 q0 -8 -26 -18 q-29 -12 -56 -12 l-13 0 l0 367 l101 -42 l377 0 l47 52 l100 -77 q-11 -15 -41 -21 l0 -236 q-2 -5 -29 -14 q-30 -10 -52 -10 l-15 0 l0 52 l-393 0 l0 -41 ZM865 490 q63 -50 102 -86 q-4 -16 -28 -16 l-553 0 q-11 -26 -29 -67 q-14 -31 -31 -70 l398 0 l50 48 l91 -76 q-10 -13 -41 -16 q-32 -210 -108 -261 q-50 -31 -131 -30 q2 44 -23 61 q-28 23 -120 38 l1 14 q42 -4 100 -7 q57 -4 75 -4 q28 0 41 9 q44 31 71 195 l-410 0 l-40 -44 l-94 66 q20 15 45 22 q32 69 49 122 l-231 0 l-9 29 l769 0 l56 73 Z" /><glyph glyph-name="" unicode="&#x53f9;" d="M274 221 l0 455 l-118 0 l0 -455 l118 0 ZM363 149 q-1 -6 -26 -17 q-28 -11 -49 -11 l-14 0 l0 71 l-118 0 l0 -92 q0 -9 -22 -20 q-23 -12 -49 -12 l-14 0 l0 677 l90 -40 l103 0 l45 51 l95 -75 q-11 -15 -41 -21 l0 -511 ZM520 694 q29 -264 139 -435 q95 168 128 435 l-267 0 ZM929 692 q-9 -13 -41 -17 q-47 -317 -175 -489 q99 -118 255 -190 l-4 -10 q-71 -2 -102 -68 q-130 81 -207 201 q-130 -135 -347 -206 l-10 13 q200 94 317 261 q-94 189 -116 507 l-85 0 l-9 29 l381 0 l55 58 l88 -89 Z" /><glyph glyph-name="" unicode="&#x5404;" d="M722 322 q-106 44 -191 108 q-117 -78 -261 -128 l73 -30 l335 0 l44 50 ZM688 24 l0 219 l-352 0 l0 -219 l352 0 ZM385 690 l-12 -14 l-13 -14 q55 -78 153 -141 q87 78 143 169 l-271 0 ZM825 683 q-11 -13 -46 -14 q-74 -108 -185 -194 q168 -83 389 -116 l-1 -11 q-64 -14 -82 -86 q-95 26 -162 53 l88 -68 q-11 -15 -41 -21 l0 -278 q-1 -6 -29 -15 q-30 -9 -53 -9 l-15 0 l0 71 l-352 0 l0 -49 q0 -8 -26 -18 q-29 -12 -57 -12 l-14 0 l0 375 q-104 -34 -206 -52 l-7 14 q260 84 442 230 q-78 75 -123 162 q-131 -138 -270 -206 l-8 11 q89 68 173 181 q83 111 126 219 l139 -37 q-8 -15 -39 -13 q-25 -40 -57 -81 l251 0 l67 59 l98 -95 Z" /><glyph glyph-name="" unicode="&#x5408;" d="M699 24 l0 235 l-395 0 l0 -235 l395 0 ZM738 343 l104 -80 q-13 -15 -43 -22 l0 -291 q-1 -6 -30 -15 q-30 -10 -53 -10 l-17 0 l0 70 l-395 0 l0 -48 q0 -8 -27 -19 q-30 -12 -58 -12 l-14 0 l0 416 l105 -44 l379 0 l49 55 ZM636 543 q65 -50 105 -87 q-4 -16 -27 -16 l-440 0 l-8 29 l312 0 l58 74 ZM591 811 q-6 -17 -46 -20 q117 -161 427 -265 l-1 -15 q-62 -16 -78 -84 q-269 131 -365 352 q-70 -112 -207 -221 q-137 -108 -284 -170 l-7 14 q131 76 252 207 q123 133 158 240 l151 -38 Z" /><glyph glyph-name="" unicode="&#x540c;" d="M656 674 q63 -46 101 -80 q-4 -16 -27 -16 l-469 0 l-8 29 l350 0 l53 67 ZM591 234 l0 192 l-191 0 l0 -192 l191 0 ZM682 144 q-1 -7 -27 -17 q-27 -11 -49 -11 l-15 0 l0 90 l-191 0 l0 -84 q0 -7 -24 -17 q-26 -11 -51 -11 l-14 0 l0 400 l94 -39 l177 0 l44 46 l93 -70 q-10 -13 -37 -18 l0 -269 ZM939 739 q-14 -16 -42 -21 l0 -687 q0 -55 -24 -79 q-31 -30 -120 -38 q-7 45 -29 62 q-37 24 -109 33 l0 15 q133 -9 161 -9 q27 0 27 25 l0 695 l-608 0 l0 -785 q0 -10 -23 -22 q-25 -13 -54 -13 l-16 0 l0 892 l101 -43 l590 0 l46 53 l100 -78 Z" /><glyph glyph-name="" unicode="&#x540d;" d="M782 28 l0 249 l-371 0 l0 -249 l371 0 ZM925 281 q-13 -16 -44 -22 l0 -307 q-1 -6 -29 -17 q-31 -12 -54 -12 l-16 0 l0 76 l-371 0 l0 -55 q0 -3 -6 -8 q-6 -5 -16 -10 q-26 -12 -58 -12 l-18 0 l0 334 q-130 -55 -273 -87 l-8 15 q223 79 399 211 q180 135 273 297 l-293 0 q-29 -36 -70 -80 q78 -25 116 -66 q33 -35 30 -71 q-3 -32 -29 -44 q-29 -12 -60 11 q-12 68 -78 149 q-123 -126 -262 -200 l-10 11 q100 77 197 206 q94 126 145 247 l139 -41 q-8 -17 -39 -13 q-33 -50 -56 -80 l272 0 l66 58 l97 -94 q-11 -14 -47 -15 q-140 -219 -392 -356 l341 0 l50 55 l104 -80 Z" /><glyph glyph-name="" unicode="&#x540e;" d="M756 32 l0 272 l-346 0 l0 -272 l346 0 ZM797 385 l92 -70 q-9 -13 -38 -18 l0 -351 q0 -2 -6 -6 q-6 -4 -16 -7 q-26 -10 -57 -10 l-16 0 l0 80 l-346 0 l0 -65 q0 -7 -20 -15 q-24 -9 -55 -9 l-16 0 l0 459 l102 -40 l331 0 l45 52 ZM856 609 q68 -52 110 -89 q-4 -16 -28 -16 l-685 0 l0 -35 q0 -172 -32 -282 q-49 -164 -178 -261 l-12 10 q127 176 127 535 l0 282 l119 -39 l-1 -1 q299 53 494 132 l101 -96 q-17 -15 -61 1 q-256 -51 -557 -65 l0 -152 l542 0 l61 76 Z" /><glyph glyph-name="" unicode="&#x5411;" d="M597 236 l0 213 l-196 0 l0 -213 l196 0 ZM686 152 q-1 -6 -27 -16 q-27 -11 -48 -11 l-14 0 l0 83 l-196 0 l0 -82 q0 -8 -23 -18 q-25 -11 -50 -11 l-14 0 l0 419 l91 -38 l182 0 l45 48 l96 -72 q-12 -13 -42 -21 l0 -281 ZM950 630 q-11 -15 -41 -21 l0 -572 q0 -58 -23 -82 q-30 -31 -116 -39 q-7 48 -28 67 q-29 25 -100 35 l0 15 q120 -9 147 -9 q25 0 25 23 l0 579 l-623 0 l0 -676 q0 -9 -24 -21 q-26 -13 -54 -13 l-17 0 l0 782 l103 -44 l177 0 q35 92 58 188 l147 -36 q-8 -20 -38 -20 l-12 -15 l-14 -16 q-16 -18 -29 -33 q-35 -40 -65 -68 l381 0 l46 53 l100 -77 Z" /><glyph glyph-name="" unicode="&#x5426;" d="M710 27 l0 237 l-419 0 l0 -237 l419 0 ZM747 347 l103 -79 q-12 -16 -45 -23 l0 -300 q-1 -5 -29 -14 q-29 -9 -51 -9 l-15 0 l0 76 l-419 0 l0 -52 q0 -8 -25 -18 q-27 -11 -54 -11 l-14 0 l0 418 l100 -42 l401 0 l48 54 ZM605 609 q209 -36 300 -123 q26 -25 33 -54 q6 -26 -5 -44 q-11 -19 -32 -19 q-23 0 -48 24 q-84 131 -252 204 l4 12 ZM836 842 q69 -50 111 -85 q-4 -16 -27 -16 l-311 0 q-34 -49 -72 -88 l38 -14 q-6 -14 -31 -18 l0 -266 q-1 -7 -25 -18 q-27 -12 -53 -12 l-18 0 l0 244 q-176 -148 -415 -236 l-8 12 q314 166 447 396 l-409 0 l-9 29 l722 0 l60 72 Z" /><glyph glyph-name="" unicode="&#x542f;" d="M263 689 l0 -187 l516 0 l0 187 l-516 0 ZM263 473 q-4 -168 -41 -287 q-53 -166 -177 -270 l-11 9 q80 120 112 292 q22 122 22 303 l0 241 l111 -43 l256 0 l-7 3 l-7 4 q-10 30 -35 66 q-21 30 -46 56 l8 7 q120 -9 150 -65 q12 -21 5 -42 q-7 -20 -26 -29 l192 0 l47 51 l98 -75 q-10 -14 -39 -20 l0 -223 q-1 -6 -28 -17 q-30 -11 -52 -11 l-16 0 l0 50 l-516 0 ZM773 30 l0 264 l-366 0 l0 -264 l366 0 ZM812 375 l100 -77 q-11 -13 -36 -19 l0 -329 q-1 -5 -30 -15 q-32 -11 -55 -11 l-18 0 l0 77 l-366 0 l0 -50 q0 -8 -27 -19 q-29 -13 -57 -13 l-15 0 l0 447 l105 -43 l351 0 l48 52 Z" /><glyph glyph-name="" unicode="&#x5473;" d="M157 668 l0 -396 l110 0 l0 396 l-110 0 ZM157 243 l0 -118 q0 -9 -23 -20 q-25 -12 -52 -12 l-14 0 l0 645 l94 -41 l95 0 l46 51 l95 -75 q-13 -15 -41 -21 l0 -471 q-1 -7 -26 -18 q-28 -12 -50 -12 l-14 0 l0 92 l-110 0 ZM700 388 q44 -99 122 -181 q75 -80 160 -122 l-2 -11 q-58 -9 -80 -82 q-151 124 -217 384 l0 -430 q0 -7 -25 -17 q-27 -11 -53 -11 l-20 0 l0 323 q-124 -174 -356 -272 l-10 14 q235 142 330 405 l-172 0 l-8 29 l216 0 l0 183 l-190 0 l-8 29 l198 0 l0 204 l134 -14 q-3 -23 -36 -28 l0 -162 l94 0 l57 76 q66 -54 104 -89 q-4 -16 -27 -16 l-228 0 l0 -183 l124 0 l58 78 q64 -54 104 -91 q-4 -16 -28 -16 l-241 0 Z" /><glyph glyph-name="" unicode="&#x547d;" d="M364 132 l0 237 l-138 0 l0 -237 l138 0 ZM398 444 l91 -70 q-5 -5 -14 -10 q-10 -5 -22 -7 l0 -308 q-1 -6 -26 -15 q-28 -10 -48 -10 l-15 0 l0 79 l-138 0 l0 -86 q0 -7 -22 -17 q-25 -12 -50 -12 l-13 0 l0 448 l90 -38 l125 0 l42 46 ZM608 606 q61 -45 99 -79 q-4 -16 -27 -16 l-392 0 l-8 29 l273 0 l55 66 ZM807 451 l99 -73 q-11 -13 -39 -19 l0 -242 q0 -53 -19 -74 q-25 -28 -96 -34 q-2 44 -15 63 q-19 19 -65 27 l0 15 q68 -5 86 -5 q18 0 18 18 l0 247 l-153 0 l0 -425 q0 -8 -23 -18 q-26 -12 -52 -12 l-14 0 l0 523 l94 -39 l138 0 l41 48 ZM590 814 q-4 -17 -45 -21 q126 -146 431 -224 l0 -16 q-30 -8 -52 -34 q-19 -24 -25 -53 q-266 107 -372 316 q-70 -101 -209 -198 q-139 -97 -288 -149 l-6 13 q133 68 255 186 q123 120 159 217 l152 -37 Z" /><glyph glyph-name="" unicode="&#x548c;" d="M427 591 q60 -50 95 -85 q-3 -16 -27 -16 l-170 0 l0 -65 q83 -29 127 -71 q36 -36 38 -72 q1 -32 -23 -45 q-24 -12 -53 10 q-8 34 -35 78 q-22 35 -54 75 l0 -456 q0 -3 -6 -7 q-6 -6 -16 -10 q-25 -12 -55 -12 l-16 0 l0 396 q-75 -135 -192 -233 l-12 12 q117 150 176 400 l-157 0 l-8 29 l193 0 l0 185 q-95 -16 -192 -24 l-4 15 q91 24 201 69 q102 41 166 78 l104 -94 q-17 -15 -59 0 q-40 -12 -123 -28 l0 -201 l49 0 l53 72 ZM805 125 l0 530 l-179 0 l0 -530 l179 0 ZM944 658 q-9 -14 -44 -22 l0 -618 q-2 -5 -29 -15 q-29 -10 -51 -10 l-15 0 l0 103 l-179 0 l0 -87 q0 -9 -23 -21 q-26 -13 -54 -13 l-16 0 l0 751 l98 -42 l164 0 l48 53 l101 -79 Z" /><glyph glyph-name="" unicode="&#x54cd;" d="M238 258 l0 437 l-94 0 l0 -437 l94 0 ZM270 767 l83 -66 q-4 -5 -13 -10 q-10 -5 -22 -7 l0 -515 q-1 -7 -24 -16 q-24 -10 -44 -10 l-12 0 l0 86 l-94 0 l0 -108 q0 -8 -19 -17 q-21 -11 -45 -11 l-12 0 l0 668 l81 -37 l80 0 l41 43 ZM695 256 l0 222 l-87 0 l0 -222 l87 0 ZM765 184 q-1 -6 -21 -14 q-22 -8 -38 -8 l-11 0 l0 65 l-87 0 l0 -68 q0 -5 -17 -13 q-18 -8 -37 -8 l-11 0 l0 399 l70 -31 l75 0 l34 36 l72 -55 q-9 -11 -29 -15 l0 -288 ZM967 636 q-12 -14 -39 -20 l0 -585 q0 -57 -20 -80 q-26 -30 -104 -37 q-5 50 -20 66 q-18 22 -77 32 l0 15 q88 -6 107 -6 q22 0 22 20 l0 589 l-362 0 l0 -681 q0 -9 -22 -21 q-25 -12 -52 -12 l-16 0 l0 784 l96 -42 l86 0 q18 87 31 186 l150 -26 q-6 -24 -40 -26 q-23 -32 -49 -65 q-30 -41 -53 -69 l221 0 l44 51 l97 -73 Z" /><glyph glyph-name="" unicode="&#x54ea;" d="M229 238 l0 477 l-87 0 l0 -477 l87 0 ZM303 153 q-1 -6 -22 -16 q-23 -11 -41 -11 l-11 0 l0 83 l-87 0 l0 -104 q0 -8 -18 -17 q-21 -11 -44 -11 l-12 0 l0 704 l79 -37 l72 0 l40 46 l87 -69 q-12 -14 -43 -20 l0 -548 ZM543 297 q2 116 2 210 l-66 0 q0 -118 -14 -210 l78 0 ZM479 536 l66 0 l0 204 l-66 0 l0 -204 ZM580 822 l87 -76 q-12 -14 -43 -19 q0 -425 -6 -553 q-8 -164 -36 -206 q-38 -52 -109 -52 q0 48 -13 61 q-14 17 -71 31 l1 16 q62 -6 92 -6 q20 0 32 13 q25 27 29 237 l-83 0 q-45 -226 -204 -352 l-14 10 q111 136 144 342 l-53 0 l-9 29 l66 0 q12 85 12 210 l-62 0 l-9 29 l71 0 l0 204 l-66 0 l-9 29 l207 0 l46 53 ZM983 731 q-10 -12 -43 -13 q-25 -63 -53 -127 q-37 -83 -63 -129 q135 -114 135 -260 q0 -81 -28 -116 q-30 -38 -103 -41 q0 21 -3 38 q-3 21 -9 29 q-10 12 -44 19 l0 15 l65 0 q13 0 20 5 q21 18 21 70 q0 133 -79 238 q30 128 52 281 l-81 0 l0 -797 q0 -3 -5 -7 q-5 -5 -13 -10 q-21 -11 -48 -11 l-14 0 l0 890 l86 -36 l68 0 l49 48 l90 -86 Z" /><glyph glyph-name="" unicode="&#x5584;" d="M716 6 l0 154 l-430 0 l0 -154 l430 0 ZM751 237 l97 -72 q-10 -14 -39 -20 l0 -199 q-1 -5 -28 -14 q-29 -9 -49 -9 l-16 0 l0 54 l-430 0 l0 -34 q0 -6 -24 -16 q-27 -10 -51 -10 l-13 0 l0 310 l94 -38 l414 0 l45 48 ZM255 429 q87 -22 101 -70 q5 -19 -4 -36 q-9 -16 -26 -23 l126 0 l0 129 l-197 0 ZM545 429 l0 -129 l85 0 q24 61 45 129 l-130 0 ZM865 367 q60 -46 98 -80 q-4 -16 -27 -16 l-891 0 l-8 29 l251 0 q-12 5 -23 14 q3 62 -43 114 l2 1 l-143 0 l-8 28 l379 0 l0 96 l-284 0 l-8 29 l292 0 l0 95 l-333 0 l-9 29 l223 0 q-7 4 -13 8 q-3 31 -21 66 q-15 31 -37 56 l9 6 q106 -14 131 -67 q10 -20 3 -41 q-6 -19 -23 -28 l191 0 q14 28 29 69 q13 34 24 70 l128 -33 q-7 -20 -38 -20 q-47 -43 -114 -86 l150 0 l51 64 q59 -44 96 -77 q-4 -16 -27 -16 l-327 0 l0 -95 l168 0 l51 63 q58 -43 94 -76 q-4 -16 -27 -16 l-286 0 l0 -96 l242 0 l54 66 q60 -45 96 -78 q-4 -16 -26 -16 l-220 0 l105 -29 q-7 -20 -37 -20 q-49 -45 -98 -80 l151 0 l53 67 Z" /><glyph glyph-name="" unicode="&#x5668;&#xfa38;" d="M637 747 l0 -162 l150 0 l0 162 l-150 0 ZM637 540 q0 -2 -1 -3 q55 -9 82 -33 q22 -21 20 -45 q-3 -23 -23 -32 q-22 -10 -47 5 q-12 44 -61 89 q-23 -9 -45 -9 l-12 0 l0 302 l92 -38 l135 0 l45 50 l96 -74 q-13 -15 -42 -21 l0 -201 q-1 -5 -27 -14 q-27 -10 -47 -10 l-15 0 l0 51 l-150 0 l0 -17 ZM769 15 l0 186 l-142 0 l0 -186 l142 0 ZM234 201 l0 -186 l135 0 l0 186 l-135 0 ZM364 585 l0 162 l-141 0 l0 -162 l141 0 ZM610 393 q123 -90 368 -112 l-2 -11 q-35 -18 -43 -92 l-26 8 l-25 7 q-13 -6 -25 -8 l0 -231 q-1 -5 -26 -14 q-28 -10 -48 -10 l-14 0 l0 56 l-142 0 l0 -41 q0 -7 -24 -16 q-26 -11 -51 -11 l-13 0 l0 351 l92 -39 l128 0 l8 9 q-111 58 -184 154 l-145 0 q-88 -93 -221 -154 l22 -9 l120 0 l44 47 l92 -71 q-11 -13 -39 -19 l0 -225 q-1 -7 -26 -16 q-26 -11 -47 -11 l-14 0 l0 51 l-135 0 l0 -47 q0 -7 -23 -16 q-26 -11 -50 -11 l-13 0 l0 298 q-61 -22 -114 -35 l-7 12 q185 72 302 206 l-283 0 l-9 29 l316 0 q40 53 66 107 q-12 -4 -20 -5 q-12 -3 -20 -3 l-15 0 l0 36 l-141 0 l0 -50 q0 -7 -23 -16 q-26 -10 -51 -10 l-12 0 l0 334 l90 -39 l127 0 l44 48 l93 -71 q-10 -14 -39 -20 l0 -185 q0 -2 -10 -9 l105 -37 q-6 -18 -38 -15 q-21 -35 -45 -65 l343 0 l56 68 q64 -47 102 -81 q-4 -16 -27 -16 l-328 0 Z" /><glyph glyph-name="" unicode="&#x566a;" d="M537 762 l0 -111 l203 0 l0 111 l-203 0 ZM537 603 q0 -5 -22 -15 q-25 -10 -47 -10 l-12 0 l0 248 l86 -36 l188 0 l42 46 l93 -69 q-13 -13 -41 -19 l0 -136 q-1 -5 -25 -13 q-26 -9 -45 -9 l-14 0 l0 33 l-203 0 l0 -20 ZM229 281 l0 417 l-82 0 l0 -417 l82 0 ZM229 165 l0 87 l-82 0 l0 -111 q0 -8 -20 -18 q-22 -11 -46 -11 l-12 0 l0 652 l82 -37 l68 0 l41 44 l85 -67 q-10 -12 -37 -18 l0 -496 q-1 -6 -24 -15 q-24 -10 -43 -10 l-12 0 ZM742 511 l0 -119 l108 0 l0 119 l-108 0 ZM526 392 l0 119 l-101 0 l0 -119 l101 0 ZM695 202 q100 -114 285 -162 l-1 -11 q-56 -12 -73 -87 q-157 82 -233 252 l0 -255 q0 -7 -23 -15 q-25 -9 -49 -9 l-16 0 l0 220 q-119 -127 -343 -196 l-8 15 q195 91 291 248 l-191 0 l-8 28 l259 0 l0 96 q-26 -12 -46 -12 l-13 0 l0 49 l-101 0 l0 -39 q0 -6 -21 -15 q-23 -9 -44 -9 l-10 0 l0 274 l80 -34 l87 0 l39 43 l86 -66 q-9 -13 -38 -19 l0 -157 q0 -3 -13 -12 l77 -7 l0 252 l79 -34 l94 0 l40 43 l86 -66 q-11 -13 -39 -19 l0 -157 q-1 -6 -23 -15 q-24 -9 -42 -9 l-13 0 l0 46 l-108 0 l0 -31 q0 -5 -13 -12 q-15 -7 -32 -10 q-7 -10 -24 -13 l0 -67 l146 0 l54 66 q61 -45 98 -79 q-3 -15 -27 -15 l-249 0 Z" /><glyph glyph-name="" unicode="&#x56db;" d="M808 87 l0 169 q-31 -7 -100 -7 l-65 0 q-52 0 -69 17 q-15 15 -15 60 l0 392 l-118 0 q-5 -218 -36 -314 q-46 -142 -184 -224 l-13 15 q96 88 124 227 q18 86 19 296 l-162 0 l0 -631 l619 0 ZM643 718 l0 -368 q0 -20 25 -20 l50 0 q10 0 27 1 l20 0 q4 1 10 1 l9 0 q9 1 22 5 l2 0 l0 381 l-165 0 ZM944 723 q-13 -15 -43 -21 l0 -732 q-1 -7 -27 -18 q-29 -13 -52 -13 l-14 0 l0 119 l-619 0 l0 -103 q0 -10 -23 -22 q-26 -13 -53 -13 l-17 0 l0 871 l101 -44 l601 0 l48 55 l98 -79 Z" /><glyph glyph-name="" unicode="&#x56de;" d="M601 277 l0 266 l-196 0 l0 -266 l196 0 ZM729 548 q-13 -13 -40 -19 l0 -325 q-1 -5 -26 -16 q-28 -11 -48 -11 l-14 0 l0 71 l-196 0 l0 -57 q0 -7 -22 -17 q-25 -11 -50 -11 l-13 0 l0 448 l89 -39 l182 0 l45 48 l93 -72 ZM800 49 l0 687 l-605 0 l0 -687 l605 0 ZM937 740 q-12 -13 -42 -21 l0 -755 q-2 -7 -28 -19 q-30 -13 -53 -13 l-14 0 l0 88 l-605 0 l0 -60 q0 -10 -23 -22 q-26 -14 -54 -14 l-16 0 l0 885 l102 -44 l586 0 l48 55 l99 -80 Z" /><glyph glyph-name="" unicode="&#x56e0;" d="M675 570 q60 -48 95 -82 q-4 -16 -27 -16 l-218 0 q-4 -44 -8 -65 q104 -61 163 -131 q48 -59 57 -111 q8 -47 -16 -65 q-24 -18 -58 9 q-15 56 -62 135 q-36 61 -90 134 q-23 -104 -80 -176 q-65 -82 -187 -137 l-12 13 q105 74 152 176 q40 86 50 218 l-187 0 l-8 29 l197 0 q2 37 2 96 l1 50 l0 52 l128 -12 q-3 -22 -34 -26 q-2 -108 -5 -160 l95 0 l52 69 ZM807 22 l0 726 l-618 0 l0 -726 l618 0 ZM945 752 q-10 -13 -43 -21 l0 -777 q-1 -7 -28 -19 q-29 -13 -52 -13 l-15 0 l0 71 l-618 0 l0 -41 q0 -10 -23 -22 q-26 -14 -54 -14 l-16 0 l0 906 l102 -45 l599 0 l49 55 l99 -80 Z" /><glyph glyph-name="" unicode="&#x56f4;" d="M774 328 q-9 -11 -36 -16 q-3 -84 -12 -120 q-9 -40 -32 -55 q-28 -21 -86 -21 q0 34 -13 47 q-11 14 -50 22 l0 15 q7 0 18 -1 l20 -1 q24 -2 33 -2 q16 0 23 6 q15 14 18 121 l-146 0 l0 -233 q0 -7 -23 -17 q-25 -10 -48 -10 l-17 0 l0 260 l-193 0 l-9 29 l202 0 l0 104 l-157 0 l-8 29 l165 0 l0 105 l-192 0 l-8 29 l200 0 l0 106 l125 -12 q-3 -24 -37 -27 l0 -67 l116 0 l47 60 q53 -43 86 -73 q-4 -16 -26 -16 l-223 0 l0 -105 l96 0 l48 60 q54 -41 86 -73 q-4 -16 -26 -16 l-204 0 l0 -104 l137 0 l43 42 l83 -66 ZM806 22 l0 726 l-620 0 l0 -726 l620 0 ZM944 753 q-12 -15 -43 -21 l0 -776 q-1 -7 -28 -19 q-29 -13 -52 -13 l-15 0 l0 69 l-620 0 l0 -40 q0 -11 -23 -23 q-26 -13 -54 -13 l-17 0 l0 905 l102 -45 l602 0 l49 55 l99 -79 Z" /><glyph glyph-name="" unicode="&#x56fa;" d="M386 355 l0 -177 l221 0 l0 177 l-221 0 ZM685 628 q59 -49 95 -82 q-4 -16 -27 -16 l-213 0 l0 -147 l57 0 l43 45 l89 -68 q-4 -5 -14 -10 q-10 -5 -23 -7 l0 -231 q-1 -6 -26 -15 q-26 -9 -45 -9 l-14 0 l0 61 l-221 0 l0 -44 q0 -7 -22 -16 q-25 -11 -49 -11 l-13 0 l0 343 l89 -38 l61 0 l0 147 l-213 0 l-8 29 l221 0 l0 152 l123 -12 q-3 -21 -35 -26 l0 -114 l95 0 l50 69 ZM812 18 l0 727 l-627 0 l0 -727 l627 0 ZM947 749 q-12 -14 -41 -20 l0 -771 q-1 -8 -28 -19 q-28 -13 -52 -13 l-14 0 l0 63 l-627 0 l0 -37 q0 -10 -23 -22 q-25 -13 -54 -13 l-16 0 l0 900 l101 -43 l609 0 l48 53 l97 -78 Z" /><glyph glyph-name="" unicode="&#x56fe;" d="M321 190 q146 6 241 -20 q77 -21 109 -58 q26 -31 11 -57 q-15 -25 -51 -16 q-44 34 -124 70 q-91 41 -189 66 l3 15 ZM412 327 q90 6 145 -14 q44 -16 57 -46 q12 -25 -5 -43 q-17 -19 -45 -9 q-20 23 -60 49 q-45 29 -96 48 l4 15 ZM402 603 l-10 -13 l-10 -14 q44 -57 120 -101 q62 60 100 128 l-200 0 ZM745 605 q-10 -12 -41 -13 q-51 -79 -136 -150 q97 -41 223 -61 l-1 -11 q-53 -12 -67 -78 q-130 41 -218 105 q-129 -81 -285 -120 l-8 15 q142 55 247 144 q-56 53 -92 120 q-63 -74 -128 -124 l-9 12 q97 127 139 301 l114 -48 q-6 -13 -33 -9 q-5 -11 -14 -28 l-15 -28 l185 0 l54 50 l85 -77 ZM801 20 l0 728 l-605 0 l0 -728 l605 0 ZM938 752 q-10 -13 -42 -21 l0 -777 q-1 -7 -28 -19 q-29 -14 -53 -14 l-14 0 l0 70 l-605 0 l0 -39 q0 -10 -23 -22 q-26 -14 -54 -14 l-16 0 l0 906 l101 -45 l587 0 l49 55 l98 -80 Z" /><glyph glyph-name="" unicode="&#x5728;" d="M332 409 q-6 -15 -31 -19 l0 -445 q-2 -6 -26 -17 q-28 -11 -52 -11 l-18 0 l0 408 q-77 -70 -167 -118 l-10 11 q179 143 291 398 l-254 0 l-9 29 l275 0 q41 97 65 202 l144 -39 q-6 -19 -39 -20 q-23 -67 -60 -143 l337 0 l62 76 q68 -52 110 -89 q-3 -16 -27 -16 l-496 0 q-58 -110 -130 -194 l35 -13 ZM857 77 q65 -50 107 -86 q-4 -16 -28 -16 l-606 0 l-8 29 l243 0 l0 305 l-191 0 l-8 29 l199 0 l0 234 l128 -13 q-2 -21 -32 -26 l0 -195 l80 0 l56 70 q63 -48 100 -83 q-3 -16 -26 -16 l-210 0 l0 -305 l136 0 l60 73 Z" /><glyph glyph-name="" unicode="&#x5730;" d="M241 203 q59 23 137 55 l5 -11 l-12 -9 l-13 -10 q-16 -13 -29 -22 q-34 -26 -65 -49 q-84 -61 -167 -114 q-5 -21 -22 -29 l-50 113 q35 10 126 42 l0 338 l-106 0 l-8 29 l114 0 l0 286 l127 -13 q-5 -23 -37 -27 l0 -246 l18 0 l47 74 q53 -53 82 -87 q-3 -16 -26 -16 l-121 0 l0 -304 ZM929 53 q44 -16 44 -41 q0 -36 -52 -49 q-56 -14 -217 -14 l-144 0 q-87 0 -118 21 q-34 22 -34 85 l0 389 l-109 -40 l-19 24 l128 48 l0 287 l127 -15 q-3 -23 -36 -28 l0 -211 l108 40 l0 292 l125 -13 q-3 -23 -36 -28 l0 -218 l104 39 l9 3 l-1 0 l49 48 l90 -74 q-10 -12 -38 -16 q-2 -201 -12 -278 q-11 -79 -39 -105 q-34 -33 -95 -33 q0 48 -11 61 q-14 18 -50 27 l0 16 q38 -4 65 -4 q17 0 25 9 q23 24 27 321 l-123 -45 l0 -415 q0 -8 -24 -19 q-25 -11 -48 -11 l-17 0 l0 412 l-108 -40 l0 -400 q0 -23 14 -31 q14 -9 56 -9 l141 0 q96 0 125 4 q22 1 33 15 q17 25 47 144 l11 0 l3 -148 Z" /><glyph glyph-name="" unicode="&#x5740;" d="M395 247 q-57 -41 -120 -82 q-83 -55 -174 -109 q-5 -19 -22 -28 l-58 111 q36 10 135 41 l0 340 l-110 0 l-8 29 l118 0 l0 260 l128 -12 q-3 -22 -37 -27 l0 -221 l22 0 l48 74 q52 -52 82 -87 q-4 -16 -26 -16 l-126 0 l0 -310 q46 15 71 23 l73 25 l4 -11 ZM875 75 q67 -57 107 -96 q-4 -16 -28 -16 l-678 0 l-8 29 l147 0 l0 635 l126 -13 q-3 -22 -34 -27 l0 -595 l109 0 l0 839 l131 -14 q-5 -23 -36 -28 l0 -324 l87 0 l56 82 q64 -56 100 -95 q-4 -16 -28 -16 l-215 0 l0 -444 l105 0 l59 83 Z" /><glyph glyph-name="" unicode="&#x5747;" d="M774 324 q-32 -22 -56 -39 q-35 -24 -69 -47 q-87 -58 -180 -114 q-5 -21 -21 -27 l-66 107 q107 31 388 132 l4 -12 ZM488 541 q103 -14 165 -53 q51 -33 63 -73 q11 -36 -12 -56 q-24 -21 -61 -3 q-21 41 -72 94 q-43 44 -92 82 l9 9 ZM979 631 q-14 -14 -44 -17 q-22 -562 -102 -645 q-52 -54 -140 -53 q0 50 -21 68 q-29 23 -111 38 l1 16 q41 -4 87 -7 q50 -4 68 -4 q28 0 44 15 q60 53 83 587 l-338 0 q-76 -123 -170 -192 l-12 9 q29 39 59 96 q-8 -5 -19 -5 l-114 0 l0 -309 q51 13 161 43 l3 -13 q-61 -38 -124 -74 q-85 -48 -180 -96 q-7 -22 -23 -26 l-56 113 q35 8 126 29 l0 333 l-115 0 l-8 29 l123 0 l0 263 l130 -12 q-5 -24 -37 -28 l0 -223 l12 0 l47 73 q50 -50 81 -84 q68 133 100 289 l132 -37 q-6 -22 -37 -21 q-25 -63 -62 -128 l310 0 l53 56 l93 -83 Z" /><glyph glyph-name="" unicode="&#x5750;" d="M550 338 q118 164 141 419 l135 -29 q-5 -23 -37 -23 q-19 -80 -50 -150 q90 -27 140 -73 q42 -37 47 -78 q4 -37 -20 -53 q-25 -17 -58 5 q-26 79 -120 175 q-61 -129 -165 -202 l-13 9 ZM360 720 q-6 -22 -37 -21 q-25 -79 -57 -142 q73 -27 110 -68 q31 -35 30 -70 q-1 -31 -25 -43 q-25 -12 -54 10 q-13 60 -77 141 q-76 -136 -196 -216 l-12 10 q145 168 187 435 l131 -36 ZM849 70 q73 -55 116 -94 q-4 -16 -29 -16 l-892 0 l-9 29 l413 0 l0 234 l-331 0 l-8 29 l339 0 l0 590 l133 -13 q-5 -24 -37 -29 l0 -548 l182 0 l60 77 q70 -52 113 -90 q-4 -16 -28 -16 l-327 0 l0 -234 l242 0 l63 81 Z" /><glyph glyph-name="" unicode="&#x5782;" d="M681 362 l-135 0 l0 -181 l135 0 l0 181 ZM450 181 l0 181 l-135 0 l0 -181 l135 0 ZM315 391 l135 0 l0 173 l-135 0 l0 -173 ZM546 564 l0 -173 l135 0 l0 173 l-135 0 ZM872 465 q63 -51 102 -87 q-4 -16 -27 -16 l-171 0 l0 -181 l11 0 l53 70 q59 -48 95 -83 q-4 -16 -27 -16 l-362 0 l0 -160 l168 0 l58 76 q69 -52 109 -89 q-4 -16 -28 -16 l-691 0 l-8 29 l296 0 l0 160 l-346 0 l-9 29 l127 0 l0 181 l-180 0 l-8 29 l188 0 l0 173 l-129 0 l-9 29 l366 0 l0 122 q-160 -12 -322 -12 l-2 17 q391 39 641 124 l92 -92 q-19 -14 -60 3 q-106 -18 -253 -32 l0 -130 l233 0 l53 71 q61 -49 97 -84 q-4 -16 -27 -16 l-126 0 l0 -173 l40 0 l56 74 Z" /><glyph glyph-name="" unicode="&#x578b;" d="M704 377 q82 -6 100 -6 q18 0 18 17 l0 443 l125 -12 q-3 -20 -34 -26 l0 -410 q0 -56 -20 -78 q-25 -29 -99 -36 q-5 48 -18 64 q-19 20 -72 30 l0 14 ZM697 435 q0 -7 -23 -15 q-25 -10 -48 -10 l-16 0 l0 376 l122 -11 q-3 -21 -35 -26 l0 -314 ZM252 616 q0 -26 -1 -40 l100 0 l0 167 l-99 0 l0 -127 ZM30 277 q118 97 133 270 l-117 0 l-8 29 l126 0 l1 20 l0 147 l-96 0 l-8 29 l368 0 l52 63 q58 -44 95 -76 q-4 -16 -28 -16 l-108 0 l0 -167 l13 0 l50 69 q59 -48 93 -82 q-4 -16 -27 -16 l-129 0 l0 -239 q0 -2 -6 -6 q-6 -4 -15 -7 q-24 -10 -54 -10 l-14 0 l0 262 l-102 0 q-21 -193 -209 -281 l-10 11 ZM858 46 q66 -51 105 -87 q-4 -16 -28 -16 l-890 0 l-8 29 l413 0 l0 184 l-312 0 l-8 29 l320 0 l0 142 l133 -12 q-3 -23 -37 -28 l0 -102 l173 0 l57 71 q63 -48 102 -84 q-4 -16 -28 -16 l-304 0 l0 -184 l253 0 l59 74 Z" /><glyph glyph-name="" unicode="&#x57df;" d="M436 489 l0 -167 l103 0 l0 167 l-103 0 ZM361 240 q-54 -43 -107 -82 q-74 -55 -153 -109 q-5 -22 -21 -28 l-58 110 q18 5 123 42 l0 353 l-104 0 l-8 29 l112 0 l0 269 l130 -12 q-5 -24 -37 -28 l0 -229 l9 0 l46 70 q49 -46 80 -79 l70 -29 l88 0 l37 37 l75 -56 q-7 -9 -28 -14 l0 -219 q-1 -6 -23 -15 q-23 -9 -41 -9 l-12 0 l0 52 l-103 0 l0 -57 q0 -6 -17 -14 q-19 -9 -44 -9 l-13 0 l0 315 q-8 -2 -12 -2 l-112 0 l0 -319 q21 8 59 22 l60 23 l4 -12 ZM665 199 q-68 -36 -133 -68 q-90 -44 -187 -86 q-5 -20 -22 -25 l-51 97 q84 15 389 96 l4 -14 ZM954 16 q16 -28 21 -53 q4 -25 -7 -33 q-25 -21 -63 -5 q-34 15 -65 52 q-57 62 -98 154 q-119 -132 -327 -206 l-8 16 q203 105 307 263 q-54 167 -65 425 l-311 0 l-8 27 l318 0 q-4 76 -4 175 l124 -14 q-3 -23 -35 -28 q-2 -66 0 -133 l103 0 l21 28 q-15 0 -32 12 q-6 58 -57 101 l10 7 q74 -8 106 -40 q26 -26 14 -55 q8 -7 16 -13 q10 -9 19 -17 q24 -20 39 -35 q-4 -15 -26 -15 l-212 0 q7 -190 38 -322 q49 105 81 243 l118 -39 q-7 -17 -41 -16 q-53 -176 -128 -286 q37 -93 88 -140 q18 -18 29 3 q10 20 22 53 q13 35 22 64 l11 -2 l-20 -171 Z" /><glyph glyph-name="" unicode="&#x57fa;" d="M808 45 q70 -52 113 -90 q-3 -16 -28 -16 l-798 0 l-9 29 l363 0 l0 144 l-202 0 l-8 29 l210 0 l0 129 l131 -11 q-2 -23 -33 -27 l0 -91 l68 0 l51 66 q60 -46 95 -79 q-4 -16 -27 -16 l-187 0 l0 -144 l200 0 l61 77 ZM635 348 l0 97 l-270 0 l0 -97 l270 0 ZM365 690 l0 -94 l270 0 l0 94 l-270 0 ZM365 473 l270 0 l0 94 l-270 0 l0 -94 ZM668 319 q105 -96 311 -124 l-2 -14 q-54 -36 -62 -99 q-178 69 -279 237 l-241 0 q-106 -160 -354 -246 l-9 15 q154 84 240 231 l-228 0 l-8 29 l233 0 l0 342 l-185 0 l-8 29 l193 0 l0 124 l133 -13 q-5 -23 -37 -28 l0 -83 l270 0 l0 124 l134 -13 q-3 -23 -37 -28 l0 -83 l54 0 l54 70 q61 -48 96 -83 q-4 -16 -26 -16 l-178 0 l0 -342 l79 0 l56 75 q62 -52 100 -88 q-4 -16 -28 -16 l-271 0 Z" /><glyph glyph-name="" unicode="&#x589e;" d="M449 840 q78 -14 117 -49 q33 -29 33 -62 q-1 -31 -26 -44 q-26 -14 -56 7 q-14 73 -78 141 l10 7 ZM235 220 q74 17 136 33 l4 -12 l-11 -7 l-12 -7 q-14 -9 -26 -16 q-32 -20 -60 -37 q-78 -46 -157 -89 q-6 -18 -24 -25 l-54 116 q25 4 114 24 l0 326 l-103 0 l-8 29 l111 0 l0 269 l127 -13 q-5 -23 -37 -27 l0 -229 l8 0 l45 69 q50 -49 78 -82 q-3 -16 -26 -16 l-105 0 l0 -306 ZM479 603 q57 -27 84 -62 q23 -29 20 -56 q-3 -25 -22 -33 q-20 -9 -41 10 q-1 30 -18 71 q-15 35 -35 64 l12 6 ZM822 402 l0 156 q-10 -7 -25 -5 l-18 -28 l-19 -28 q-21 -32 -38 -51 l-18 7 q17 56 41 153 l77 -30 l0 70 l-143 0 l0 -244 l143 0 ZM457 402 l145 0 l0 244 l-145 0 l0 -244 ZM505 263 l0 -110 l256 0 l0 110 l-256 0 ZM761 9 l0 115 l-256 0 l0 -115 l256 0 ZM948 651 q-5 -5 -14 -10 q-10 -5 -22 -7 l0 -277 q-1 -6 -26 -15 q-28 -10 -48 -10 l-16 0 l0 41 l-365 0 l0 -31 q0 -7 -25 -17 l79 -33 l240 0 l45 49 l96 -73 q-11 -14 -40 -20 l0 -302 q-1 -6 -27 -15 q-28 -10 -49 -10 l-15 0 l0 59 l-256 0 l0 -34 q0 -8 -24 -18 q-26 -11 -52 -11 l-13 0 l0 403 q-17 -5 -32 -5 l-14 -1 l0 400 l93 -39 l232 0 q15 47 28 86 q15 51 25 85 l137 -39 q-7 -20 -39 -19 q-56 -58 -125 -113 l91 0 l44 46 l92 -70 Z" /><glyph glyph-name="" unicode="&#x58f0;" d="M734 261 l0 176 l-190 0 l0 -176 l190 0 ZM264 288 l-1 -27 l190 0 l0 176 l-189 0 l0 -149 ZM771 515 l97 -74 q-5 -6 -15 -11 q-11 -6 -24 -9 l0 -232 q-1 -6 -28 -15 q-29 -10 -51 -10 l-16 0 l0 68 l-474 0 q-24 -218 -216 -320 l-10 11 q81 78 113 189 q23 81 23 202 l0 192 l109 -40 l446 0 l46 49 ZM840 801 q66 -47 107 -82 q-4 -16 -26 -16 l-375 0 l0 -115 l195 0 l58 71 q66 -49 107 -84 q-4 -16 -28 -16 l-753 0 l-8 29 l333 0 l0 115 l-389 0 l-8 29 l397 0 l0 112 l133 -12 q-3 -23 -37 -28 l0 -72 l235 0 l59 69 Z" /><glyph glyph-name="" unicode="&#x5904;" d="M705 102 q0 -7 -24 -17 q-26 -11 -51 -11 l-19 0 l0 772 l131 -14 q-5 -23 -37 -28 l0 -231 q110 -29 174 -79 q54 -41 66 -86 q11 -40 -13 -59 q-24 -20 -62 2 q-40 90 -165 194 l0 -443 ZM243 604 l-20 -44 q-11 -25 -20 -42 q46 -178 110 -275 q75 149 106 361 l-176 0 ZM973 34 l0 -13 q-53 -10 -57 -80 l-91 0 q-183 0 -296 38 q-126 43 -203 146 q-111 -136 -292 -214 l-11 14 q163 96 261 265 q-61 116 -95 300 q-74 -145 -150 -233 l-12 8 q120 224 183 580 l145 -20 q-4 -19 -39 -20 q-23 -75 -61 -172 l157 0 l52 53 l91 -83 q-8 -12 -40 -16 q-44 -251 -150 -409 q77 -81 196 -114 q105 -30 275 -30 l137 0 Z" /><glyph glyph-name="" unicode="&#x5907;" d="M744 375 q-123 36 -220 88 q-136 -69 -293 -105 l63 -27 l410 0 l40 44 ZM714 9 l0 133 l-167 0 l0 -133 l167 0 ZM287 9 l174 0 l0 133 l-174 0 l0 -133 ZM461 302 l-174 0 l0 -131 l174 0 l0 131 ZM714 302 l-167 0 l0 -131 l167 0 l0 131 ZM359 697 l-16 -17 l-16 -17 q69 -68 187 -117 q101 70 165 151 l-320 0 ZM850 689 q-10 -13 -47 -14 q-77 -92 -193 -165 q170 -51 368 -69 l-2 -12 q-63 -15 -79 -90 q-72 14 -124 28 l80 -61 q-11 -15 -41 -21 l0 -337 q-2 -6 -30 -16 q-29 -10 -52 -10 l-16 0 l0 58 l-427 0 l0 -33 q0 -8 -26 -19 q-28 -12 -55 -12 l-15 0 l0 433 q-83 -17 -154 -26 l-5 15 q238 59 422 169 q-85 58 -144 137 q-122 -120 -235 -176 l-10 10 q174 141 268 368 l140 -37 q-6 -16 -39 -14 l-12 -17 l-13 -17 q-15 -20 -28 -36 l305 0 l68 57 l96 -93 Z" /><glyph glyph-name="" unicode="&#x590d;" d="M368 229 l-9 -9 l-9 -10 q64 -69 171 -113 q86 58 140 132 l-293 0 ZM330 586 l0 -85 l352 0 l0 85 l-352 0 ZM682 386 l0 86 l-352 0 l0 -86 l352 0 ZM820 223 q-10 -13 -46 -14 q-65 -83 -162 -142 q141 -38 348 -46 l0 -13 q-62 -16 -76 -91 q-225 31 -359 103 q-188 -85 -472 -104 l-4 16 q247 41 411 129 q-77 57 -126 133 q-93 -90 -203 -137 l-10 12 q130 103 204 270 q-10 -8 -30 -15 q-23 -8 -45 -8 l-14 0 l0 305 q-77 -85 -177 -141 l-11 11 q137 137 209 354 l129 -54 q-9 -21 -40 -15 l-14 -25 l-15 -24 l427 0 l58 73 q67 -50 109 -86 q-4 -16 -28 -16 l-585 0 l-19 -27 q-11 -14 -20 -24 l77 -32 l337 0 l46 48 l95 -72 q-4 -6 -13 -11 q-10 -6 -23 -8 l0 -222 q-1 -5 -29 -14 q-29 -10 -51 -10 l-16 0 l0 31 l-344 0 l117 -50 q-8 -18 -37 -14 l-12 -17 l-13 -18 l274 0 l63 51 l90 -86 Z" /><glyph glyph-name="" unicode="&#x5916;" d="M285 636 q-30 -79 -70 -146 q83 -24 126 -65 q35 -34 35 -73 q45 124 64 284 l-155 0 ZM487 721 l94 -87 q-9 -13 -40 -16 q-41 -256 -135 -409 q-122 -198 -362 -294 l-10 13 q223 129 327 385 q-30 -32 -74 2 q-14 73 -86 152 q-68 -105 -153 -173 l-13 9 q155 214 199 540 l138 -32 q-7 -22 -38 -22 q-15 -60 -38 -124 l137 0 l54 56 ZM725 525 q114 -33 179 -87 q54 -45 65 -94 q9 -43 -18 -63 q-27 -21 -66 4 q-34 93 -160 213 l0 -554 q0 -8 -25 -19 q-27 -12 -52 -12 l-19 0 l0 923 l133 -14 q-5 -23 -37 -28 l0 -269 Z" /><glyph glyph-name="" unicode="&#x591a;" d="M957 313 q-11 -11 -52 -14 q-127 -172 -329 -263 q-201 -90 -519 -120 l-5 17 q272 55 441 140 q187 94 295 247 l-262 0 q-46 -32 -100 -65 q65 -14 100 -46 q29 -27 29 -59 q0 -30 -22 -43 q-23 -15 -54 2 q-19 63 -93 125 q-125 -67 -258 -103 l-7 12 q239 109 385 287 q-179 -85 -433 -124 l-7 16 q448 123 643 368 l-288 0 q-44 -32 -83 -55 q68 -11 105 -40 q30 -25 32 -55 q2 -27 -20 -41 q-22 -14 -52 2 q-22 59 -97 115 q-103 -57 -205 -88 l-8 12 q225 117 344 302 l146 -36 q-6 -18 -48 -18 q-31 -33 -77 -69 l264 0 l54 52 l100 -87 q-11 -11 -51 -13 q-112 -133 -271 -218 l126 -30 q-8 -19 -50 -18 q-13 -13 -31 -28 l-34 -28 l234 0 l57 53 l101 -89 Z" /><glyph glyph-name="" unicode="&#x591f;" d="M171 490 l0 -236 l78 0 l0 236 l-78 0 ZM520 680 q-12 -14 -43 -18 q-4 -353 -16 -495 q-15 -159 -50 -202 q-44 -51 -120 -51 q0 48 -16 64 q-21 21 -81 34 l1 16 l14 -1 l15 -2 l31 -2 q37 -3 50 -3 q23 0 37 14 q43 46 50 642 l-192 0 q-33 -73 -74 -134 l57 -24 l56 0 l39 43 l84 -64 q-8 -12 -37 -18 l0 -284 q-1 -6 -23 -14 q-24 -9 -41 -9 l-12 0 l0 53 l-78 0 l0 -63 q0 -7 -17 -15 q-20 -10 -46 -10 l-12 0 l0 365 q-27 -34 -52 -57 l-14 9 q85 159 122 390 l128 -33 q-5 -22 -38 -22 q-13 -43 -30 -84 l168 0 l50 54 l90 -79 ZM673 698 q-20 -27 -57 -66 q57 -9 84 -35 q22 -22 17 -48 q50 67 87 149 l-131 0 ZM983 330 q-10 -13 -44 -14 q-70 -155 -176 -249 q-114 -101 -295 -155 l-9 15 q276 131 384 402 l-135 0 q-40 -43 -70 -70 q59 -15 86 -45 q23 -25 16 -52 q-5 -25 -29 -32 q-26 -9 -52 12 q-4 47 -44 97 q-59 -48 -122 -79 l-10 11 q115 91 189 250 q-74 -52 -176 -90 l-11 14 q120 69 207 171 q-24 -10 -51 7 q-6 43 -49 86 q-45 -42 -94 -70 l-11 10 q112 109 158 292 l131 -21 q-4 -16 -36 -16 q-21 -43 -46 -77 l115 0 l44 45 l90 -73 q-11 -13 -43 -14 q-68 -128 -164 -214 l87 -20 q-6 -15 -37 -14 q-27 -44 -55 -80 l116 0 l45 47 l91 -74 Z" /><glyph glyph-name="" unicode="&#x2f24;&#x5927;" d="M540 516 q64 -344 435 -501 l-2 -11 q-76 -14 -92 -90 q-171 99 -263 274 q-69 133 -95 314 q-24 -200 -118 -328 q-114 -158 -361 -260 l-11 16 q200 114 293 269 q78 129 97 317 l-371 0 l-9 29 l382 0 q5 62 7 145 l0 151 l142 -14 q-5 -24 -36 -29 l-1 -65 l-2 -64 q-2 -71 -7 -124 l253 0 l65 82 q74 -56 118 -95 q-4 -16 -28 -16 l-396 0 Z" /><glyph glyph-name="" unicode="&#x592a;" d="M534 550 q68 -361 437 -533 l-2 -12 q-77 -11 -92 -88 q-167 103 -259 281 q-70 135 -97 317 q-24 -181 -105 -308 q87 -35 130 -86 q36 -43 34 -85 q-3 -38 -32 -50 q-30 -13 -64 16 q-11 79 -82 185 q-116 -165 -357 -275 l-12 16 q201 125 295 293 q76 136 95 329 l-364 0 l-8 29 l375 0 q6 86 6 263 l142 -15 q-3 -23 -36 -28 l-1 -55 l-2 -55 q-2 -63 -7 -110 l241 0 l64 80 q71 -54 116 -93 q-4 -16 -29 -16 l-386 0 Z" /><glyph glyph-name="" unicode="&#x5931;" d="M550 355 q72 -235 426 -338 l-2 -13 q-80 -14 -89 -90 q-165 71 -256 202 q-70 100 -98 239 l-7 0 q-34 -158 -136 -257 q-116 -113 -348 -182 l-9 16 q185 78 280 185 q85 96 115 238 l-369 0 l-9 28 l383 0 q15 80 18 215 l-192 0 q-61 -110 -156 -181 l-13 9 q108 158 139 391 l138 -36 q-7 -21 -38 -21 q-19 -62 -54 -133 l176 0 q1 39 0 102 l0 109 l139 -13 q-5 -24 -37 -29 l-1 -44 l0 -42 q0 -55 -1 -83 l153 0 l61 75 q68 -52 111 -88 q-4 -16 -28 -16 l-298 0 q-3 -135 -18 -215 l260 0 l62 78 q70 -53 112 -91 q-4 -15 -28 -15 l-386 0 Z" /><glyph glyph-name="" unicode="&#x597d;" d="M242 580 q-47 -180 -92 -303 q59 -22 110 -48 q57 145 75 351 l-93 0 ZM466 581 q-8 -12 -39 -16 q-27 -235 -101 -374 q131 -83 122 -153 q-3 -27 -27 -35 q-23 -9 -50 7 q-31 50 -90 109 q-90 -126 -248 -201 l-11 13 q134 89 209 234 q-87 74 -164 120 q37 103 84 295 l-112 0 l-9 29 l128 0 q38 155 50 238 l127 -25 q-6 -22 -40 -23 l-4 -19 l-5 -21 q-6 -25 -10 -46 q-14 -57 -26 -104 l77 0 l50 52 l89 -80 ZM881 474 q61 -49 98 -85 q-4 -16 -27 -16 l-230 0 l0 -339 q0 -58 -21 -82 q-28 -30 -108 -38 q-5 49 -23 68 q-24 24 -87 33 l0 14 q104 -7 125 -7 q21 0 21 18 l0 333 l-205 0 l-8 29 l213 0 l0 166 l62 -6 q51 66 102 159 l-356 0 l-9 29 l370 0 l57 54 l93 -86 q-10 -10 -40 -11 q-47 -40 -89 -73 q-57 -45 -101 -75 l40 -4 q-5 -22 -36 -26 l0 -127 l104 0 l55 72 Z" /><glyph glyph-name="" unicode="&#x5982;" d="M240 591 q-48 -185 -95 -320 q70 -24 136 -55 q60 144 75 375 l-116 0 ZM397 673 l90 -81 q-8 -13 -38 -17 q-25 -254 -102 -396 q131 -81 121 -151 q-4 -26 -29 -35 q-25 -10 -52 6 q-32 49 -91 104 q-92 -117 -260 -186 l-9 13 q141 81 220 218 q-98 79 -186 128 q40 111 88 315 l-109 0 l-9 29 l124 0 q38 161 46 225 l128 -20 q-6 -23 -39 -26 q-13 -58 -42 -179 l99 0 l50 53 ZM806 117 l0 539 l-186 0 l0 -539 l186 0 ZM946 659 q-11 -14 -44 -22 l0 -626 q-1 -8 -28 -21 q-29 -14 -53 -14 l-15 0 l0 112 l-186 0 l0 -104 q0 -10 -23 -21 q-25 -13 -53 -13 l-16 0 l0 778 l97 -44 l171 0 l49 56 l101 -81 Z" /><glyph glyph-name="" unicode="&#x59cb;" d="M237 580 q-52 -192 -90 -303 q63 -27 111 -51 q56 143 74 354 l-95 0 ZM460 581 q-8 -12 -38 -16 q-27 -237 -101 -378 q126 -85 116 -155 q-4 -26 -28 -35 q-24 -8 -50 8 q-26 47 -83 108 q-91 -125 -240 -196 l-10 13 q125 84 202 230 q-73 67 -162 125 q42 122 82 295 l-108 0 l-9 29 l124 0 q35 151 48 238 l126 -25 q-8 -21 -40 -23 q-16 -79 -45 -190 l79 0 l49 52 l88 -80 ZM817 35 l0 257 l-238 0 l0 -257 l238 0 ZM857 372 l89 -68 q-11 -14 -39 -18 l0 -333 q0 -2 -6 -6 q-6 -3 -15 -7 q-25 -9 -54 -9 l-15 0 l0 76 l-238 0 l0 -64 q0 -6 -19 -14 q-24 -9 -53 -9 l-15 0 l0 440 l98 -39 l223 0 l44 51 ZM760 667 q101 -40 156 -99 q46 -49 51 -100 q5 -44 -22 -63 q-27 -19 -62 8 q-4 31 -21 74 q-160 -41 -357 -79 q-11 -15 -23 -19 l-45 111 q22 5 31 13 q44 45 100 153 q51 101 73 176 l139 -47 q-8 -19 -37 -19 q-85 -145 -231 -277 q102 1 340 12 q-39 80 -103 149 l11 7 Z" /><glyph glyph-name="" unicode="&#x2f26;&#x5b50;" d="M845 479 q72 -55 116 -94 q-3 -16 -28 -16 l-380 0 l0 -327 q0 -60 -27 -86 q-33 -33 -129 -41 q-8 51 -34 69 q-33 25 -119 37 l0 15 q153 -10 182 -10 q27 0 27 23 l0 320 l-403 0 l-9 29 l412 0 l0 171 l83 -8 q86 66 171 163 l-555 0 l-9 29 l576 0 l61 57 l100 -89 q-11 -11 -43 -12 q-138 -94 -267 -151 l17 -2 q-3 -21 -34 -27 l0 -131 l228 0 l64 81 Z" /><glyph glyph-name="" unicode="&#x5b57;" d="M422 845 q86 -8 129 -42 q36 -28 33 -65 q-3 -34 -33 -48 q-31 -15 -66 11 q-7 80 -72 137 l9 7 ZM189 651 q7 -100 -55 -140 q-23 -16 -52 -10 q-30 6 -40 32 q-16 48 39 75 q30 17 52 50 q24 38 22 78 l15 0 q10 -28 15 -56 l629 0 l55 56 l96 -93 q-9 -9 -38 -11 q-62 -64 -137 -109 l-10 7 q20 51 38 121 l-629 0 ZM856 358 q64 -51 104 -87 q-3 -16 -27 -16 l-385 0 l0 -220 q0 -58 -24 -82 q-31 -31 -120 -39 q-7 49 -28 66 q-27 23 -104 35 l0 14 q130 -9 155 -9 q23 0 23 21 l0 214 l-397 0 l-8 29 l405 0 l0 125 l87 -9 q59 51 100 105 l-411 0 l-9 29 l430 0 l56 56 l96 -85 q-10 -10 -39 -12 q-94 -61 -181 -97 l4 0 q-3 -20 -35 -26 l0 -86 l250 0 l58 74 Z" /><glyph glyph-name="" unicode="&#x5b58;" d="M836 353 q64 -50 103 -85 q-3 -16 -27 -16 l-231 0 l0 -216 q0 -58 -23 -83 q-30 -30 -113 -38 q-7 50 -25 68 q-29 24 -93 33 l0 14 q114 -8 136 -8 q22 0 22 19 l0 211 l-227 0 l-8 29 l235 0 l0 107 l62 -6 q60 67 93 118 l-327 0 l-9 29 l342 0 l54 54 l94 -90 q-9 -9 -41 -11 q-64 -51 -167 -103 l29 -3 q-3 -22 -34 -26 l0 -69 l97 0 l58 72 ZM837 755 q70 -52 113 -90 q-4 -16 -28 -16 l-504 0 q-49 -102 -117 -191 l39 -14 q-4 -13 -30 -19 l0 -466 q-1 -11 -23 -26 q-26 -17 -54 -17 l-17 0 l0 443 q-81 -81 -166 -131 l-10 11 q172 151 276 410 l-242 0 l-9 29 l262 0 q31 77 53 170 l135 -44 q-6 -19 -40 -18 q-23 -61 -43 -108 l343 0 l62 77 Z" /><glyph glyph-name="" unicode="&#x5b66;" d="M423 845 q81 -28 120 -74 q31 -37 26 -76 q-5 -35 -33 -46 q-31 -12 -61 16 q-1 84 -62 174 l10 6 ZM198 830 q84 -22 127 -64 q36 -35 36 -74 q-1 -35 -28 -49 q-28 -14 -59 10 q-6 41 -32 91 q-24 45 -54 79 l10 7 ZM854 334 q69 -54 109 -91 q-4 -16 -28 -16 l-383 0 l0 -188 q0 -60 -26 -85 q-32 -32 -125 -40 q-7 49 -31 69 q-28 24 -110 37 l0 14 q142 -10 168 -10 q24 0 24 21 l0 182 l-401 0 l-8 29 l409 0 l0 105 l73 -7 q59 54 102 106 l-408 0 l-8 29 l428 0 l57 53 l95 -90 q-9 -9 -41 -12 q-68 -42 -181 -90 l17 -1 q-3 -21 -34 -25 l0 -68 l242 0 l60 78 ZM972 589 q-9 -11 -40 -12 q-62 -56 -157 -103 l-9 7 q25 51 49 117 l-634 0 q7 -102 -55 -143 q-24 -16 -49 -13 q-25 3 -35 25 q-17 42 32 68 q32 20 51 64 q21 48 15 100 l16 1 q16 -37 22 -73 l436 0 q61 95 108 216 l132 -48 q-8 -19 -40 -16 q-72 -82 -164 -152 l164 0 l58 57 l100 -95 Z" /><glyph glyph-name="" unicode="&#x5b83;" d="M422 845 q86 -8 129 -42 q36 -28 33 -65 q-3 -34 -33 -48 q-31 -15 -66 11 q-6 80 -71 137 l8 7 ZM864 58 q46 -14 46 -42 q0 -38 -58 -50 q-62 -14 -250 -14 l-175 0 q-97 0 -131 19 q-36 21 -36 85 l0 512 l130 -13 q-3 -22 -34 -26 l0 -287 q226 111 349 238 l120 -77 q-14 -17 -56 -7 q-176 -112 -413 -183 l0 -135 q0 -21 14 -28 q15 -8 61 -8 l177 0 q129 0 154 3 q25 2 36 19 q19 31 51 158 l12 0 l3 -164 ZM965 643 q-9 -9 -38 -11 q-57 -67 -137 -126 l-10 7 q9 26 20 67 q9 33 19 71 l-629 0 q10 -105 -53 -149 q-24 -16 -53 -11 q-30 5 -40 31 q-9 23 3 44 q11 20 34 31 q31 18 53 55 q24 41 21 85 l15 0 q9 -26 16 -57 l627 0 l56 56 l96 -93 Z" /><glyph glyph-name="" unicode="&#x5b89;" d="M417 847 q88 -9 132 -45 q37 -29 34 -67 q-2 -35 -32 -49 q-32 -15 -67 11 q-6 83 -75 144 l8 6 ZM422 406 q-66 -131 -114 -211 q95 -13 204 -37 q85 96 126 248 l-216 0 ZM854 511 q66 -51 106 -89 q-4 -16 -27 -16 l-184 0 q-55 -177 -142 -272 q142 -40 218 -88 q62 -39 71 -76 q7 -32 -24 -46 q-31 -13 -67 6 q-94 74 -262 145 q-157 -119 -501 -160 l-5 16 q286 62 424 177 q-110 42 -252 81 q43 71 110 217 l-268 0 l-9 29 l290 0 q54 116 80 197 l134 -35 q-8 -21 -42 -20 q-34 -74 -68 -142 l360 0 l58 76 ZM964 643 q-8 -10 -38 -11 q-62 -62 -144 -111 l-10 7 q21 46 44 123 l-624 0 q6 -96 -54 -137 q-24 -16 -53 -10 q-30 6 -40 32 q-16 47 39 74 q30 18 52 52 q24 39 21 79 l15 1 q9 -26 17 -62 l624 0 l55 56 l96 -93 Z" /><glyph glyph-name="" unicode="&#x5b8c;" d="M422 845 q86 -8 129 -42 q36 -28 33 -65 q-3 -34 -33 -48 q-31 -15 -66 11 q-7 80 -72 137 l9 7 ZM189 651 q7 -100 -55 -140 q-23 -16 -52 -10 q-30 6 -40 32 q-16 48 39 75 q30 17 52 50 q24 38 22 78 l15 0 q10 -28 15 -56 l630 0 l54 56 l97 -93 q-10 -10 -39 -11 q-65 -67 -137 -109 l-10 7 q23 58 39 121 l-630 0 ZM682 581 q61 -45 99 -79 q-3 -16 -27 -16 l-528 0 l-8 29 l410 0 l54 66 ZM937 40 q35 -12 35 -40 q0 -31 -40 -44 q-45 -14 -163 -14 l-106 0 q-69 0 -91 18 q-22 17 -22 68 l0 293 l-122 0 q-16 -161 -79 -241 q-86 -110 -307 -166 l-9 14 q168 72 234 179 q47 77 57 214 l-239 0 l-8 29 l703 0 l56 68 q64 -47 104 -81 q-4 -16 -27 -16 l-268 0 l0 -271 q0 -12 6 -16 q8 -4 32 -4 l94 0 q21 0 50 1 l33 0 q16 1 22 15 q11 19 40 131 l12 0 l3 -137 Z" /><glyph glyph-name="" unicode="&#x5b9a;" d="M422 845 q86 -8 129 -42 q36 -28 33 -65 q-3 -34 -33 -48 q-31 -15 -66 11 q-7 80 -72 137 l9 7 ZM547 37 q65 -8 166 -8 l125 0 q88 1 130 2 l0 -13 q-51 -12 -53 -81 l-208 0 q-183 0 -276 46 q-105 51 -160 186 q-77 -168 -232 -254 l-10 11 q171 152 199 457 l133 -25 q-5 -23 -38 -24 q-13 -65 -40 -137 q55 -104 169 -140 l0 425 l-283 0 l-8 29 l536 0 l56 66 q16 -12 38 -29 q8 25 15 50 q8 30 14 53 l-632 0 q6 -101 -56 -137 q-24 -16 -53 -9 q-30 6 -39 33 q-14 48 41 75 q30 16 52 48 q24 37 22 75 l14 0 q10 -28 15 -56 l631 0 l54 56 l97 -93 q-9 -8 -40 -11 q-47 -50 -122 -94 l13 -10 l13 -10 q15 -12 25 -20 q-4 -16 -28 -16 l-280 0 l0 -187 l148 0 l55 70 q63 -48 100 -83 q-3 -16 -27 -16 l-276 0 l0 -229 Z" /><glyph glyph-name="" unicode="&#x5b9e;" d="M422 845 q86 -8 129 -42 q36 -28 33 -65 q-3 -34 -33 -48 q-31 -15 -66 11 q-6 80 -72 137 l9 7 ZM188 651 q6 -101 -56 -137 q-24 -16 -53 -9 q-30 6 -39 33 q-14 48 41 75 q30 16 52 48 q24 37 22 76 l14 0 q11 -30 15 -57 l630 0 l54 56 l97 -93 q-9 -9 -38 -11 q-56 -63 -128 -111 l-10 7 q20 68 31 123 l-632 0 ZM255 606 q87 -9 136 -41 q39 -26 44 -61 q3 -31 -21 -46 q-25 -16 -58 2 q-13 33 -46 75 q-31 37 -63 63 l8 8 ZM178 453 q94 -10 146 -45 q43 -28 48 -66 q4 -34 -22 -51 q-27 -17 -62 3 q-13 37 -49 82 q-32 40 -69 70 l8 7 ZM840 336 q69 -56 110 -94 q-3 -16 -28 -16 l-367 0 l-10 -25 q-6 -14 -12 -24 q158 -27 254 -80 q78 -42 103 -94 q20 -44 -3 -69 q-24 -25 -64 -5 q-35 51 -111 111 q-87 69 -190 119 q-109 -166 -481 -245 l-8 16 q187 56 288 130 q94 68 132 166 l-382 0 l-8 29 l400 0 q29 92 29 367 l139 -13 q-3 -23 -35 -27 q-6 -244 -32 -327 l216 0 l60 81 Z" /><glyph glyph-name="" unicode="&#x5ba2;" d="M678 245 q-97 37 -169 91 q-96 -55 -202 -96 l49 -19 l299 0 l23 24 ZM665 15 l0 177 l-322 0 l0 -177 l322 0 ZM396 549 q-9 -10 -27 -28 q54 -61 128 -106 q82 68 128 134 l-229 0 ZM795 541 q-13 -10 -52 -13 q-60 -77 -169 -151 q159 -70 397 -96 l-1 -12 q-63 -14 -79 -86 q-50 10 -112 27 l18 -13 q-10 -12 -37 -18 l0 -230 q-1 -6 -28 -15 q-29 -10 -51 -10 l-16 0 l0 62 l-322 0 l0 -38 q0 -3 -5 -7 q-6 -6 -16 -10 q-24 -12 -55 -12 l-17 0 l0 300 q-111 -38 -208 -57 l-7 13 q235 72 417 207 q-59 54 -100 122 q-109 -102 -255 -160 l-10 13 q172 113 275 325 l-175 0 q7 -98 -54 -137 q-22 -15 -47 -11 q-27 4 -36 26 q-14 42 34 68 q29 15 50 52 q23 40 21 82 l15 1 q10 -29 14 -52 l324 0 q-14 2 -28 11 q-11 68 -73 117 l8 7 q126 -1 150 -64 q9 -24 -3 -46 q-11 -21 -35 -25 l289 0 l51 53 l93 -89 q-11 -11 -38 -12 q-24 -28 -54 -56 q-34 -33 -61 -53 l-11 7 q15 57 27 121 l-451 0 l116 -55 q-9 -20 -42 -14 q-18 -24 -26 -35 l211 0 l66 57 l98 -94 Z" /><glyph glyph-name="" unicode="&#x5bb3;" d="M183 682 q4 -89 -55 -127 q-22 -14 -47 -9 q-27 5 -36 27 q-14 44 35 66 q30 16 51 48 q23 36 21 75 l15 1 q10 -31 13 -52 l328 0 q-13 1 -27 11 q-11 69 -74 117 l8 7 q127 -1 151 -64 q9 -24 -3 -46 q-12 -21 -36 -25 l289 0 l52 52 l92 -88 q-9 -9 -38 -11 q-48 -49 -107 -85 l-11 6 q10 37 19 97 l-640 0 ZM711 16 l0 165 l-417 0 l0 -165 l417 0 ZM747 260 l99 -75 q-10 -13 -41 -21 l0 -219 q-1 -6 -28 -15 q-29 -9 -50 -9 l-16 0 l0 66 l-417 0 l0 -41 q0 -7 -25 -17 q-27 -11 -54 -11 l-13 0 l0 333 l99 -41 l400 0 l46 50 ZM858 393 q58 -43 96 -76 q-4 -16 -28 -16 l-380 0 l0 -45 q0 -7 -25 -17 q-27 -10 -52 -10 l-17 0 l0 72 l-395 0 l-9 29 l404 0 l0 95 l-262 0 l-8 29 l270 0 l0 95 l-276 0 l-8 28 l284 0 l0 89 l126 -12 q-3 -20 -32 -25 l0 -52 l137 0 l50 60 q57 -41 93 -72 q-4 -16 -27 -16 l-253 0 l0 -95 l133 0 l50 60 q55 -41 91 -73 q-4 -16 -27 -16 l-247 0 l0 -95 l259 0 l53 63 Z" /><glyph glyph-name="" unicode="&#x5bb9;" d="M184 682 q7 -99 -53 -138 q-23 -15 -48 -11 q-27 4 -36 26 q-14 41 33 67 q31 16 51 53 q23 40 21 83 l15 1 q10 -29 14 -52 l327 0 q-14 2 -28 11 q-11 68 -73 117 l8 7 q126 -1 150 -64 q9 -24 -3 -46 q-11 -21 -35 -25 l289 0 l52 53 l92 -89 q-9 -9 -38 -12 q-48 -53 -115 -97 l-11 7 q18 59 26 109 l-638 0 ZM579 624 q114 -11 186 -50 q59 -32 78 -76 q17 -39 -4 -63 q-21 -25 -60 -9 q-62 106 -208 189 l8 9 ZM106 404 q147 102 219 244 l115 -52 q-9 -16 -36 -12 q-107 -124 -289 -192 l-9 12 ZM334 208 l0 -192 l330 0 l0 192 l-330 0 ZM589 513 q-5 -17 -44 -21 q63 -72 188 -132 q113 -55 239 -83 l-1 -16 q-29 -8 -49 -33 q-19 -24 -24 -52 q-123 47 -221 127 q-100 81 -150 177 q-84 -116 -253 -215 l66 -28 l315 0 l45 48 l93 -71 q-10 -12 -35 -18 l0 -248 q-1 -6 -28 -16 q-28 -11 -50 -11 l-16 0 l0 67 l-330 0 l0 -44 q0 -7 -26 -17 q-27 -12 -53 -12 l-14 0 l0 331 q-103 -58 -204 -89 l-7 13 q133 63 254 174 q123 112 157 204 l148 -35 Z" /><glyph glyph-name="" unicode="&#x5bc6;" d="M414 848 q79 -1 121 -28 q34 -23 33 -56 q-1 -31 -27 -45 q-28 -15 -61 6 q-11 66 -73 117 l7 6 ZM184 685 q7 -99 -53 -138 q-23 -15 -48 -11 q-27 4 -36 26 q-15 42 33 67 q31 16 51 53 q23 40 21 83 l15 1 q11 -33 14 -53 l635 0 l51 54 l93 -89 q-9 -9 -38 -12 q-47 -56 -107 -99 l-11 7 q14 58 18 111 l-638 0 ZM410 673 q72 -11 109 -43 q30 -27 29 -59 q-1 -29 -24 -42 q-25 -13 -53 7 q-6 69 -71 130 l10 7 ZM211 566 q26 -77 9 -137 q-14 -51 -53 -73 q-22 -14 -47 -9 q-25 5 -34 27 q-13 42 35 66 q30 14 52 48 q24 37 23 78 l15 0 ZM410 296 q-74 0 -96 14 q-123 -47 -253 -70 l-6 16 q119 35 234 90 q-2 16 -2 28 l0 239 l116 -11 q-3 -21 -31 -25 l0 -186 q205 120 306 269 l100 -67 q-11 -14 -40 -5 q-103 -122 -281 -215 l97 0 q38 0 72 1 q30 0 45 1 q20 1 27 11 q12 16 36 87 l11 0 l4 -89 q36 -12 36 -35 q0 -30 -44 -41 q-49 -12 -194 -12 l-137 0 ZM745 226 l132 -12 q-3 -23 -37 -28 l0 -252 q0 -7 -26 -15 q-27 -9 -53 -9 l-16 0 l0 64 l-478 0 l-34 -46 l-104 58 q15 15 38 28 l0 210 l131 -13 q-3 -24 -38 -29 l0 -179 l193 0 l0 267 l128 -12 q-3 -21 -33 -26 l0 -229 l197 0 l0 223 ZM750 552 q91 -23 139 -69 q40 -37 42 -79 q2 -37 -25 -53 q-27 -16 -60 9 q-10 96 -106 184 l10 8 Z" /><glyph glyph-name="" unicode="&#x5bdf;" d="M535 571 q-10 -12 -40 -13 q-131 -254 -450 -351 l-8 15 q263 116 362 347 l-121 0 l-15 -16 l-16 -16 q47 -6 71 -26 q19 -17 17 -37 q-2 -20 -19 -27 q-19 -9 -41 5 q-9 35 -48 67 q-33 -30 -69 -57 q51 -11 76 -34 q20 -20 17 -42 q-2 -20 -21 -27 q-19 -8 -40 7 q-6 44 -49 85 q-37 -27 -84 -48 l-9 12 q142 105 206 271 l117 -31 q-5 -14 -36 -12 q-15 -22 -33 -45 l97 0 l52 49 l84 -76 ZM338 355 l215 0 l47 54 q54 -38 89 -67 q-4 -16 -27 -16 l-316 0 l-8 29 ZM392 113 q-10 -15 -38 -10 q-108 -110 -284 -161 l-9 11 q144 91 218 224 l113 -64 ZM547 194 l0 -163 q0 -55 -22 -79 q-27 -31 -104 -37 q-2 46 -18 62 q-19 22 -76 31 l0 14 q85 -6 105 -6 q20 0 20 17 l0 161 l-284 0 l-8 29 l548 0 l52 60 q59 -42 96 -73 q-4 -16 -27 -16 l-282 0 ZM615 152 q116 -13 188 -54 q60 -33 79 -78 q16 -39 -5 -63 q-21 -25 -60 -9 q-61 108 -211 195 l9 9 ZM595 575 q38 -58 100 -107 q35 55 58 107 l-158 0 ZM886 570 q-10 -8 -40 -10 q-46 -56 -129 -109 q105 -75 253 -112 l-1 -12 q-56 -9 -77 -78 q-283 121 -361 411 l15 8 q13 -36 30 -64 l176 0 l48 49 l22 -22 l2 17 l3 17 q3 20 4 33 l-658 0 q1 -84 -53 -113 q-24 -13 -48 -7 q-26 6 -33 30 q-13 43 36 65 q28 13 48 41 q21 32 19 65 l16 1 q11 -34 13 -53 l319 0 l-5 3 l-6 3 q-11 63 -72 111 l8 7 q116 1 146 -52 q12 -20 5 -42 q-7 -20 -26 -30 l284 0 l52 53 l92 -88 q-8 -10 -38 -11 q-32 -35 -85 -71 l41 -40 Z" /><glyph glyph-name="" unicode="&#x2f28;&#x5bf8;" d="M198 491 q108 -39 166 -99 q48 -51 52 -104 q4 -47 -26 -67 q-31 -20 -70 10 q-10 60 -50 134 q-35 62 -82 119 l10 7 ZM847 688 q73 -58 116 -98 q-4 -16 -28 -16 l-227 0 l0 -532 q0 -60 -26 -86 q-33 -33 -129 -42 q-8 50 -34 70 q-35 25 -122 37 l0 15 q155 -10 184 -10 q30 0 30 24 l0 524 l-562 0 l-8 28 l570 0 l0 242 l134 -13 q-3 -24 -37 -28 l0 -201 l75 0 l64 86 Z" /><glyph glyph-name="" unicode="&#x5bf9;" d="M494 687 q-8 -13 -40 -16 q-35 -181 -100 -326 q51 -68 86 -141 q23 -51 22 -93 q-2 -37 -20 -55 q-18 -17 -41 -5 q-24 12 -40 53 q-18 66 -55 148 q-103 -182 -266 -296 l-13 11 q144 144 235 375 q-76 144 -168 237 l14 9 q101 -76 183 -167 q42 124 67 267 l-301 0 l-9 28 l303 0 l51 54 l92 -83 ZM879 671 q58 -53 90 -89 q-4 -16 -27 -16 l-126 0 l0 -525 q0 -59 -24 -84 q-30 -33 -118 -41 q-6 51 -28 70 q-29 24 -104 35 l0 15 q128 -9 153 -9 q26 0 26 22 l0 517 l-267 0 l-8 29 l275 0 l0 245 l131 -14 q-3 -23 -36 -27 l0 -204 l12 0 l51 76 ZM482 469 q91 -33 137 -86 q37 -44 36 -90 q-1 -40 -29 -56 q-28 -16 -56 14 q-6 26 -13 48 q-9 30 -20 56 q-27 66 -64 106 l9 8 Z" /><glyph glyph-name="" unicode="&#x5bfb;" d="M748 468 l0 124 l-550 0 l-9 29 l559 0 l0 131 l-591 0 l-9 29 l591 0 l47 49 l96 -74 q-10 -12 -37 -18 l0 -314 q-1 -6 -29 -16 q-29 -10 -51 -10 l-17 0 l0 41 l-601 0 l-9 29 l610 0 ZM221 255 q102 -14 158 -56 q47 -35 54 -78 q6 -39 -21 -58 q-28 -20 -65 3 q-13 46 -55 99 q-36 48 -80 83 l9 7 ZM873 386 q66 -52 107 -89 q-4 -16 -28 -16 l-218 0 l0 -242 q0 -59 -24 -84 q-30 -31 -117 -39 q-7 51 -26 69 q-29 24 -97 34 l0 14 q120 -8 143 -8 q23 0 23 19 l0 237 l-581 0 l-8 29 l589 0 l0 97 l133 -13 q-4 -20 -35 -26 l0 -58 l80 0 l59 76 Z" /><glyph glyph-name="" unicode="&#x5bfc;" d="M274 759 l0 -138 l434 0 l0 138 l-434 0 ZM359 401 q-107 0 -141 16 q-37 17 -37 75 l0 338 l106 -42 l411 0 l46 51 l100 -76 q-14 -16 -41 -21 l0 -172 q-1 -5 -29 -14 q-29 -10 -50 -10 l-16 0 l0 46 l-434 0 l0 -87 q0 -18 14 -23 q15 -6 68 -6 l225 0 q148 0 191 3 q29 2 40 18 q17 22 49 119 l11 0 l3 -123 q50 -13 50 -37 q0 -35 -63 -45 q-65 -11 -287 -10 l-216 0 ZM245 246 q93 -19 144 -61 q42 -35 46 -76 q4 -36 -22 -53 q-27 -18 -61 5 q-10 43 -46 95 q-31 45 -70 83 l9 7 ZM862 356 q64 -49 102 -85 q-3 -16 -26 -16 l-212 0 l0 -220 q0 -55 -26 -79 q-32 -29 -125 -37 q-7 46 -30 60 q-33 22 -111 33 l0 14 q142 -10 168 -10 q25 0 25 20 l0 219 l-574 0 l-8 29 l582 0 l0 106 l133 -12 q-4 -22 -34 -26 l0 -68 l79 0 l57 72 Z" /><glyph glyph-name="" unicode="&#x5c01;" d="M223 473 l0 171 l-153 0 l-8 29 l161 0 l0 161 l129 -12 q-2 -22 -36 -29 l0 -120 l49 0 l52 68 q59 -47 93 -81 q-4 -16 -26 -16 l-168 0 l0 -171 l64 0 l53 69 q61 -48 96 -82 q-4 -16 -27 -16 l-459 0 l-8 29 l188 0 ZM316 87 q41 6 107 16 l55 8 l56 8 l2 -15 q-166 -64 -427 -146 q-7 -19 -26 -24 l-51 118 q72 7 191 23 l0 170 l-162 0 l-8 29 l170 0 l0 151 l130 -11 q-3 -23 -37 -28 l0 -112 l52 0 l52 69 q61 -48 95 -82 q-3 -16 -25 -16 l-174 0 l0 -158 ZM545 493 q79 -44 116 -100 q30 -48 24 -92 q-5 -40 -33 -52 q-30 -13 -59 18 q3 51 -16 115 q-16 54 -43 105 l11 6 ZM897 674 q54 -52 85 -87 q-3 -16 -26 -16 l-110 0 l0 -534 q0 -58 -23 -83 q-29 -31 -114 -39 q-5 48 -26 68 q-30 25 -96 35 l0 14 q117 -8 141 -8 q24 0 24 21 l0 526 l-260 0 l-8 29 l268 0 l0 233 l131 -13 q-5 -23 -37 -28 l0 -192 l2 0 l49 74 Z" /><glyph glyph-name="" unicode="&#x5c04;" d="M202 300 l178 0 l0 120 l-178 0 l0 -120 ZM202 680 l0 -100 l178 0 l0 100 l-178 0 ZM380 551 l-178 0 l0 -103 l178 0 l0 103 ZM508 683 q-6 -6 -17 -11 q-12 -6 -26 -9 l0 -637 q0 -54 -20 -76 q-25 -29 -100 -37 q-5 47 -22 63 q-23 23 -81 31 l0 16 q93 -8 115 -8 q23 0 23 22 l0 202 q-106 -180 -340 -285 l-10 14 q170 114 257 303 l-237 0 l-8 29 l76 0 l0 448 l97 -39 l16 0 q11 67 16 135 l138 -21 q-4 -23 -38 -26 q-11 -15 -34 -44 l-19 -23 q-10 -12 -17 -21 l94 0 l41 49 l96 -75 ZM545 476 q79 -43 115 -99 q31 -48 25 -92 q-5 -40 -34 -53 q-29 -13 -59 18 q6 103 -59 222 l12 4 ZM897 658 q54 -51 85 -86 q-4 -16 -27 -16 l-118 0 l0 -519 q0 -58 -22 -83 q-29 -31 -112 -39 q-5 50 -24 68 q-25 24 -92 34 l0 15 q110 -8 132 -8 q24 0 24 21 l0 511 l-251 0 l-8 29 l259 0 l0 249 l131 -13 q-5 -23 -37 -28 l0 -208 l11 0 l49 73 Z" /><glyph glyph-name="" unicode="&#x5c06;" d="M59 686 q80 -37 119 -89 q33 -43 30 -85 q-2 -38 -29 -51 q-27 -13 -56 15 q-1 98 -75 203 l11 7 ZM357 828 q-3 -23 -36 -28 l0 -849 q0 -9 -25 -22 q-26 -13 -50 -13 l-19 0 l0 389 q-48 -75 -111 -154 q2 -23 -15 -35 l-72 110 q86 43 198 130 l0 486 l130 -14 ZM949 697 q-10 -12 -47 -13 q-179 -264 -551 -353 l-9 14 q312 123 453 354 l-231 0 q-29 -34 -59 -61 q57 -12 84 -40 q23 -24 18 -51 q-4 -25 -26 -34 q-24 -10 -50 8 q-8 49 -52 93 q-67 -58 -121 -88 l-10 10 q130 125 194 310 l137 -30 q-6 -16 -38 -15 q-19 -31 -53 -73 l216 0 l50 50 l95 -81 ZM455 267 q84 -20 129 -60 q37 -33 39 -70 q2 -34 -23 -49 q-26 -16 -57 6 q-6 40 -37 89 q-27 44 -61 77 l10 7 ZM882 393 q57 -52 87 -88 q-3 -16 -26 -16 l-128 0 l0 -256 q0 -57 -23 -81 q-29 -30 -114 -38 q-6 46 -28 65 q-29 24 -102 33 l0 14 q127 -9 151 -9 q25 0 25 21 l0 251 l-360 0 l-8 29 l368 0 l0 151 l126 -13 q-3 -20 -35 -26 l0 -112 l19 0 l48 75 Z" /><glyph glyph-name="" unicode="&#x5c0f;" d="M680 588 q131 -85 204 -188 q61 -85 71 -164 q8 -70 -23 -98 q-32 -28 -77 11 q-10 98 -68 224 q-49 106 -120 208 l13 7 ZM373 558 q-6 -19 -40 -18 q-47 -128 -108 -231 q-80 -135 -178 -218 l-11 10 q69 99 124 251 q47 128 70 254 l143 -48 ZM597 819 q-3 -23 -37 -28 l0 -745 q0 -61 -25 -87 q-32 -34 -125 -43 q-6 53 -29 73 q-31 25 -110 38 l0 14 q135 -9 162 -9 q27 0 27 22 l0 779 l137 -14 Z" /><glyph glyph-name="" unicode="&#x5c11;" d="M590 829 q-3 -23 -37 -28 l0 -528 q0 -12 -28 -30 q-30 -18 -56 -18 l-13 0 l0 617 l134 -13 ZM664 689 q127 -50 201 -119 q61 -57 76 -114 q12 -51 -14 -74 q-26 -23 -66 4 q-23 66 -87 154 q-54 74 -120 141 l10 8 ZM383 646 q-6 -17 -39 -16 q-49 -106 -116 -198 q-83 -114 -179 -185 l-10 10 q71 86 132 218 q53 116 80 224 l132 -53 ZM850 338 q-12 -17 -46 -10 q-129 -207 -315 -303 q-154 -79 -414 -111 l-4 17 q239 60 376 149 q173 113 276 323 l127 -65 Z" /><glyph glyph-name="" unicode="&#x5c1a;" d="M860 762 q-9 -19 -41 -15 q-87 -99 -189 -165 l-13 10 q57 89 113 230 l130 -60 ZM156 813 q98 -26 150 -74 q44 -40 47 -85 q2 -41 -25 -59 q-29 -18 -65 8 q-17 107 -117 203 l10 7 ZM594 189 l0 188 l-196 0 l0 -188 l196 0 ZM681 121 q-1 -6 -26 -16 q-26 -11 -47 -11 l-14 0 l0 66 l-196 0 l0 -61 q0 -7 -23 -16 q-26 -11 -50 -11 l-13 0 l0 372 l90 -38 l182 0 l45 49 l94 -73 q-10 -14 -42 -20 l0 -241 ZM941 535 q-6 -7 -16 -12 q-11 -6 -26 -8 l0 -484 q0 -56 -22 -79 q-29 -30 -111 -38 q-7 49 -24 66 q-28 24 -90 33 l0 15 q105 -8 130 -8 q21 0 21 21 l0 491 l-610 0 l0 -586 q0 -9 -25 -21 q-26 -12 -55 -12 l-15 0 l0 691 l103 -43 l246 0 l0 286 l131 -12 q-3 -23 -36 -28 l0 -246 l251 0 l46 52 l102 -78 Z" /><glyph glyph-name="" unicode="&#x5c1d;" d="M195 807 q90 -22 136 -65 q39 -35 40 -75 q1 -35 -26 -49 q-28 -15 -61 10 q-15 86 -98 173 l9 6 ZM811 359 q67 -53 107 -90 q-3 -16 -26 -16 l-464 0 l108 -44 q-10 -19 -39 -15 q-115 -90 -285 -162 q171 2 503 13 q-44 67 -101 121 l9 8 q111 -34 173 -90 q52 -46 60 -96 q8 -44 -20 -64 q-28 -20 -66 7 q-10 41 -39 89 q-242 -41 -537 -77 q-9 -12 -20 -17 l-50 114 q22 4 33 9 q58 25 133 92 q67 59 106 112 l-306 0 l-8 29 l670 0 l59 77 ZM679 504 q64 -48 100 -83 q-3 -16 -26 -16 l-537 0 l-8 29 l416 0 l55 70 ZM966 557 q-11 -11 -39 -12 q-55 -51 -124 -98 l-11 7 q8 25 16 52 q10 33 16 58 l-659 0 q9 -85 -34 -123 q-18 -16 -44 -12 q-28 4 -37 26 q-16 43 31 69 q22 16 38 48 q18 34 15 65 l15 0 q10 -30 13 -44 l288 0 l0 253 l131 -11 q-3 -21 -33 -26 l0 -216 l71 0 q58 115 100 220 l134 -46 q-6 -19 -40 -15 q-76 -82 -169 -159 l177 0 l53 53 l92 -89 Z" /><glyph glyph-name="" unicode="&#x5c31;" d="M764 796 q74 -21 110 -58 q30 -31 26 -63 q-3 -29 -28 -39 q-26 -11 -53 12 q-3 33 -24 75 q-18 36 -42 67 l11 6 ZM204 844 q78 -11 117 -44 q33 -27 33 -60 q-1 -30 -26 -43 q-26 -13 -57 7 q-6 32 -30 71 q-21 35 -47 62 l10 7 ZM44 650 l-8 29 l377 0 l54 72 q63 -49 100 -85 q-4 -16 -27 -16 l-496 0 ZM242 236 q-9 -20 -39 -19 q-62 -129 -162 -199 l-13 9 q66 103 95 248 l119 -39 ZM185 382 l205 0 l0 154 l-205 0 l0 -154 ZM334 353 l0 -320 q0 -55 -20 -79 q-26 -32 -97 -38 q-3 47 -16 63 q-19 22 -70 30 l0 14 q76 -6 94 -6 q19 0 19 18 l0 318 l-59 0 l0 -22 q0 -7 -23 -16 q-26 -10 -50 -10 l-13 0 l0 298 l91 -38 l190 0 l44 47 l94 -70 q-12 -16 -40 -20 l0 -183 q-1 -6 -26 -14 q-27 -9 -48 -9 l-14 0 l0 37 l-56 0 ZM375 269 q72 -31 106 -75 q28 -36 23 -71 q-4 -31 -30 -41 q-26 -10 -52 15 q-1 38 -19 87 q-16 42 -40 79 l12 6 ZM948 35 q29 -13 29 -40 q0 -53 -136 -53 l-57 0 q-50 0 -67 18 q-15 16 -15 62 l-1 508 l-4 0 q-9 -221 -60 -349 q-65 -164 -222 -267 l-12 16 q112 110 160 267 q38 128 44 333 l-82 0 l-8 29 l90 0 q1 56 1 138 l0 147 l130 -13 q-5 -24 -36 -29 l-1 -63 l0 -62 q-1 -70 -3 -118 l123 0 l53 69 q62 -48 99 -82 q-4 -16 -27 -16 l-156 0 l0 -483 q0 -19 22 -19 l35 0 q29 0 36 1 q11 0 16 12 q5 11 16 58 q3 18 9 44 l4 24 l5 23 l12 0 l3 -155 Z" /><glyph glyph-name="" unicode="&#x5c3a;" d="M295 525 q0 -38 -1 -57 l431 0 l0 267 l-430 0 l0 -210 ZM500 439 q72 -289 453 -418 l-1 -13 q-78 -12 -90 -86 q-182 86 -278 238 q-75 117 -102 279 l-189 0 q-7 -160 -53 -274 q-62 -152 -198 -247 l-12 10 q101 118 141 286 q29 124 29 310 l0 282 l111 -42 l404 0 l47 51 l100 -76 q-14 -16 -42 -21 l0 -316 q-1 -6 -28 -16 q-29 -10 -51 -10 l-16 0 l0 63 l-225 0 Z" /><glyph glyph-name="" unicode="&#x5c3d;" d="M263 141 q186 -10 302 -52 q95 -35 131 -85 q30 -41 8 -71 q-22 -29 -65 -12 q-51 49 -147 103 q-112 64 -233 104 l4 13 ZM347 376 q108 -1 177 -32 q57 -25 77 -65 q17 -34 -3 -58 q-19 -24 -58 -12 q-28 41 -89 88 q-55 42 -110 68 l6 11 ZM305 576 q-1 -20 -2 -37 l445 0 l0 203 l-443 0 l0 -166 ZM598 510 q36 -88 120 -166 q103 -95 258 -156 l-1 -13 q-71 -12 -82 -82 q-136 75 -222 207 q-33 51 -59 111 q-19 47 -34 99 l-277 0 q-11 -139 -61 -244 q-64 -136 -196 -222 l-11 10 q105 113 146 272 q31 117 31 283 l0 203 l111 -41 l417 0 l46 50 l100 -75 q-11 -15 -41 -21 l0 -246 q-1 -7 -28 -17 q-29 -11 -52 -11 l-15 0 l0 59 l-150 0 Z" /><glyph glyph-name="" unicode="&#x5c40;" d="M582 132 l0 153 l-174 0 l0 -153 l174 0 ZM672 82 q-1 -6 -26 -16 q-27 -11 -48 -11 l-16 0 l0 48 l-174 0 l0 -61 q0 -7 -24 -17 q-26 -11 -51 -11 l-12 0 l0 339 l92 -39 l161 0 l42 44 l88 -66 q-9 -12 -32 -17 l0 -193 ZM260 740 l0 -145 l467 0 l0 145 l-467 0 ZM945 419 q-13 -14 -39 -17 q-5 -212 -18 -309 q-14 -107 -46 -139 q-43 -39 -118 -39 q0 48 -17 65 q-22 21 -91 35 l1 15 q29 -3 68 -6 q40 -3 55 -3 q22 0 33 11 q31 31 39 384 l-553 0 q-5 -155 -44 -263 q-51 -145 -168 -236 l-12 8 q129 182 129 567 l0 318 l111 -41 l442 0 l47 50 l100 -75 q-13 -15 -42 -21 l0 -188 q-1 -6 -28 -15 q-29 -9 -51 -9 l-16 0 l0 55 l-467 0 l0 -121 l542 0 l51 53 l92 -79 Z" /><glyph glyph-name="" unicode="&#x5c42;" d="M240 753 l0 -144 l546 0 l0 144 l-546 0 ZM240 485 q0 -87 -5 -147 q-7 -84 -24 -152 q-46 -172 -171 -273 l-13 9 q119 177 119 562 l0 340 l110 -42 l520 0 l48 52 l102 -77 q-13 -15 -42 -21 l0 -174 q-1 -6 -29 -15 q-30 -9 -53 -9 l-16 0 l0 42 l-546 0 l0 -95 ZM760 527 q67 -50 105 -87 q-4 -16 -28 -16 l-529 0 l-8 29 l403 0 l57 74 ZM860 368 q67 -51 107 -88 q-4 -16 -27 -16 l-420 0 l96 -52 q-10 -17 -37 -12 q-95 -85 -241 -161 q131 4 450 20 q-49 65 -111 123 l10 8 q115 -37 182 -93 q55 -46 68 -95 q12 -44 -13 -65 q-24 -21 -62 2 q-20 49 -56 96 q-109 -21 -220 -39 q-143 -24 -284 -44 q-11 -18 -29 -25 l-37 110 q22 4 31 9 q54 28 123 99 q61 62 98 119 l-241 0 l-8 29 l563 0 l58 75 Z" /><glyph glyph-name="" unicode="&#x5c55;" d="M480 293 l151 0 l0 135 l-151 0 l0 -135 ZM249 753 l0 -132 l544 0 l0 132 l-544 0 ZM904 183 q-11 -15 -38 -7 q-55 -27 -166 -70 q106 -68 274 -95 l-2 -11 q-58 -14 -77 -86 q-142 46 -225 124 q-89 84 -130 226 l-109 0 l0 -229 q68 19 156 46 l4 -12 l-8 -6 l-9 -6 q-11 -8 -20 -14 q-26 -18 -48 -34 q-64 -43 -121 -78 q-8 -14 -21 -21 l-62 103 q39 25 39 46 l0 205 l-113 0 q-45 -221 -187 -347 l-13 8 q76 122 105 296 q20 122 20 312 l0 291 l112 -42 l518 0 l46 50 l99 -75 q-12 -13 -42 -21 l0 -160 q-1 -5 -28 -13 q-29 -9 -50 -9 l-15 0 l0 38 l-544 0 l0 -59 q0 -144 -16 -240 l156 0 l0 135 l-133 0 l-8 29 l141 0 l0 117 l121 -11 q-3 -20 -30 -24 l0 -82 l151 0 l0 115 l120 -12 q-3 -19 -30 -24 l0 -79 l44 0 l51 67 q57 -46 92 -80 q-4 -16 -27 -16 l-160 0 l0 -135 l89 0 l55 73 q63 -50 100 -86 q-4 -16 -26 -16 l-378 0 q39 -82 114 -140 q82 80 126 132 l103 -73 Z" /><glyph glyph-name="" unicode="&#x5c5e;" d="M239 757 l0 -115 l556 0 l0 115 l-556 0 ZM239 614 l0 -83 q0 -87 -5 -151 q-7 -89 -26 -162 q-47 -187 -174 -298 l-13 9 q76 120 105 292 q20 122 20 309 l0 296 l109 -41 l530 0 l46 48 l96 -72 q-4 -6 -14 -11 q-12 -6 -25 -8 l0 -144 q-1 -6 -28 -16 q-28 -10 -49 -10 l-16 0 l0 42 l-556 0 ZM523 319 l0 91 l-134 0 l0 -91 l134 0 ZM612 410 l0 -91 l139 0 l0 91 l-139 0 ZM936 186 q-5 -6 -15 -11 q-12 -7 -26 -9 l0 -157 q0 -47 -19 -66 q-24 -25 -93 -31 q-4 40 -16 52 q-19 19 -64 25 l0 15 q68 -5 85 -5 q19 0 19 17 l0 166 l-195 0 l0 -74 l80 3 q-15 24 -34 43 l11 7 q62 -19 93 -49 q25 -26 24 -52 q-1 -24 -21 -32 q-21 -9 -43 9 q-3 27 -18 53 q-80 -21 -274 -63 q-9 -18 -27 -21 l-41 96 q58 0 161 3 l0 77 l-182 0 l0 -239 q0 -7 -24 -16 q-26 -10 -51 -10 l-12 0 l0 332 l93 -38 l176 0 l0 79 l-134 0 l0 -21 q0 -6 -24 -16 q-26 -10 -51 -10 l-12 0 l0 235 l93 -39 l128 0 l0 66 q-109 -4 -228 -1 l-3 17 q256 24 441 77 l81 -75 q-17 -15 -52 0 q-79 -9 -150 -13 l0 -71 l130 0 l42 45 l91 -68 q-8 -12 -35 -18 l0 -118 q-1 -6 -27 -14 q-27 -9 -47 -9 l-15 0 l0 33 l-139 0 l0 -79 l185 0 l41 47 l98 -72 Z" /><glyph glyph-name="" unicode="&#x2f2f;&#x5de5;" d="M851 106 q73 -54 116 -93 q-4 -16 -28 -16 l-894 0 l-9 29 l410 0 l0 635 l-335 0 l-8 29 l622 0 l63 81 q71 -55 116 -94 q-4 -16 -29 -16 l-326 0 l0 -635 l238 0 l64 80 Z" /><glyph glyph-name="" unicode="&#x5dee;" d="M264 847 q85 -12 129 -47 q37 -30 37 -66 q0 -34 -27 -48 q-28 -16 -61 7 q-15 77 -87 147 l9 7 ZM856 68 q66 -52 104 -89 q-3 -16 -27 -16 l-735 0 l-8 29 l326 0 l0 212 l-170 0 q-113 -139 -293 -230 l-11 12 q197 136 299 371 l-285 0 l-9 29 l305 0 q26 64 41 124 l-255 0 l-8 29 l271 0 q13 56 21 110 l-326 0 l-8 29 l477 0 q39 79 66 172 l139 -38 q-8 -20 -39 -19 q-53 -58 -138 -115 l196 0 l55 69 q65 -47 104 -82 q-3 -16 -27 -16 l-388 0 q-9 -55 -24 -110 l222 0 l54 65 q60 -44 99 -78 q-4 -16 -28 -16 l-355 0 q-15 -53 -45 -124 l342 0 l57 73 q65 -50 105 -86 q-3 -16 -27 -16 l-490 0 q-33 -67 -76 -124 l345 0 l57 70 q63 -48 102 -83 q-3 -16 -27 -16 l-231 0 l0 -212 l186 0 l57 76 Z" /><glyph glyph-name="" unicode="&#x5df2;" d="M891 64 q34 -10 45 -17 q13 -8 13 -22 q0 -38 -47 -56 q-57 -22 -195 -22 l-351 0 q-110 0 -159 32 q-53 34 -53 115 l0 517 l129 -12 q-3 -22 -32 -26 l0 -118 l478 0 l0 273 l-622 0 l-9 29 l620 0 l50 54 l105 -80 q-16 -18 -47 -23 l0 -335 q-1 -6 -28 -17 q-30 -11 -53 -11 l-16 0 l0 81 l-478 0 l0 -334 q0 -30 27 -42 q24 -11 83 -11 l350 0 q56 0 79 6 q27 7 40 28 q12 18 29 71 q15 44 29 97 l12 0 l1 -177 Z" /><glyph glyph-name="" unicode="&#x5e03;" d="M849 745 q70 -54 113 -91 q-4 -15 -29 -15 l-514 0 q-48 -97 -112 -180 l42 -16 l149 0 l0 154 l126 -13 q-4 -21 -33 -25 l0 -116 l160 0 l43 51 l103 -76 q-12 -13 -42 -21 l0 -286 q0 -56 -21 -79 q-27 -30 -104 -38 q-5 50 -20 69 q-23 23 -77 31 l0 15 q88 -6 107 -6 q21 0 21 19 l0 292 l-170 0 l0 -470 q0 -8 -25 -19 q-26 -11 -51 -11 l-17 0 l0 500 l-162 0 l0 -396 q0 -3 -5 -8 q-6 -5 -16 -10 q-25 -12 -56 -12 l-17 0 l0 395 q-90 -95 -204 -157 l-10 11 q180 146 287 402 l-261 0 l-9 28 l281 0 q34 89 55 181 l139 -44 q-8 -19 -39 -19 q-23 -63 -48 -118 l354 0 l62 78 Z" /><glyph glyph-name="" unicode="&#x5e0c;" d="M864 576 q62 -48 102 -82 q-4 -16 -27 -16 l-532 0 q-45 -71 -94 -126 l39 -14 l136 0 l0 121 l126 -12 q-3 -21 -33 -26 l0 -83 l154 0 l45 50 l102 -75 q-13 -15 -43 -21 l0 -209 q0 -55 -20 -78 q-25 -29 -99 -36 q-3 49 -17 68 q-19 22 -68 30 l0 14 q74 -5 92 -5 q19 0 19 18 l0 215 l-165 0 l0 -365 q0 -8 -25 -18 q-26 -10 -52 -10 l-16 0 l0 393 l-149 0 l0 -318 q0 -3 -5 -7 q-6 -6 -16 -10 q-25 -12 -56 -12 l-16 0 l0 322 q-93 -87 -206 -141 l-9 12 q165 117 275 323 l-258 0 l-8 28 l280 0 q33 65 52 125 q-149 -36 -297 -52 l-3 16 q188 39 374 112 q-121 44 -266 79 l4 18 q203 -20 352 -61 q128 57 196 104 l104 -78 q-15 -16 -56 -3 q-57 -27 -139 -57 q79 -31 118 -67 q33 -30 32 -55 q-1 -24 -26 -30 q-25 -6 -52 12 q-76 57 -184 104 q-58 -18 -130 -36 l103 -39 q-6 -18 -38 -15 q-22 -46 -40 -77 l383 0 l57 70 Z" /><glyph glyph-name="" unicode="&#x5e2d;" d="M793 321 l98 -73 q-5 -6 -15 -11 q-13 -7 -27 -9 l0 -145 q0 -50 -19 -71 q-23 -27 -92 -33 q-3 43 -16 58 q-18 22 -62 28 l0 15 q65 -5 84 -5 q18 0 18 18 l0 151 l-150 0 l0 -303 q0 -7 -25 -17 q-26 -10 -50 -10 l-17 0 l0 330 l-151 0 l0 -234 q0 -6 -24 -16 q-27 -10 -52 -10 l-12 0 l0 328 l94 -39 l145 0 l0 91 l120 -12 q-2 -19 -28 -23 l0 -56 l140 0 l41 48 ZM667 529 l-207 0 l0 -107 l207 0 l0 107 ZM855 625 q54 -47 85 -80 q-4 -16 -26 -16 l-161 0 l0 -155 q0 -6 -23 -14 q-25 -9 -48 -9 l-15 0 l0 42 l-207 0 l0 -25 q0 -7 -23 -15 q-25 -9 -48 -9 l-15 0 l0 185 l-135 0 l-8 28 l143 0 l0 115 l121 -12 q-3 -21 -35 -25 l0 -78 l207 0 l0 115 l121 -12 q-3 -21 -35 -25 l0 -78 l55 0 l47 68 ZM863 790 q63 -50 102 -86 q-4 -16 -28 -16 l-718 0 l0 -241 q0 -79 -4 -134 q-6 -78 -22 -141 q-41 -159 -152 -255 l-13 9 q101 164 101 520 l0 312 l105 -41 l321 0 q-11 2 -22 8 q-9 30 -35 65 q-24 31 -50 53 l8 7 q126 -4 152 -64 q10 -23 -1 -44 q-10 -20 -33 -25 l235 0 l54 73 Z" /><glyph glyph-name="" unicode="&#x5e38;" d="M214 830 q80 -16 121 -52 q33 -31 32 -66 q-2 -33 -28 -46 q-27 -13 -58 10 q-6 78 -77 147 l10 7 ZM336 384 l328 0 l0 124 l-328 0 l0 -124 ZM777 303 l102 -76 q-5 -6 -15 -11 q-12 -6 -27 -8 l0 -139 q0 -53 -21 -76 q-27 -29 -104 -36 q-3 47 -19 64 q-23 23 -75 31 l0 14 q83 -6 105 -6 q21 0 21 18 l0 145 l-202 0 l0 -274 q0 -3 -5 -8 q-6 -6 -15 -11 q-25 -14 -56 -14 l-16 0 l0 307 l-193 0 l0 -238 q0 -8 -25 -18 q-28 -12 -54 -12 l-14 0 l0 339 l100 -42 l186 0 l0 104 l-114 0 l0 -24 q0 -7 -26 -17 q-28 -12 -54 -12 l-13 0 l0 274 l98 -40 l314 0 l45 48 l95 -72 q-12 -14 -36 -18 l0 -153 q-1 -6 -29 -15 q-29 -9 -50 -9 l-16 0 l0 38 l-122 0 l0 -104 l192 0 l43 51 ZM966 618 q-10 -10 -39 -11 q-52 -49 -129 -89 l-10 7 q19 51 31 101 l-631 0 q6 -102 -57 -138 q-24 -15 -49 -10 q-25 4 -35 27 q-14 43 35 69 q30 17 52 53 q22 40 21 83 l15 0 q11 -31 15 -56 l265 0 l0 189 l130 -12 q-3 -22 -35 -26 l0 -151 l69 0 q40 78 75 178 l134 -48 q-9 -18 -40 -15 q-57 -57 -139 -115 l171 0 l55 55 l96 -91 Z" /><glyph glyph-name="" unicode="&#x5e73;" d="M852 397 q71 -52 113 -90 q-3 -16 -28 -16 l-391 0 l0 -348 q0 -3 -5 -7 q-6 -5 -16 -10 q-26 -11 -59 -11 l-17 0 l0 376 l-405 0 l-8 29 l413 0 l0 415 l-357 0 l-9 29 l664 0 l62 74 q71 -51 114 -87 q-3 -16 -27 -16 l-350 0 l0 -415 l243 0 l63 77 ZM181 676 q90 -52 135 -118 q37 -55 34 -106 q-2 -46 -31 -62 q-31 -16 -65 17 q-3 60 -30 137 q-22 64 -55 126 l12 6 ZM621 382 q62 123 115 296 l132 -49 q-8 -21 -39 -18 q-91 -147 -195 -238 l-13 9 Z" /><glyph glyph-name="" unicode="&#x5e74;&#xf98e;" d="M504 203 l0 238 l-195 0 l0 -238 l195 0 ZM852 279 q70 -53 113 -89 q-4 -16 -28 -16 l-330 0 l0 -230 q0 -3 -6 -7 q-6 -5 -17 -10 q-27 -11 -62 -11 l-18 0 l0 258 l-459 0 l-9 29 l173 0 l0 310 l113 -43 l182 0 l0 191 l-204 0 q-111 -150 -256 -238 l-12 10 q159 166 249 426 l139 -54 q-9 -21 -41 -18 q-24 -45 -59 -97 l442 0 l61 77 q68 -50 111 -90 q-3 -16 -26 -16 l-301 0 l0 -191 l133 0 l56 71 q66 -49 106 -84 q-3 -16 -27 -16 l-268 0 l0 -238 l183 0 l62 76 Z" /><glyph glyph-name="" unicode="&#x5e76;" d="M248 840 q93 -24 143 -70 q42 -38 44 -81 q3 -38 -24 -55 q-28 -17 -63 7 q-16 96 -110 192 l10 7 ZM612 355 l0 237 l-217 0 l0 -237 l217 0 ZM858 430 q67 -52 107 -88 q-3 -16 -27 -16 l-226 0 l0 -384 q0 -2 -6 -7 q-7 -5 -17 -9 q-26 -11 -59 -11 l-18 0 l0 411 l-218 0 q-5 -143 -68 -232 q-83 -118 -281 -182 l-9 12 q143 77 204 184 q49 87 54 218 l-246 0 l-8 29 l255 0 l0 237 l-208 0 l-9 29 l484 0 q53 100 91 227 l140 -39 q-8 -20 -38 -19 q-74 -95 -161 -169 l177 0 l58 73 q67 -51 107 -86 q-4 -16 -26 -16 l-198 0 l0 -237 l86 0 l60 75 Z" /><glyph glyph-name="" unicode="&#x2f34;&#x5e7f;" d="M844 762 q69 -56 110 -94 q-3 -16 -27 -16 l-695 0 l0 -227 q0 -77 -5 -130 q-6 -75 -24 -136 q-43 -155 -164 -246 l-12 9 q104 159 104 502 l0 300 l118 -43 l302 0 q-15 4 -25 11 q-9 36 -37 80 q-23 37 -53 69 l9 6 q133 -20 162 -89 q12 -26 2 -49 q-10 -22 -32 -28 l205 0 l62 81 Z" /><glyph glyph-name="" unicode="&#x5e8f;" d="M867 396 l92 -87 q-12 -11 -40 -12 q-66 -69 -158 -129 l-12 7 q37 66 67 140 l-201 0 l0 -284 q0 -55 -24 -80 q-30 -31 -112 -37 q-3 46 -23 63 q-24 23 -94 32 l0 13 q111 -7 134 -7 q23 0 23 18 l0 282 l-269 0 l-9 29 l574 0 l52 52 ZM867 544 q-10 -10 -41 -11 q-75 -52 -206 -107 q28 -34 12 -63 q-15 -28 -54 -15 q-24 37 -80 79 q-50 38 -101 61 l8 11 q133 -3 194 -53 q70 62 106 105 l-403 0 l-9 29 l423 0 l58 53 l93 -89 ZM865 754 q64 -50 103 -87 q-4 -16 -27 -16 l-725 0 l0 -218 q0 -77 -4 -130 q-6 -75 -22 -137 q-40 -157 -152 -253 l-13 9 q60 101 81 247 q15 99 15 264 l0 290 l111 -43 l315 0 q-13 4 -22 10 q-10 36 -39 80 q-26 39 -57 71 l8 7 q137 -19 170 -87 q12 -27 3 -51 q-8 -23 -31 -30 l230 0 l56 74 Z" /><glyph glyph-name="" unicode="&#x5e93;" d="M856 244 q66 -49 107 -84 q-4 -16 -28 -16 l-286 0 l0 -202 q0 -2 -5 -6 q-6 -5 -16 -9 q-25 -11 -57 -11 l-17 0 l0 228 l-320 0 l-9 29 l329 0 l0 140 l-154 0 l-41 -42 l-91 69 q18 12 45 22 q28 53 80 168 l-138 0 l-8 29 l158 0 q36 87 49 127 l123 -39 q-10 -22 -42 -18 q-6 -12 -14 -32 l-8 -19 l-8 -19 l258 0 l59 70 q65 -48 107 -83 q-4 -16 -28 -16 l-409 0 q-42 -98 -87 -188 l149 0 l0 165 l132 -14 q-5 -23 -37 -28 l0 -123 l93 0 l54 68 q61 -47 97 -81 q-4 -16 -27 -16 l-217 0 l0 -140 l149 0 l58 71 ZM871 792 q64 -50 102 -85 q-4 -16 -27 -16 l-726 0 l0 -245 q0 -79 -4 -133 q-6 -77 -22 -140 q-40 -158 -152 -254 l-13 9 q98 163 98 518 l0 315 l108 -41 l315 0 q-7 2 -14 6 q-9 30 -35 64 q-23 30 -49 52 l9 7 q121 -2 151 -58 q11 -22 3 -43 q-8 -21 -29 -28 l231 0 l54 72 Z" /><glyph glyph-name="" unicode="&#x5e94;" d="M444 851 q85 -12 132 -46 q38 -28 41 -64 q2 -32 -23 -47 q-25 -16 -58 4 q-11 35 -42 78 q-28 38 -59 67 l9 8 ZM844 85 q67 -55 107 -93 q-4 -16 -27 -16 l-735 0 l-8 29 l433 0 q41 117 84 296 q37 155 58 281 l145 -48 q-5 -16 -38 -15 q-85 -269 -228 -514 l150 0 l59 80 ZM463 574 q86 -75 129 -159 q36 -72 35 -135 q0 -56 -28 -76 q-27 -21 -61 13 q3 153 -89 352 l14 5 ZM295 509 q84 -76 125 -163 q35 -73 33 -136 q-2 -58 -30 -78 q-29 -20 -62 15 q10 158 -80 357 l14 5 ZM862 761 q67 -52 107 -90 q-3 -16 -27 -16 l-705 0 l0 -227 q0 -165 -29 -267 q-43 -154 -161 -247 l-12 9 q109 159 109 504 l0 298 l108 -41 l552 0 l58 77 Z" /><glyph glyph-name="" unicode="&#x5e95;" d="M231 680 l0 -228 q0 -80 -4 -135 q-7 -79 -23 -143 q-42 -163 -156 -261 l-13 9 q63 104 85 256 q16 104 16 274 l0 300 l110 -43 l301 0 q-14 2 -28 10 q-9 32 -36 69 q-24 33 -52 59 l9 6 q136 -6 162 -72 q10 -25 -3 -47 q-12 -22 -37 -25 l247 0 l57 74 q63 -50 102 -87 q-4 -16 -27 -16 l-710 0 ZM521 90 q78 -21 116 -58 q32 -31 30 -64 q-2 -30 -28 -40 q-26 -11 -54 12 q-7 72 -74 143 l10 7 ZM607 346 q-16 91 -19 196 q-89 -7 -182 -9 l0 -187 l201 0 ZM938 17 q39 -50 18 -75 q-20 -24 -61 -15 q-34 7 -71 33 q-161 112 -211 357 l-207 0 l0 -233 q79 39 156 80 l6 -12 q-18 -18 -36 -36 q-23 -24 -47 -47 q-62 -59 -122 -111 q-4 -12 -12 -21 q-6 -8 -14 -13 l-67 104 q28 17 37 27 q8 10 8 25 l0 514 l107 -34 q228 40 377 96 l91 -91 q-18 -14 -59 3 q-55 -9 -154 -19 q-2 -105 19 -203 l87 0 l55 73 q61 -50 99 -86 q-4 -16 -27 -16 l-208 0 q50 -196 168 -270 q20 -13 29 7 q20 33 41 95 l12 -2 l-14 -130 Z" /><glyph glyph-name="" unicode="&#x5ea6;" d="M227 453 q0 -80 -4 -135 q-7 -79 -23 -143 q-42 -163 -156 -261 l-13 9 q63 104 85 256 q16 104 16 274 l0 299 l110 -43 l305 0 q-14 2 -28 10 q-9 32 -36 69 q-24 33 -52 59 l9 6 q136 -6 161 -72 q10 -25 -3 -47 q-12 -22 -37 -25 l245 0 l55 74 q65 -50 102 -87 q-4 -16 -26 -16 l-710 0 l0 -227 ZM649 390 l0 125 l-183 0 l0 -125 l183 0 ZM649 323 l0 38 l-183 0 l0 -30 q0 -6 -25 -14 q-25 -9 -49 -9 l-17 0 l0 207 l-124 0 l-8 29 l132 0 l0 110 l125 -12 q-3 -21 -34 -26 l0 -72 l183 0 l0 110 l125 -12 q-3 -21 -34 -26 l0 -72 l61 0 l48 71 q57 -49 89 -84 q-3 -16 -26 -16 l-172 0 l0 -168 q0 -6 -24 -15 q-26 -9 -50 -9 l-17 0 ZM393 247 q57 -86 168 -142 q83 64 131 142 l-299 0 ZM843 244 q-10 -13 -44 -14 q-63 -91 -158 -156 q136 -45 332 -56 l0 -12 q-62 -17 -76 -89 q-213 32 -337 109 q-164 -83 -413 -109 l-6 15 q217 43 363 135 q-83 66 -135 180 l-73 0 l-9 29 l408 0 l59 51 l89 -83 Z" /><glyph glyph-name="" unicode="&#x5efa;" d="M386 428 q-10 -12 -38 -15 q-24 -180 -93 -296 q131 -84 469 -84 l117 0 q83 0 124 1 l0 -13 q-55 -10 -60 -78 l-189 0 q-184 0 -292 25 q-124 29 -202 101 q-71 -94 -188 -153 l-8 14 q100 74 154 184 q-69 88 -112 242 l13 7 q44 -127 119 -202 q44 108 59 264 l-82 0 l-33 -31 l-83 57 q13 10 36 19 q68 119 118 247 l-172 0 l-9 29 l180 0 l45 46 l89 -81 q-11 -13 -46 -16 q-50 -114 -117 -241 l66 0 l48 49 l87 -75 ZM755 576 l-114 0 l0 -103 l114 0 l0 103 ZM641 605 l114 0 l0 101 l-114 0 l0 -101 ZM900 672 q51 -48 80 -80 q-4 -16 -27 -16 l-110 0 l0 -141 q-1 -6 -26 -15 q-28 -10 -48 -10 l-14 0 l0 34 l-114 0 l0 -103 l114 0 l49 66 q59 -46 94 -79 q-4 -16 -27 -16 l-230 0 l0 -105 l147 0 l55 71 q65 -48 104 -84 q-4 -16 -28 -16 l-278 0 l0 -99 q0 -7 -23 -17 q-25 -10 -49 -10 l-19 0 l0 126 l-221 0 l-8 29 l229 0 l0 105 l-172 0 l-8 29 l180 0 l0 103 l-160 0 l-9 29 l169 0 l0 103 l-237 0 l-8 29 l245 0 l0 101 l-166 0 l-9 29 l175 0 l0 109 l128 -13 q-5 -23 -37 -28 l0 -68 l104 0 l44 48 l95 -73 q-6 -6 -16 -11 q-12 -6 -25 -9 l0 -85 l13 0 l44 67 Z" /><glyph glyph-name="" unicode="&#x5f00;" d="M603 417 l0 308 l-207 0 l0 -308 l207 0 ZM875 495 q61 -54 97 -91 q-4 -16 -27 -16 l-242 0 l0 -438 q0 -3 -6 -8 q-6 -5 -16 -10 q-26 -12 -60 -12 l-18 0 l0 468 l-208 0 q-5 -164 -69 -266 q-82 -132 -281 -205 l-9 12 q145 87 206 208 q50 99 54 251 l-251 0 l-8 29 l260 0 l0 308 l-211 0 l-8 29 l692 0 l54 70 q63 -48 99 -83 q-4 -16 -26 -16 l-194 0 l0 -308 l117 0 l55 78 Z" /><glyph glyph-name="" unicode="&#x5f0f;" d="M355 104 q44 10 107 24 l55 12 l56 13 l4 -15 q-164 -75 -438 -177 q-8 -20 -24 -25 l-63 107 q71 11 207 40 l0 305 l-172 0 l-8 29 l315 0 l56 71 q62 -49 101 -84 q-4 -16 -27 -16 l-169 0 l0 -284 ZM929 28 q45 -70 24 -91 q-25 -27 -75 -11 q-42 13 -81 48 q-212 182 -247 618 l-500 0 l-8 29 l506 0 q-7 98 -7 218 l137 -14 q-4 -24 -36 -29 q-1 -88 3 -175 l148 0 l48 58 q-19 -3 -38 6 q-30 67 -109 118 l9 9 q117 -1 158 -51 q16 -19 15 -41 q-1 -20 -16 -32 q8 -6 19 -14 q14 -10 27 -21 q34 -26 56 -45 q-3 -16 -28 -16 l-287 0 q26 -385 206 -522 q19 -19 32 3 q13 24 27 54 q16 37 26 66 l12 -2 l-21 -163 Z" /><glyph glyph-name="" unicode="&#x5f15;" d="M484 391 l94 -79 q-13 -13 -42 -16 q-27 -289 -108 -349 q-48 -36 -131 -36 q0 47 -23 64 q-27 23 -111 37 l0 15 q50 -4 92 -6 q55 -4 71 -4 q27 0 39 10 q50 37 76 284 l-253 0 l-37 -43 l-89 59 q8 6 16 11 q10 7 20 11 q25 129 32 240 l108 -39 l188 0 l0 193 l-347 0 l-8 29 l345 0 l46 50 l96 -74 q-11 -13 -39 -19 l0 -229 q-1 -6 -28 -15 q-28 -10 -49 -10 l-16 0 l0 46 l-213 0 q-10 -88 -27 -181 l247 0 l51 51 ZM892 821 q-5 -24 -37 -29 l0 -840 q0 -10 -25 -22 q-27 -14 -53 -14 l-19 0 l0 919 l134 -14 Z" /><glyph glyph-name="" unicode="&#x5f20;" d="M336 390 l88 -74 q-10 -12 -40 -16 q-13 -302 -74 -353 q-40 -34 -113 -34 q0 44 -19 59 q-21 19 -88 32 l0 15 l16 -1 l18 -2 q21 -1 37 -2 q42 -3 55 -3 q23 0 34 10 q36 31 48 292 l-138 0 l-33 -40 l-85 56 q14 12 35 22 q18 124 22 240 l100 -40 l90 0 l0 197 l-229 0 l-9 29 l228 0 l44 49 l95 -73 q-11 -15 -43 -21 l0 -230 q-1 -6 -26 -14 q-26 -8 -45 -8 l-15 0 l0 42 l-113 0 q-6 -80 -19 -180 l131 0 l48 48 ZM667 400 q66 -268 305 -387 l-3 -11 q-58 -6 -84 -74 q-191 148 -237 472 l-72 0 l0 -343 q81 29 136 50 l5 -11 q-5 -4 -15 -13 l-8 -7 l-9 -8 q-23 -21 -41 -37 q-56 -49 -106 -89 q-11 -21 -23 -28 l-75 108 q29 18 37 28 q8 10 8 27 l0 323 l-127 0 l-8 29 l135 0 l0 409 l130 -15 q-5 -18 -39 -23 l0 -283 q131 125 207 248 l117 -73 q-10 -15 -39 -9 q-126 -116 -285 -196 l0 -58 l216 0 l57 74 q65 -50 103 -87 q-3 -16 -26 -16 l-259 0 Z" /><glyph glyph-name="" unicode="&#x5f3a;" d="M396 312 q-11 -13 -40 -17 q-14 -296 -70 -344 q-40 -34 -115 -34 q0 43 -20 59 q-24 20 -96 32 l0 15 q11 -1 36 -3 l20 -1 l20 -2 q47 -3 61 -3 q24 0 34 10 q32 27 45 284 l-132 0 l-32 -38 l-85 55 q17 13 35 20 q16 123 20 246 l99 -40 l90 0 l0 199 l-214 0 l-9 29 l212 0 l44 49 l95 -73 q-13 -16 -44 -22 l0 -232 q-1 -5 -25 -14 q-27 -9 -46 -9 l-13 0 l0 44 l-113 0 q-8 -105 -18 -185 l126 0 l47 47 l88 -72 ZM615 251 l0 176 l-110 0 l0 -176 l110 0 ZM702 427 l0 -176 l112 0 l0 176 l-112 0 ZM532 605 l259 0 l0 154 l-259 0 l0 -154 ZM784 167 q92 -33 140 -87 q39 -44 39 -91 q1 -42 -27 -58 q-28 -17 -61 11 q-1 48 -25 101 q-147 -38 -412 -96 q-9 -19 -27 -22 l-52 107 q85 3 256 17 l0 173 l-110 0 l0 -37 q0 -6 -22 -16 q-25 -10 -48 -10 l-12 0 l0 334 l88 -37 l104 0 l0 120 l-83 0 l0 -26 q0 -6 -24 -16 q-26 -11 -50 -11 l-13 0 l0 304 l92 -39 l245 0 l43 46 l91 -69 q-10 -13 -36 -18 l0 -189 q-1 -5 -26 -14 q-28 -9 -48 -9 l-15 0 l0 41 l-89 0 l0 -120 l103 0 l42 45 l89 -68 q-10 -13 -36 -18 l0 -212 q-1 -6 -26 -14 q-26 -9 -46 -9 l-14 0 l0 42 l-112 0 l0 -166 l136 11 q-28 56 -65 93 l11 7 Z" /><glyph glyph-name="" unicode="&#x5f52;" d="M190 178 q0 -7 -23 -17 q-25 -10 -48 -10 l-16 0 l0 581 l124 -12 q-5 -23 -37 -28 l0 -514 ZM422 828 q-3 -22 -36 -28 q-3 -467 -32 -578 q-29 -110 -96 -182 q-71 -76 -201 -127 l-11 17 q103 57 158 138 q51 75 72 188 q18 99 18 585 l128 -13 ZM937 717 q-14 -16 -41 -21 l0 -736 q-2 -8 -30 -20 q-30 -13 -55 -13 l-14 0 l0 104 l-397 0 l-9 29 l406 0 l0 325 l-325 0 l-9 29 l334 0 l0 299 l-347 0 l-9 29 l346 0 l51 57 l99 -82 Z" /><glyph glyph-name="" unicode="&#x5f53;" d="M887 729 q-9 -19 -41 -16 q-92 -130 -202 -217 l-13 9 q60 110 121 280 l135 -56 ZM150 775 q102 -41 157 -99 q47 -49 52 -98 q4 -44 -23 -61 q-28 -19 -64 9 q-12 55 -53 127 q-35 60 -79 116 l10 6 ZM901 445 q-13 -15 -44 -22 l0 -475 q-1 -7 -28 -19 q-30 -13 -53 -13 l-16 0 l0 73 l-662 0 l-9 29 l671 0 l0 202 l-599 0 l-9 29 l608 0 l0 193 l-651 0 l-9 29 l352 0 l0 373 l133 -12 q-3 -24 -37 -29 l0 -332 l202 0 l49 55 l102 -81 Z" /><glyph glyph-name="" unicode="&#x5f55;" d="M894 355 q-9 -14 -38 -8 q-72 -53 -182 -105 q105 -104 290 -163 l-3 -11 q-59 -12 -77 -87 q-127 69 -204 161 q-90 108 -135 271 l0 -374 q0 -58 -23 -84 q-29 -33 -110 -40 q-3 50 -23 68 q-25 23 -92 32 l0 14 q109 -6 131 -6 q22 0 22 18 l0 189 q-144 -107 -305 -209 q-3 -21 -19 -29 l-77 99 q112 41 401 169 l0 195 l-401 0 l-9 29 l619 0 l6 122 l-468 0 l-9 29 l479 0 l6 124 l-506 0 l-9 29 l507 0 l42 49 l98 -76 q-9 -11 -34 -15 l-13 -262 l38 0 l60 74 q69 -50 112 -87 q-4 -16 -28 -16 l-395 0 l0 -2 q37 -111 111 -193 q80 81 133 165 l105 -70 ZM170 421 q93 -17 144 -56 q42 -32 46 -71 q4 -35 -22 -51 q-27 -16 -61 6 q-11 40 -47 88 q-31 43 -69 76 l9 8 Z" /><glyph glyph-name="" unicode="&#x5f62;" d="M572 535 q157 112 266 294 l118 -71 q-10 -14 -38 -9 q-142 -147 -336 -229 l-10 15 ZM533 258 q189 115 306 314 l122 -70 q-11 -14 -39 -8 q-150 -166 -381 -251 l-8 15 ZM380 453 l0 275 l-128 0 l0 -275 l128 0 ZM473 424 l0 -473 q0 -2 -5 -7 q-6 -5 -15 -9 q-25 -11 -57 -11 l-16 0 l0 500 l-128 0 q-2 -166 -37 -272 q-49 -149 -173 -239 l-12 9 q127 163 131 502 l-121 0 l-8 29 l129 0 l0 275 l-99 0 l-8 29 l409 0 l53 70 q62 -48 100 -83 q-4 -16 -27 -16 l-116 0 l0 -275 l19 0 l53 72 q59 -50 95 -85 q-4 -16 -27 -16 l-140 0 ZM981 253 q-9 -16 -40 -12 q-161 -229 -450 -323 l-6 14 q245 134 368 385 l128 -64 Z" /><glyph glyph-name="" unicode="&#x5f71;" d="M562 547 q148 113 260 283 l114 -71 q-9 -14 -38 -9 q-145 -135 -326 -218 l-10 15 ZM560 269 q155 119 275 306 l118 -72 q-10 -15 -39 -8 q-151 -149 -344 -241 l-10 15 ZM192 765 l0 -73 l254 0 l0 73 l-254 0 ZM446 587 l0 76 l-254 0 l0 -76 l254 0 ZM192 527 q0 -7 -22 -16 q-24 -10 -49 -10 l-12 0 l0 331 l88 -38 l239 0 l42 47 l93 -70 q-13 -15 -43 -21 l0 -211 q-1 -6 -25 -14 q-24 -9 -43 -9 l-14 0 l0 42 l-254 0 l0 -31 ZM44 426 l-7 29 l275 0 q-13 5 -26 17 q7 46 -22 80 l9 5 q90 -13 105 -52 q6 -16 -3 -30 q-8 -14 -25 -20 l135 0 l49 62 q57 -43 90 -75 q-3 -16 -25 -16 l-555 0 ZM192 242 l249 0 l0 95 l-249 0 l0 -95 ZM361 213 l0 -187 q0 -51 -18 -74 q-23 -29 -86 -35 q-2 40 -14 58 q-18 20 -60 26 l0 14 q63 -4 78 -4 q17 0 17 16 l0 186 l-86 0 l0 -26 q0 -3 -9 -9 q-11 -5 -24 -9 l100 -43 q-8 -15 -36 -13 q-70 -106 -179 -161 l-9 12 q36 38 68 98 q27 52 45 104 q-13 -3 -26 -3 l-12 0 l0 239 l87 -36 l235 0 l40 43 l87 -66 q-5 -5 -14 -10 q-11 -5 -23 -8 l0 -132 q-1 -5 -25 -13 q-25 -9 -43 -9 l-13 0 l0 42 l-80 0 ZM388 163 q78 -17 118 -53 q33 -29 33 -63 q0 -31 -24 -43 q-24 -13 -53 8 q-6 35 -32 78 q-23 37 -52 66 l10 7 ZM976 231 q-10 -15 -41 -10 q-173 -209 -448 -307 l-8 16 q238 132 375 367 l122 -66 Z" /><glyph glyph-name="" unicode="&#x5f7c;" d="M345 777 q-7 -16 -38 -11 q-117 -126 -266 -208 l-10 11 q126 128 196 275 l118 -67 ZM365 586 q-10 -17 -38 -13 q-35 -55 -91 -121 l49 -18 q-4 -13 -30 -19 l0 -471 q-1 -7 -24 -17 q-27 -12 -51 -12 l-18 0 l0 457 q-60 -60 -124 -105 l-11 11 q139 162 214 369 l124 -61 ZM548 408 q35 -140 120 -231 q70 99 106 231 l-226 0 ZM471 437 l128 0 l0 197 l-128 0 l0 -197 ZM917 408 q-9 -13 -41 -16 q-53 -162 -151 -267 q97 -76 253 -118 l-2 -11 q-61 -11 -84 -79 q-140 58 -223 154 q-124 -104 -318 -153 l-7 13 q176 70 284 195 q-70 111 -99 282 l-59 0 q-5 -142 -35 -244 q-41 -140 -135 -230 l-13 9 q56 109 77 263 q14 105 14 270 l0 227 l108 -41 l113 0 l0 173 l124 -12 q-3 -21 -33 -26 l0 -135 l141 0 l53 52 l90 -88 q-10 -9 -39 -10 q-28 -28 -63 -61 q-41 -38 -67 -60 l-12 5 q9 28 20 64 q13 41 21 70 l-144 0 l0 -197 l79 0 l55 54 l93 -83 Z" /><glyph glyph-name="" unicode="&#x5f81;" d="M351 779 q-10 -16 -38 -11 q-114 -129 -271 -207 l-10 11 q129 119 198 271 l121 -64 ZM370 575 q-9 -17 -38 -13 q-38 -56 -91 -113 l44 -17 q-6 -13 -31 -19 l0 -468 q-1 -8 -24 -19 q-26 -12 -51 -12 l-17 0 l0 454 q-66 -60 -131 -102 l-10 11 q145 156 225 360 l124 -62 ZM883 51 q62 -51 99 -86 q-3 -16 -27 -16 l-657 0 l-8 29 l108 0 l0 545 l128 -13 q-3 -22 -36 -27 l0 -505 l117 0 l0 737 l-249 0 l-7 29 l460 0 l54 70 q61 -48 98 -83 q-4 -16 -27 -16 l-234 0 l0 -326 l90 0 l53 70 q61 -49 97 -83 q-4 -16 -26 -16 l-214 0 l0 -382 l125 0 l56 73 Z" /><glyph glyph-name="" unicode="&#x5f84;" d="M406 727 l-9 29 l332 0 l62 57 l98 -88 q-9 -12 -42 -15 q-62 -92 -145 -165 q103 -21 167 -62 q54 -34 71 -74 q14 -35 -5 -56 q-19 -21 -57 -9 q-62 78 -207 175 q-151 -123 -353 -187 l-8 13 q283 143 416 382 l-320 0 ZM358 784 q-8 -16 -37 -13 q-117 -130 -281 -210 l-11 10 q130 122 205 272 l124 -59 ZM369 575 q-8 -16 -38 -12 q-45 -61 -88 -106 l38 -14 q-6 -13 -31 -19 l0 -476 q0 -8 -23 -20 q-26 -14 -52 -14 l-17 0 l0 458 q-75 -63 -127 -96 l-10 11 q67 70 132 175 q59 95 93 178 l123 -65 ZM870 65 q60 -47 97 -81 q-4 -16 -28 -16 l-631 0 l-8 29 l272 0 l0 280 l-186 0 l-8 29 l360 0 l52 68 q61 -47 97 -81 q-4 -16 -26 -16 l-191 0 l0 -280 l146 0 l54 68 Z" /></font>
</defs>
</svg>
