<?xml version="1.0" standalone="no"?><!DOCTYPE svg PUBLIC "-//W3C//DTD SVG 1.1//EN" "http://www.w3.org/Graphics/SVG/1.1/DTD/svg11.dtd" ><svg xmlns="http://www.w3.org/2000/svg"><metadata></metadata><defs><font id="1.004;ADBO;SourceHanSansSC-Bold;ADOBE" horiz-adv-x="1000"><font-face font-family="Source Han Sans SC Bold" font-weight="700" font-stretch="normal" units-per-em="1000" panose-1="2 11 8 0 0 0 0 0 0 0" ascent="1160" descent="-320" x-height="0" bbox="-5 -283 983 880" underline-thickness="50" underline-position="-125" unicode-range="U+002d-9875" /><missing-glyph horiz-adv-x="1000" d="M100 -120 l0 1000 l800 0 l0 -1000 l-800 0 ZM182 830 l318 -409 l318 409 l-636 0 ZM532 380 l318 -409 l0 818 l-318 -409 ZM182 -70 l636 0 l-318 409 l-318 -409 ZM150 -29 l318 409 l-318 409 l0 -818 Z" /><glyph glyph-name="" unicode="-&#x2011;" d="M49 234 l0 105 l273 0 l0 -105 l-273 0 Z" /><glyph glyph-name="" unicode="0" d="M113 84 q-69 102 -69 289 q0 187 69 287 q65 94 182 94 q116 0 181 -95 q69 -99 69 -286 q0 -187 -69 -289 q-66 -98 -181.5 -98 q-115.5 0 -181.5 98 ZM183 373 q0 -272 112 -272 q111 0 111 272 q0 267 -111 267 q-112 0 -112 -267 Z" /><glyph glyph-name="" unicode="1" d="M82 0 l0 119 l159 0 l0 468 l-134 0 l0 91 q103 20 172 62 l109 0 l0 -621 l139 0 l0 -119 l-445 0 Z" /><glyph glyph-name="" unicode="2" d="M36 642 q54 57 105 83 q58 29 130 29 q105 0 169 -62.5 q64 -62.5 64 -165.5 q0 -169 -246 -410 q74 8 120 8 l161 0 l0 -124 l-496 0 l0 85 q161 144 235 241 q85 111 85 192 q0 56 -29.5 88 q-29.5 32 -81.5 32 q-67 0 -136 -76 l-80 80 Z" /><glyph glyph-name="" unicode="3" d="M26 89 l69 93 q78 -76 165 -76 q57 0 91 27 q35 27 35 76 q0 59 -42 86 q-48 32 -162 32 l0 106 q180 0 180 113 q0 44 -26 68 q-26 24 -73 25 q-69 -1 -140 -66 l-75 90 q104 91 222 91 q109 0 174 -51 q66 -52 66 -146 q0 -120 -124 -169 l0 -5 q66 -18 106 -63 q42 -49 42 -119 q0 -99 -77 -158 q-73 -57 -183 -57 q-157 0 -248 103 Z" /><glyph glyph-name="" unicode="4" d="M164 304 l172 0 l0 151 q0 34 4 122 q2 22 2 31 l-4 0 q-29 -63 -59 -120 l-115 -184 ZM21 192 l0 100 l276 448 l176 0 l0 -436 l88 0 l0 -112 l-88 0 l0 -192 l-137 0 l0 192 l-315 0 Z" /><glyph glyph-name="" unicode="5" d="M26 87 l68 94 q77 -75 163 -75 q59 0 94 35 q37 37 37 101 q0 64 -34 99 q-34 35 -91 35 q-32 0 -56 -9 q-21 -8 -55 -30 l-67 44 l20 359 l396 0 l0 -123 l-269 0 l-14 -157 q44 21 89 21 q99 0 161 -57 q67 -63 67 -178 q0 -119 -78 -192 q-73 -68 -181 -68 q-149 0 -250 101 Z" /><glyph glyph-name="" unicode="6" d="M187 284 q19 -187 126 -187 q43 0 71 34 q29 37 29 101.5 q0 64.5 -28 98.5 q-28 31 -77 31 q-70 0 -121 -78 ZM130 75 q-80 100 -80 285 q0 195 87 301 q77 93 199 93 q119 0 201 -84 l-78 -88 q-20 23 -51 38 q-32 16 -63 16 q-69 0 -110 -55 q-47 -63 -51 -194 q29 36 73 58 q42 21 79 21 q97 0 153 -57 q59 -61 59 -176 q0 -111 -69 -180 q-65 -67 -163 -67 q-114 0 -186 89 Z" /><glyph glyph-name="" unicode="7" d="M50 617 l0 123 l492 0 l0 -89 q-121 -148 -163 -295 q-34 -118 -44 -356 l-149 0 q10 200 51 331 q43 143 146 286 l-333 0 Z" /><glyph glyph-name="" unicode="8" d="M117.5 42 q-70.5 56 -70.5 142 q0 125 127 193 l0 5 q-98 70 -98 176 q0 88 63 142 q62 53 160 53 q98 0 156.5 -54 q58.5 -54 58.5 -143 q0 -51 -29 -99 q-25 -41 -66 -70 l0 -5 q124 -67 124 -198 q0 -85 -68 -141 q-70 -57 -181 -57 q-106 0 -176.5 56 ZM206 558 q0 -48 38 -82 q30 -26 97 -53 q53 56 53 124 q0 46 -26 74.5 q-26 28.5 -72 28.5 q-39 0 -64 -24 q-26 -25 -26 -68 ZM174 200 q0 -49 36 -80 q35 -30 88 -30 q48 0 77 26 q31 26 31 73 q0 53 -46 88 q-32 25 -118 60 q-31 -25 -49 -60 q-19 -37 -19 -77 Z" /><glyph glyph-name="" unicode="9" d="M175 507 q0 -64 29 -97 q27 -31 76 -31 q72 0 122 79 q-18 185 -127 185 q-43 0 -71 -34 q-29 -37 -29 -102 ZM100 332 q-60 61 -60 175 q0 111 69 181 q66 66 164 66 q114 0 186 -87 q80 -98 80 -280 q0 -198 -87 -305 q-77 -96 -197 -96 q-121 0 -203 84 l77 88 q21 -23 52 -37 q33 -15 65 -15 q68 0 108 55 q46 63 50 194 q-28 -37 -71 -59 q-42 -22 -81 -22 q-96 0 -152 58 Z" /><glyph glyph-name="" unicode="a" d="M230 305 l176 0 l-22 81 q-14 47 -40 146 q-16 64 -25 96 l-4 0 q-28 -120 -63 -242 l-22 -81 ZM-4 0 l237 740 l174 0 l238 -740 l-155 0 l-52 190 l-240 0 l-52 -190 l-150 0 Z" /><glyph glyph-name="" unicode="b" d="M91 0 l0 740 l245 0 q268 0 268 -182 q0 -53 -27 -97 q-28 -47 -74 -63 l0 -5 q63 -15 100 -57 q39 -46 39 -118 q0 -107 -82 -165 q-76 -53 -205 -53 l-264 0 ZM239 439 l86 0 q135 0 135 97 q0 48 -33 70 q-32 21 -100 21 l-88 0 l0 -188 ZM239 114 l103 0 q156 0 156 113 q0 102 -156 102 l-103 0 l0 -215 Z" /><glyph glyph-name="" unicode="c" d="M153 84 q-99 104 -99 283 q0 177 102 285 q96 102 242 102 q126 0 217 -95 l-78 -94 q-64 62 -136 62 q-86 0 -140 -68 q-56 -70 -56 -187 q0 -120 52.5 -189 q52.5 -69 140.5 -69 q85 0 153 73 l78 -92 q-94 -109 -236 -109 q-146 0 -240 98 Z" /><glyph glyph-name="" unicode="e" d="M91 0 l0 740 l454 0 l0 -123 l-306 0 l0 -171 l260 0 l0 -124 l-260 0 l0 -198 l317 0 l0 -124 l-465 0 Z" /><glyph glyph-name="" unicode="g" d="M156 84 q-102 103 -102 283 q0 178 104 285 q98 102 251 102 q136 0 229 -95 l-79 -94 q-64 62 -145 62 q-94 0 -151 -68 q-58 -69 -58 -187 q0 -123 55 -189 q57 -69 164 -69 q60 0 93 28 l0 146 l-131 0 l0 121 l263 0 l0 -334 q-40 -39 -100 -63 q-66 -26 -140 -26 q-157 0 -253 98 Z" /><glyph glyph-name="" unicode="h" d="M91 0 l0 740 l148 0 l0 -291 l280 0 l0 291 l147 0 l0 -740 l-147 0 l0 320 l-280 0 l0 -320 l-148 0 Z" /><glyph glyph-name="" unicode="i" d="M91 0 l0 740 l148 0 l0 -740 l-148 0 Z" /><glyph glyph-name="" unicode="k" d="M91 0 l0 740 l148 0 l0 -321 l3 0 l245 321 l163 0 l-226 -291 l266 -449 l-163 0 l-191 332 l-97 -124 l0 -208 l-148 0 Z" /><glyph glyph-name="" unicode="l" d="M91 0 l0 740 l148 0 l0 -616 l300 0 l0 -124 l-448 0 Z" /><glyph glyph-name="" unicode="n" d="M91 0 l0 740 l151 0 l215 -394 l74 -160 l5 0 q-1 6 -2 18 q-17 164 -17 241 l0 295 l140 0 l0 -740 l-150 0 l-214 396 l-75 159 l-5 0 q1 -17 5 -53 q13 -138 13 -205 l0 -297 l-140 0 Z" /><glyph glyph-name="" unicode="r" d="M239 397 l96 0 q147 0 147 119 q0 58 -38 84 q-35 23 -109 23 l-96 0 l0 -226 ZM91 0 l0 740 l258 0 q278 0 278 -224 q0 -158 -141 -213 l173 -303 l-165 0 l-152 280 l-103 0 l0 -280 l-148 0 Z" /><glyph glyph-name="" unicode="s" d="M42 94 l85 102 q41 -38 90 -59 q50 -23 98 -23 q57 0 87.5 22.5 q30.5 22.5 30.5 62.5 q0 36 -29 59 q-18 14 -75 38 q-5 2 -7 3 l-99 42 q-150 62 -150 199 q0 92 72 153 q72 61 184 61 q65 0 126 -25 q61 -25 106 -70 l-75 -93 q-74 61 -157 61 q-49 0 -78 -21 q-29 -21 -29 -57 q0 -34 32 -57 q20 -15 77 -37 q5 -2 7 -3 l97 -41 q72 -30 108 -74 q41 -51 41 -127 q0 -94 -72 -157 q-76 -67 -200 -67 q-75 0 -145.5 28 q-70.5 28 -124.5 80 Z" /><glyph glyph-name="" unicode="t" d="M30 617 l0 123 l566 0 l0 -123 l-210 0 l0 -617 l-148 0 l0 617 l-208 0 Z" /><glyph glyph-name="" unicode="u" d="M375 -14 q-288 0 -288 347 l0 407 l148 0 l0 -420 q0 -111 37 -161 q34 -45 103 -45 q70 0 105 45 q39 51 39 161 l0 420 l142 0 l0 -407 q0 -347 -286 -347 Z" /><glyph glyph-name="" unicode="v" d="M-5 740 l155 0 l98 -360 q11 -39 29 -112 q20 -83 33 -127 l5 0 q11 40 30 116 q21 81 33 123 l96 360 l150 0 l-227 -740 l-176 0 l-226 740 Z" /><glyph glyph-name="" unicode="x" d="M14 0 l208 382 l-195 358 l164 0 l74 -152 q9 -18 26.5 -56.5 q17.5 -38.5 28.5 -60.5 l5 0 q27 68 49 117 l70 152 l156 0 l-195 -365 l208 -375 l-164 0 l-83 164 q-10 20 -29 62 q-19 39 -29 60 l-4 0 q-31 -74 -54 -122 l-79 -164 l-157 0 Z" /><glyph glyph-name="" unicode="a" d="M97 33 q-46 47 -46 119 q0 90 76.5 139.5 q76.5 49.5 245.5 67.5 q-4 97 -95 97 q-62 0 -154 -53 l-53 97 q119 74 234 74 q106 0 160.5 -62.5 q54.5 -62.5 54.5 -184.5 l0 -327 l-120 0 l-11 60 l-3 0 q-86 -74 -169 -74 q-74 0 -120 47 ZM191 164 q0 -63 74 -63 q53 0 108 55 l0 113 q-182 -24 -182 -105 Z" /><glyph glyph-name="" unicode="b" d="M79 0 l0 798 l146 0 l0 -201 l-3 -90 q74 67 155 67 q103 0 162 -78 q59 -77 59 -206 q0 -139 -73 -224 q-68 -80 -165 -80 q-79 0 -150 73 l-3 0 l-13 -59 l-115 0 ZM225 149 q47 -42 102 -42 q54 0 86 44 q34 48 34 136 q0 166 -111 166 q-53 0 -111 -58 l0 -246 Z" /><glyph glyph-name="" unicode="d" d="M109 64.5 q-62 78.5 -62 214.5 q0 132 72 216 q68 79 163 79 q44 0 80 -17 q29 -13 62 -44 l-6 88 l0 197 l147 0 l0 -798 l-119 0 l-12 58 l-3 0 q-74 -72 -155 -72 q-105 0 -167 78.5 ZM198 281 q0 -86 30 -130 q30 -44 86 -44 q60 0 104 58 l0 246 q-46 42 -104 42 q-50 0 -82 -44 q-34 -47 -34 -128 Z" /><glyph glyph-name="" unicode="e" d="M125 64 q-81 80 -81 215 q0 131 80 216 q76 79 181 79 q112 0 175 -76 q59 -72 59 -192 q0 -44 -7 -67 l-345 0 q9 -68 51 -104 q40 -36 104 -36 q64 0 126 39 l50 -90 q-90 -62 -196 -62 q-120 0 -197 78 ZM185 336 l228 0 q0 59 -26 91 q-27 33 -80 33 q-46 0 -79 -31 q-35 -34 -43 -93 Z" /><glyph glyph-name="" unicode="g" d="M110 -208 q-68 38 -68 109 q0 71 80 116 l0 5 q-51 33 -51 94 q0 30 19 59 q16 27 43 46 l0 4 q-31 23 -51 59 q-23 41 -23 87 q0 95 68 151 q64 52 158 52 q44 0 84 -14 l202 0 l0 -108 l-96 0 q26 -33 26 -85 q0 -91 -63 -142 q-59 -48 -153 -48 q-33 0 -72 13 q-24 -19 -24 -48 q0 -23 19 -34 q21 -12 69 -12 l95 0 q208 0 208 -140 q0 -86 -82 -142 q-84 -57 -222 -57 q-104 0 -166 35 ZM197 371 q0 -48 26 -76 q24 -27 62 -27 q38 0 62 27 q25 28 25 76 q0 48 -25 76 q-23 27 -62 27 q-39 0 -63 -27 q-25 -28 -25 -76 ZM164 -76 q0 -35 36 -54.5 q36 -19.5 98 -19.5 q62 0 103 24 q39 23 39 57 q0 29 -24 40 q-21 10 -69 10 l-68 0 q-46 0 -78 8 q-37 -30 -37 -65 Z" /><glyph glyph-name="" unicode="h" d="M79 0 l0 798 l146 0 l0 -201 l-6 -105 q88 82 176 82 q173 0 173 -225 l0 -349 l-147 0 l0 331 q0 64 -18.5 90.5 q-18.5 26.5 -60.5 26.5 q-32 0 -60 -16 q-22 -13 -57 -47 l0 -385 l-146 0 Z" /><glyph glyph-name="" unicode="i" d="M79 0 l0 560 l146 0 l0 -560 l-146 0 ZM90 672.5 q-25 22.5 -25 57.5 q0 36 24.5 58 q24.5 22 63.5 22 q38 0 62.5 -22 q24.5 -22 24.5 -58 q0 -34 -24.5 -57 q-24.5 -23 -62.5 -23 q-38 0 -63 22.5 Z" /><glyph glyph-name="" unicode="k" d="M79 0 l0 798 l143 0 l0 -480 l4 0 l194 242 l160 0 l-194 -229 l212 -331 l-159 0 l-136 232 l-81 -92 l0 -140 l-143 0 Z" /><glyph glyph-name="" unicode="l" d="M217 -14 q-138 0 -138 171 l0 641 l146 0 l0 -648 q0 -44 30 -44 q10 0 20 2 l18 -109 q-32 -13 -76 -13 Z" /><glyph glyph-name="" unicode="m" d="M79 0 l0 560 l120 0 l10 -75 l4 0 q41 42 76 63 q46 26 96 26 q111 0 154 -98 q44 47 81 69 q47 29 97 29 q87 0 132 -60 q42 -57 42 -165 l0 -349 l-147 0 l0 331 q0 63 -19 91 q-18 26 -59 26 q-48 0 -108 -63 l0 -385 l-147 0 l0 331 q0 63 -19 91 q-18 26 -59 26 q-48 0 -108 -63 l0 -385 l-146 0 Z" /><glyph glyph-name="" unicode="n" d="M79 0 l0 560 l120 0 l10 -74 l4 0 q90 88 182 88 q173 0 173 -225 l0 -349 l-147 0 l0 331 q0 64 -18.5 90.5 q-18.5 26.5 -60.5 26.5 q-32 0 -60 -16 q-22 -13 -57 -47 l0 -385 l-146 0 Z" /><glyph glyph-name="" unicode="o" d="M126 63 q-82 83 -82 216 q0 135 82 218 q76 77 187 77 q111 0 187 -77 q82 -83 82 -218 q0 -133 -82 -216 q-77 -77 -187 -77 q-110 0 -187 77 ZM194 279.5 q0 -80.5 31 -126.5 q32 -47 88 -47 q56 0 88 47 q31 46 31 126.5 q0 80.5 -31 126.5 q-32 48 -88 48 q-56 0 -88 -48 q-31 -46 -31 -126.5 Z" /><glyph glyph-name="" unicode="p" d="M79 -215 l0 775 l120 0 l10 -58 l4 0 q85 72 165 72 q103 0 162 -78 q58 -77 58 -207 q0 -138 -73 -223 q-68 -80 -165 -80 q-72 0 -139 61 l4 -92 l0 -170 l-146 0 ZM225 149 q49 -42 102.5 -42 q53.5 0 85.5 44 q34 48 34 136 q0 166 -111 166 q-53 0 -111 -58 l0 -246 Z" /><glyph glyph-name="" unicode="r" d="M79 0 l0 560 l120 0 l10 -99 l4 0 q30 54 73 84 q42 29 86 29 q37 0 66 -12 l-26 -127 q-28 9 -58 9 q-37 0 -69 -25 q-38 -28 -60 -85 l0 -334 l-146 0 Z" /><glyph glyph-name="" unicode="t" d="M21 444 l0 109 l86 7 l17 150 l123 0 l0 -150 l138 0 l0 -116 l-138 0 l0 -248 q0 -94 76 -94 q25 0 55 12 l24 -107 q-63 -21 -118 -21 q-184 0 -184 210 l0 248 l-79 0 Z" /><glyph glyph-name="" unicode="u" d="M245 -14 q-172 0 -172 224 l0 350 l147 0 l0 -331 q0 -64 19 -91 q18 -26 59 -26 q34 0 59.5 16 q25.5 16 54.5 54 l0 378 l147 0 l0 -560 l-120 0 l-11 80 l-4 0 q-79 -94 -179 -94 Z" /><glyph glyph-name="" unicode="x" d="M16 0 l175 292 l-164 268 l158 0 l56 -100 q25 -48 50 -94 l4 0 q7 16 21 47.5 q14 31.5 20 46.5 l47 100 l152 0 l-164 -285 l175 -275 l-158 0 l-62 102 q-6 11 -18 33 q-24 45 -36 66 l-5 0 q-12 -23 -34 -72 q-9 -18 -13 -27 l-52 -102 l-152 0 Z" /><glyph glyph-name="" unicode="y" d="M14 560 l148 0 l89 -260 q11 -34 32 -105 q10 -35 15 -53 l5 0 q7 26 20.5 79 q13.5 53 19.5 79 l77 260 l141 0 l-199 -577 q-39 -106 -88 -154 q-57 -54 -146 -54 q-42 0 -77 11 l27 113 q23 -7 39 -7 q77 0 105 85 l10 33 l-218 550 Z" /><glyph glyph-name="" unicode="|" d="M100 -283 l0 1134 l96 0 l0 -1134 l-96 0 Z" /><glyph glyph-name="" unicode="©" d="M164 92 q-111 106 -111 276 q0 170 111 275 q105 100 260 100 q156 0 261 -100 q111 -106 111 -275.5 q0 -169.5 -111 -275.5 q-106 -102 -261 -102 q-155 0 -260 102 ZM123 367.5 q0 -139.5 88 -228.5 q85 -87 213.5 -87 q128.5 0 213.5 87 q88 89 88 228.5 q0 139.5 -88 227.5 q-85 85 -214 85 q-129 0 -213 -85 q-88 -88 -88 -227.5 ZM283 204 q-62 61 -62 163 q0 96 66 159 q62 59 150 59 q82 0 149 -67 l-57 -63 q-41 41 -83 41 q-54 0 -86 -37 q-31 -36 -31 -92 q0 -62 30.5 -98.5 q30.5 -36.5 81.5 -36.5 q28 0 53 12 q18 8 45 29 l48 -69 q-72 -60 -150 -60 q-95 0 -154 60 Z" /><glyph glyph-name="" unicode="&#x2f00;&#x4e00;" d="M41 325 l0 129 l920 0 l0 -129 l-920 0 Z" /><glyph glyph-name="" unicode="&#x4e0a;" d="M46 -38 l0 120 l358 0 l0 753 l128 0 l0 -286 l353 0 l0 -121 l-353 0 l0 -346 l423 0 l0 -120 l-909 0 Z" /><glyph glyph-name="" unicode="&#x4e0b;" d="M55 654 l0 120 l891 0 l0 -120 l-402 0 l0 -157 l20 23 q241 -121 341 -202 l-88 -109 q-83 73 -273 182 l0 -475 l-128 0 l0 738 l-361 0 Z" /><glyph glyph-name="" unicode="&#x4f7f;" d="M461 375 l123 0 l0 13 l0 86 l-123 0 l0 -99 ZM702 375 l124 0 l0 99 l-124 0 l0 -87 l0 -12 ZM15 476 q72 68 136 167 q66 101 106 206 l110 -36 q-18 -42 -27 -64 l244 0 l0 91 l118 0 l0 -91 l265 0 l0 -108 l-265 0 l0 -70 l238 0 l0 -292 l-244 0 q-13 -100 -55 -174 q138 -66 342 -84 q-40 -41 -71 -106 q-202 25 -342 105 q-75 -69 -205 -107 q-32 55 -74 99 q116 26 182 77 q-68 57 -123 149 l97 30 q34 -55 93 -103 q28 50 37 114 l-223 0 l0 292 l230 0 l0 70 l-251 0 l0 92 q-30 -62 -60 -115 l0 -707 l-113 0 l0 537 q-46 -58 -82 -94 q-9 23 -28 61 q-21 40 -35 61 Z" /><glyph glyph-name="" unicode="&#x6210;" d="M28 -18 q51 80 70 208 q13 87 13 216 l0 292 l408 0 q-4 98 -4 148 l125 0 q-1 -66 2 -148 l153 0 q-45 36 -128 87 l72 71 q108 -55 163 -107 l-48 -51 l104 0 l0 -118 l-309 0 q13 -149 40 -274 q62 106 96 222 l119 -29 q-61 -193 -172 -343 q46 -114 93 -114 q18 0 27.5 41 q9.5 41 13.5 134 q41 -43 101 -67 q-14 -135 -48 -184 q-32 -45 -104 -45 q-98 0 -169 132 q-76 -79 -169 -136 q-36 52 -86 98 q116 63 204 162 q-48 159 -69 403 l-290 0 l0 -107 l247 0 q0 -22 -1 -45 q-2 -164 -8 -232 q-7 -75 -24 -96 q-24 -32 -69 -40 q-23 -4 -71 -4 q-18 0 -44 1 q-4 62 -33 111 q48 -4 86 -4 q20 0 30 12 q13 18 17 188 l-130 0 q-9 -317 -107 -463 q-17 18 -48 44 q-34 27 -53 37 Z" /><glyph glyph-name="" unicode="&#x65f6;" d="M180 489 l120 0 l0 174 l-120 0 l0 -174 ZM180 204 l120 0 l0 181 l-120 0 l0 -181 ZM68 17 l0 752 l343 0 l0 -672 l-231 0 l0 -80 l-112 0 ZM449 545 l0 118 l296 0 l0 177 l121 0 l0 -177 l102 0 l0 -118 l-102 0 l0 -474 q0 -54 -13 -81 q-13 -27 -47 -41 q-49 -21 -183 -21 q-14 0 -31 0 q-9 57 -42 120 q70 -3 165 -3 q17 0 23.5 6 q6.5 6 6.5 22 l0 472 l-296 0 ZM459 428 l98 52 q7 -10 22 -31 q100 -139 127 -189 l-105 -61 q-32 61 -142 229 Z" /><glyph glyph-name="" unicode="&#x677f;" d="M23 212 q42 52 83 152 q36 87 60 187 l-118 0 l0 110 l122 0 l0 186 l111 0 l0 -186 l107 0 l0 -110 l-107 0 l0 -19 q18 -23 62 -91 q42 -63 56 -88 l-69 -88 q-14 43 -49 122 l0 -474 l-111 0 l0 403 q-45 -147 -94 -222 q-19 62 -53 118 ZM454 11 q110 46 194 141 q-66 117 -112 313 q-8 -276 -82 -454 ZM643 465 q31 -125 76 -209 q51 90 77 209 l-153 0 ZM300 -25 q74 106 103 278 q19 114 19 279 l0 238 q298 13 448 69 l81 -94 q-150 -56 -414 -72 l0 -102 l296 0 l21 4 l74 -21 q-36 -249 -138 -407 q79 -92 188 -135 q-20 -18 -43.5 -48.5 q-23.5 -30.5 -36.5 -54.5 q-106 51 -183 142 q-80 -84 -192 -138 q-32 60 -69 97 q-27 -62 -56 -102 q-17 16 -47 37 q-32 22 -51 30 Z" /><glyph glyph-name="" unicode="&#x6a21;" d="M373 681 l0 98 l117 0 l0 67 l113 0 l0 -67 l116 0 l0 67 l116 0 l0 -67 l112 0 l0 -98 l-112 0 l0 -57 l-116 0 l0 57 l-116 0 l0 -57 l-113 0 l0 57 l-117 0 ZM21 213 q39 51 76 141 q33 80 55 171 l0 26 l-108 0 l0 110 l108 0 l0 186 l113 0 l0 -186 l90 0 l0 -109 l-90 0 l0 -35 q49 -65 122 -183 l-71 -83 q-17 46 -51 113 l0 -450 l-113 0 l0 338 q-33 -92 -74 -159 q-21 59 -57 120 ZM511 360 l275 0 l0 44 l-275 0 l0 -44 ZM511 481 l275 0 l0 44 l-275 0 l0 -44 ZM318 8 q171 34 228 114 l-191 0 l0 98 l229 0 q6 35 8 57 l-191 0 l0 330 l500 0 l0 -330 l-192 0 q-2 -18 -7 -51 q-1 -4 -1 -6 l250 0 l0 -98 l-175 0 q70 -83 201 -109 q-41 -37 -73 -98 q-161 45 -238 186 q-33 -67 -98 -111 q-70 -48 -190 -77 q-7 21 -25 49 q-18 28 -35 46 Z" /><glyph glyph-name="" unicode="&#x719f;" d="M47 702 l0 78 l188 0 q-10 28 -26 54 l108 25 q26 -42 41 -79 l152 0 l0 -78 l-463 0 ZM201 563 l163 0 l0 47 l-163 0 l0 -47 ZM104 502 l0 170 l362 0 l0 -170 l-362 0 ZM51 -39 q30 30 59 77 q29 48 45 95 l114 -28 q-41 -116 -106 -187 l-112 43 ZM46 330 q35 1 121 5 q42 2 64 3 l0 42 l3 0 q21 8 51 22 l-205 0 l0 70 l320 0 l20 5 l58 -49 q-62 -43 -139 -77 l0 -7 l155 8 l-1 -77 l-154 -10 l0 -41 q0 -35 -8.5 -51.5 q-8.5 -16.5 -32.5 -25.5 q-32 -13 -133 -13 q-8 34 -32 81 q35 -2 83 -2 q9 1 12 3.5 q3 2.5 3 10.5 l0 32 q-38 -2 -109 -6 q-48 -3 -69 -4 l-7 81 ZM328 98 l111 11 q22 -96 24 -173 l-119 -15 q0 86 -16 177 ZM533 99 l113 18 q41 -96 54 -172 l-120 -23 q-10 79 -47 177 ZM691 432 q45 -35 77 -68 q-4 66 -6 235 l-57 0 q0 -96 -14 -167 ZM427 199 q104 81 144 196 q-39 31 -89 64 l55 82 q19 -12 59 -38 q5 41 5 96 l-84 0 l0 100 l84 0 l0 149 l104 0 l0 -149 l165 0 q0 -21 -1 -60 q-2 -228 1 -293 q5 -98 26 -98 q15 0 17 123 q43 -54 65 -70 q-6 -84 -24 -118 q-20 -37 -66 -37 q-55 0 -83 48 q-26 44 -35 144 l-50 -80 q-23 29 -63 64 q-47 -111 -153 -193 q-23 31 -77 70 ZM737 102 l111 28 q65 -100 97 -183 l-120 -33 q-18 71 -88 188 Z" /><glyph glyph-name="" unicode="&#x2f64;&#x7528;" d="M570 317 l211 0 l0 123 l-211 0 l0 -123 ZM259 317 l191 0 l0 123 l-188 0 l0 -18 q0 -49 -3 -105 ZM262 551 l188 0 l0 116 l-188 0 l0 -116 ZM570 551 l211 0 l0 116 l-211 0 l0 -116 ZM26 -15 q73 80 100 212 q18 87 18 226 l0 357 l755 0 l0 -726 q0 -48 -12 -74.5 q-12 -26.5 -42 -39.5 q-43 -21 -159 -21 q-15 0 -33 0 q-6 48 -38 114 q40 -2 99 -2 q12 0 30 0 q8 0 11 0 q26 0 26 24 l0 150 l-211 0 l0 -279 l-120 0 l0 279 l-204 0 q-32 -195 -126 -297 q-15 17 -44 41 q-31 26 -50 36 Z" /><glyph glyph-name="" unicode="&#x7b14;" d="M26 609 q47 44 87 110 q40 65 64 136 l114 -30 q-1 -3 -3 -9 q-14 -35 -23 -52 l217 0 l0 -91 q65 79 100 182 l116 -30 q-9 -24 -25 -61 l276 0 l0 -99 l-170 0 q24 -39 32 -64 l-103 -38 q-11 39 -49 102 l-39 0 q-47 -72 -91 -114 q-46 38 -102 67 q24 19 48 47 l-127 0 q27 -46 42 -83 l-103 -41 q-16 50 -58 124 l-15 0 q-44 -73 -88 -121 q-30 24 -100 65 ZM51 192 l347 24 l0 63 l-289 -20 l-11 98 l300 20 l0 51 q-116 -5 -258 -7 q-3 41 -26 98 q455 9 725 59 l51 -99 q-165 -29 -371 -43 l0 -52 l346 23 l10 -95 l-356 -25 l0 -63 l422 28 l11 -100 l-433 -30 l0 -46 q0 -31 12 -40 q12 -9 54 -9 l174 0 q35 0 46 19 q11 18 17 83 q42 -29 107 -43 q-11 -95 -43.5 -128.5 q-32.5 -33.5 -115.5 -33.5 l-198 0 q-102 0 -138 31.5 q-36 31.5 -36 119.5 l0 39 l-337 -24 l-10 102 Z" /><glyph glyph-name="" unicode="&#x8404;" d="M278 498 l88 -26 q-12 -24 -19 -36 l349 0 l0 -84 l-211 0 l0 -66 l256 0 l0 -88 l-256 0 l0 -114 l101 0 l0 91 l109 0 l0 -173 l26 0 q22 0 33 17 q16 21 24.5 127.5 q8.5 106.5 13.5 351.5 l-514 0 ZM29 426 q105 93 161 227 l73 -14 l0 43 l-205 0 l0 104 l205 0 l0 60 l116 0 l0 -60 l237 0 l0 60 l116 0 l0 -60 l212 0 l0 -104 l-212 0 l0 -56 l-116 0 l0 56 l-237 0 l0 -56 l-78 0 q-2 -5 -7 -15.5 q-5 -10.5 -8 -15.5 l626 0 q0 -25 -1 -51 q-8 -304 -18 -423 q-11 -121 -33 -154 q-27 -40 -79 -48 q-24 -4 -68 -4 q-17 0 -55 1 q-2 33 -22 80 l-465 0 l0 179 l103 0 l0 -91 l105 0 l0 114 l-268 0 l0 88 l268 0 l0 66 l-84 0 q-19 -27 -47 -59 q-19 13 -79 42 q-5 3 -8 4 q65 62 109 159 l-40 0 q-48 -77 -123 -152 q-12 19 -36 43.5 q-24 24.5 -42 36.5 Z" /><glyph glyph-name="" unicode="&#x8461;" d="M197 435 l194 0 l0 48 l103 0 l0 -48 l82 0 q-23 19 -49 36 l37 28 l-323 0 q-14 -22 -44 -64 ZM494 333 l228 0 l0 -304 q0 -15 -2 -31 q10 0 20 0 q20 0 30 17 q14 21 22 127 q8 110 13 357 l-203 0 q37 -24 63 -45 l-23 -19 l102 0 l0 -67 l-250 0 l0 -35 ZM494 125 l127 0 l0 37 l-127 0 l0 -37 ZM262 125 l129 0 l0 37 l-129 0 l0 -37 ZM494 226 l127 0 l0 42 l-127 0 l0 -42 ZM262 226 l129 0 l0 42 l-129 0 l0 -42 ZM26 414 q119 95 173 241 l64 -11 l0 41 l-205 0 l0 105 l205 0 l0 56 l117 0 l0 -56 l235 0 l0 56 l117 0 l0 -56 l212 0 l0 -105 l-212 0 l0 -60 l-117 1 l0 59 l-235 0 l0 -59 l-74 0 q-6 -15 -13 -29 l629 0 q0 -25 -1 -51 q-7 -303 -17 -427 q-10 -119 -31 -151 q-22 -37 -74 -47 q-24 -4 -64 -4 q-22 0 -49 1 q0 12 -7 37 q-27 -9 -100 -9 q-6 28 -28 72 q15 -1 35 -1 q6 0 16 0 q5 0 7 0 q12 0 12 12 l0 32 l-127 0 l0 -114 l-103 0 l0 114 l-129 0 l0 -125 l-105 0 l0 397 l234 0 l0 35 l-221 0 l0 35 q-40 -44 -78 -76 q-10 21 -30 47 q-20 28 -36 40 Z" /><glyph glyph-name="" unicode="&#x8bb0;" d="M104 758 l79 74 q129 -108 171 -161 l-86 -84 q-41 59 -164 171 ZM40 428 l0 114 l264 0 l0 -395 l78 54 q11 -59 36 -105 q-193 -138 -221 -172 q-8 18 -28 46 q-19 26 -34 40 q20 17 33 42 q17 32 17 68 l0 308 l-145 0 ZM414 664 l0 118 l495 0 l0 -482 l-120 0 l0 49 l-231 0 l0 -257 q0 -32 11.5 -40.5 q11.5 -8.5 52.5 -8.5 l166 0 q39 0 51 28 q12 27 17 127 q39 -28 113 -48 q-11 -130 -45.5 -175.5 q-34.5 -45.5 -126.5 -45.5 l-188 0 q-100 0 -136 34 q-38 34 -38 130 l0 368 l354 0 l0 203 l-375 0 Z" /><glyph glyph-name="" unicode="&#x2eda;&#x9875;" d="M69 690 l0 110 l869 0 l0 -110 l-393 0 q-13 -30 -40 -86 q-1 -3 -2 -4 l361 0 l0 -460 l-128 0 l0 350 l-464 0 l0 -353 l-122 0 l0 463 l235 0 q10 28 26 90 l-342 0 ZM42 9 q234 42 328 118 q71 57 71 144 l0 178 l123 0 l0 -181 q0 -123 -85 -202 q-107 -101 -364 -154 q-10 20 -31 48 q-22 30 -42 49 ZM535 96 l68 81 q88 -35 185 -82 q106 -52 162 -90 l-72 -93 q-54 39 -157 94 q-96 50 -186 90 Z" /></font>
</defs>
</svg>
